<?xml version="1.0" encoding="utf-8" standalone="no"?>
<!DOCTYPE svg PUBLIC "-//W3C//DTD SVG 1.1//EN"
  "http://www.w3.org/Graphics/SVG/1.1/DTD/svg11.dtd">
<svg xmlns:xlink="http://www.w3.org/1999/xlink" width="1178.51875pt" height="291.021094pt" viewBox="0 0 1178.51875 291.021094" xmlns="http://www.w3.org/2000/svg" version="1.1">
 <metadata>
  <rdf:RDF xmlns:dc="http://purl.org/dc/elements/1.1/" xmlns:cc="http://creativecommons.org/ns#" xmlns:rdf="http://www.w3.org/1999/02/22-rdf-syntax-ns#">
   <cc:Work>
    <dc:type rdf:resource="http://purl.org/dc/dcmitype/StillImage"/>
    <dc:date>2024-05-28T14:55:37.152962</dc:date>
    <dc:format>image/svg+xml</dc:format>
    <dc:creator>
     <cc:Agent>
      <dc:title>Matplotlib v3.8.1, https://matplotlib.org/</dc:title>
     </cc:Agent>
    </dc:creator>
   </cc:Work>
  </rdf:RDF>
 </metadata>
 <defs>
  <style type="text/css">*{stroke-linejoin: round; stroke-linecap: butt}</style>
 </defs>
 <g id="figure_1">
  <g id="patch_1">
   <path d="M 0 291.021094 
L 1178.51875 291.021094 
L 1178.51875 0 
L 0 0 
z
" style="fill: #ffffff"/>
  </g>
  <g id="axes_1">
   <g id="patch_2">
    <path d="M 47.105 249.286875 
L 1049.61455 249.286875 
L 1049.61455 21.789375 
L 47.105 21.789375 
z
" style="fill: #ffffff"/>
   </g>
   <g id="matplotlib.axis_1">
    <g id="xtick_1">
     <g id="line2d_1">
      <path d="M 138.242232 249.286875 
L 138.242232 21.789375 
" clip-path="url(#p3efa8aeb1b)" style="fill: none; stroke: #cccccc; stroke-linecap: round"/>
     </g>
     <g id="text_1">
      <!-- 0.0 -->
      <g style="fill: #262626" transform="translate(130.597232 266.660469) scale(0.11 -0.11)">
       <defs>
        <path id="ArialMT-30" d="M 266 2259 
Q 266 3072 433 3567 
Q 600 4063 929 4331 
Q 1259 4600 1759 4600 
Q 2128 4600 2406 4451 
Q 2684 4303 2865 4023 
Q 3047 3744 3150 3342 
Q 3253 2941 3253 2259 
Q 3253 1453 3087 958 
Q 2922 463 2592 192 
Q 2263 -78 1759 -78 
Q 1097 -78 719 397 
Q 266 969 266 2259 
z
M 844 2259 
Q 844 1131 1108 757 
Q 1372 384 1759 384 
Q 2147 384 2411 759 
Q 2675 1134 2675 2259 
Q 2675 3391 2411 3762 
Q 2147 4134 1753 4134 
Q 1366 4134 1134 3806 
Q 844 3388 844 2259 
z
" transform="scale(0.015625)"/>
        <path id="ArialMT-2e" d="M 581 0 
L 581 641 
L 1222 641 
L 1222 0 
L 581 0 
z
" transform="scale(0.015625)"/>
       </defs>
       <use xlink:href="#ArialMT-30"/>
       <use xlink:href="#ArialMT-2e" x="55.615234"/>
       <use xlink:href="#ArialMT-30" x="83.398438"/>
      </g>
     </g>
    </g>
    <g id="xtick_2">
     <g id="line2d_2">
      <path d="M 183.810848 249.286875 
L 183.810848 21.789375 
" clip-path="url(#p3efa8aeb1b)" style="fill: none; stroke: #cccccc; stroke-linecap: round"/>
     </g>
     <g id="text_2">
      <!-- 0.5 -->
      <g style="fill: #262626" transform="translate(176.165848 266.660469) scale(0.11 -0.11)">
       <defs>
        <path id="ArialMT-35" d="M 266 1200 
L 856 1250 
Q 922 819 1161 601 
Q 1400 384 1738 384 
Q 2144 384 2425 690 
Q 2706 997 2706 1503 
Q 2706 1984 2436 2262 
Q 2166 2541 1728 2541 
Q 1456 2541 1237 2417 
Q 1019 2294 894 2097 
L 366 2166 
L 809 4519 
L 3088 4519 
L 3088 3981 
L 1259 3981 
L 1013 2750 
Q 1425 3038 1878 3038 
Q 2478 3038 2890 2622 
Q 3303 2206 3303 1553 
Q 3303 931 2941 478 
Q 2500 -78 1738 -78 
Q 1113 -78 717 272 
Q 322 622 266 1200 
z
" transform="scale(0.015625)"/>
       </defs>
       <use xlink:href="#ArialMT-30"/>
       <use xlink:href="#ArialMT-2e" x="55.615234"/>
       <use xlink:href="#ArialMT-35" x="83.398438"/>
      </g>
     </g>
    </g>
    <g id="xtick_3">
     <g id="line2d_3">
      <path d="M 229.379464 249.286875 
L 229.379464 21.789375 
" clip-path="url(#p3efa8aeb1b)" style="fill: none; stroke: #cccccc; stroke-linecap: round"/>
     </g>
     <g id="text_3">
      <!-- 1.0 -->
      <g style="fill: #262626" transform="translate(221.734464 266.660469) scale(0.11 -0.11)">
       <defs>
        <path id="ArialMT-31" d="M 2384 0 
L 1822 0 
L 1822 3584 
Q 1619 3391 1289 3197 
Q 959 3003 697 2906 
L 697 3450 
Q 1169 3672 1522 3987 
Q 1875 4303 2022 4600 
L 2384 4600 
L 2384 0 
z
" transform="scale(0.015625)"/>
       </defs>
       <use xlink:href="#ArialMT-31"/>
       <use xlink:href="#ArialMT-2e" x="55.615234"/>
       <use xlink:href="#ArialMT-30" x="83.398438"/>
      </g>
     </g>
    </g>
    <g id="xtick_4">
     <g id="line2d_4">
      <path d="M 274.94808 249.286875 
L 274.94808 21.789375 
" clip-path="url(#p3efa8aeb1b)" style="fill: none; stroke: #cccccc; stroke-linecap: round"/>
     </g>
     <g id="text_4">
      <!-- 1.5 -->
      <g style="fill: #262626" transform="translate(267.30308 266.660469) scale(0.11 -0.11)">
       <use xlink:href="#ArialMT-31"/>
       <use xlink:href="#ArialMT-2e" x="55.615234"/>
       <use xlink:href="#ArialMT-35" x="83.398438"/>
      </g>
     </g>
    </g>
    <g id="xtick_5">
     <g id="line2d_5">
      <path d="M 320.516695 249.286875 
L 320.516695 21.789375 
" clip-path="url(#p3efa8aeb1b)" style="fill: none; stroke: #cccccc; stroke-linecap: round"/>
     </g>
     <g id="text_5">
      <!-- 2.0 -->
      <g style="fill: #262626" transform="translate(312.871695 266.660469) scale(0.11 -0.11)">
       <defs>
        <path id="ArialMT-32" d="M 3222 541 
L 3222 0 
L 194 0 
Q 188 203 259 391 
Q 375 700 629 1000 
Q 884 1300 1366 1694 
Q 2113 2306 2375 2664 
Q 2638 3022 2638 3341 
Q 2638 3675 2398 3904 
Q 2159 4134 1775 4134 
Q 1369 4134 1125 3890 
Q 881 3647 878 3216 
L 300 3275 
Q 359 3922 746 4261 
Q 1134 4600 1788 4600 
Q 2447 4600 2831 4234 
Q 3216 3869 3216 3328 
Q 3216 3053 3103 2787 
Q 2991 2522 2730 2228 
Q 2469 1934 1863 1422 
Q 1356 997 1212 845 
Q 1069 694 975 541 
L 3222 541 
z
" transform="scale(0.015625)"/>
       </defs>
       <use xlink:href="#ArialMT-32"/>
       <use xlink:href="#ArialMT-2e" x="55.615234"/>
       <use xlink:href="#ArialMT-30" x="83.398438"/>
      </g>
     </g>
    </g>
    <g id="xtick_6">
     <g id="line2d_6">
      <path d="M 366.085311 249.286875 
L 366.085311 21.789375 
" clip-path="url(#p3efa8aeb1b)" style="fill: none; stroke: #cccccc; stroke-linecap: round"/>
     </g>
     <g id="text_6">
      <!-- 2.5 -->
      <g style="fill: #262626" transform="translate(358.440311 266.660469) scale(0.11 -0.11)">
       <use xlink:href="#ArialMT-32"/>
       <use xlink:href="#ArialMT-2e" x="55.615234"/>
       <use xlink:href="#ArialMT-35" x="83.398438"/>
      </g>
     </g>
    </g>
    <g id="xtick_7">
     <g id="line2d_7">
      <path d="M 411.653927 249.286875 
L 411.653927 21.789375 
" clip-path="url(#p3efa8aeb1b)" style="fill: none; stroke: #cccccc; stroke-linecap: round"/>
     </g>
     <g id="text_7">
      <!-- 3.0 -->
      <g style="fill: #262626" transform="translate(404.008927 266.660469) scale(0.11 -0.11)">
       <defs>
        <path id="ArialMT-33" d="M 269 1209 
L 831 1284 
Q 928 806 1161 595 
Q 1394 384 1728 384 
Q 2125 384 2398 659 
Q 2672 934 2672 1341 
Q 2672 1728 2419 1979 
Q 2166 2231 1775 2231 
Q 1616 2231 1378 2169 
L 1441 2663 
Q 1497 2656 1531 2656 
Q 1891 2656 2178 2843 
Q 2466 3031 2466 3422 
Q 2466 3731 2256 3934 
Q 2047 4138 1716 4138 
Q 1388 4138 1169 3931 
Q 950 3725 888 3313 
L 325 3413 
Q 428 3978 793 4289 
Q 1159 4600 1703 4600 
Q 2078 4600 2393 4439 
Q 2709 4278 2876 4000 
Q 3044 3722 3044 3409 
Q 3044 3113 2884 2869 
Q 2725 2625 2413 2481 
Q 2819 2388 3044 2092 
Q 3269 1797 3269 1353 
Q 3269 753 2831 336 
Q 2394 -81 1725 -81 
Q 1122 -81 723 278 
Q 325 638 269 1209 
z
" transform="scale(0.015625)"/>
       </defs>
       <use xlink:href="#ArialMT-33"/>
       <use xlink:href="#ArialMT-2e" x="55.615234"/>
       <use xlink:href="#ArialMT-30" x="83.398438"/>
      </g>
     </g>
    </g>
    <g id="xtick_8">
     <g id="line2d_8">
      <path d="M 457.222543 249.286875 
L 457.222543 21.789375 
" clip-path="url(#p3efa8aeb1b)" style="fill: none; stroke: #cccccc; stroke-linecap: round"/>
     </g>
     <g id="text_8">
      <!-- 3.5 -->
      <g style="fill: #262626" transform="translate(449.577543 266.660469) scale(0.11 -0.11)">
       <use xlink:href="#ArialMT-33"/>
       <use xlink:href="#ArialMT-2e" x="55.615234"/>
       <use xlink:href="#ArialMT-35" x="83.398438"/>
      </g>
     </g>
    </g>
    <g id="xtick_9">
     <g id="line2d_9">
      <path d="M 502.791159 249.286875 
L 502.791159 21.789375 
" clip-path="url(#p3efa8aeb1b)" style="fill: none; stroke: #cccccc; stroke-linecap: round"/>
     </g>
     <g id="text_9">
      <!-- 4.0 -->
      <g style="fill: #262626" transform="translate(495.146159 266.660469) scale(0.11 -0.11)">
       <defs>
        <path id="ArialMT-34" d="M 2069 0 
L 2069 1097 
L 81 1097 
L 81 1613 
L 2172 4581 
L 2631 4581 
L 2631 1613 
L 3250 1613 
L 3250 1097 
L 2631 1097 
L 2631 0 
L 2069 0 
z
M 2069 1613 
L 2069 3678 
L 634 1613 
L 2069 1613 
z
" transform="scale(0.015625)"/>
       </defs>
       <use xlink:href="#ArialMT-34"/>
       <use xlink:href="#ArialMT-2e" x="55.615234"/>
       <use xlink:href="#ArialMT-30" x="83.398438"/>
      </g>
     </g>
    </g>
    <g id="xtick_10">
     <g id="line2d_10">
      <path d="M 548.359775 249.286875 
L 548.359775 21.789375 
" clip-path="url(#p3efa8aeb1b)" style="fill: none; stroke: #cccccc; stroke-linecap: round"/>
     </g>
     <g id="text_10">
      <!-- 4.5 -->
      <g style="fill: #262626" transform="translate(540.714775 266.660469) scale(0.11 -0.11)">
       <use xlink:href="#ArialMT-34"/>
       <use xlink:href="#ArialMT-2e" x="55.615234"/>
       <use xlink:href="#ArialMT-35" x="83.398438"/>
      </g>
     </g>
    </g>
    <g id="xtick_11">
     <g id="line2d_11">
      <path d="M 593.928391 249.286875 
L 593.928391 21.789375 
" clip-path="url(#p3efa8aeb1b)" style="fill: none; stroke: #cccccc; stroke-linecap: round"/>
     </g>
     <g id="text_11">
      <!-- 5.0 -->
      <g style="fill: #262626" transform="translate(586.283391 266.660469) scale(0.11 -0.11)">
       <use xlink:href="#ArialMT-35"/>
       <use xlink:href="#ArialMT-2e" x="55.615234"/>
       <use xlink:href="#ArialMT-30" x="83.398438"/>
      </g>
     </g>
    </g>
    <g id="xtick_12">
     <g id="line2d_12">
      <path d="M 639.497007 249.286875 
L 639.497007 21.789375 
" clip-path="url(#p3efa8aeb1b)" style="fill: none; stroke: #cccccc; stroke-linecap: round"/>
     </g>
     <g id="text_12">
      <!-- 5.5 -->
      <g style="fill: #262626" transform="translate(631.852007 266.660469) scale(0.11 -0.11)">
       <use xlink:href="#ArialMT-35"/>
       <use xlink:href="#ArialMT-2e" x="55.615234"/>
       <use xlink:href="#ArialMT-35" x="83.398438"/>
      </g>
     </g>
    </g>
    <g id="xtick_13">
     <g id="line2d_13">
      <path d="M 685.065623 249.286875 
L 685.065623 21.789375 
" clip-path="url(#p3efa8aeb1b)" style="fill: none; stroke: #cccccc; stroke-linecap: round"/>
     </g>
     <g id="text_13">
      <!-- 6.0 -->
      <g style="fill: #262626" transform="translate(677.420623 266.660469) scale(0.11 -0.11)">
       <defs>
        <path id="ArialMT-36" d="M 3184 3459 
L 2625 3416 
Q 2550 3747 2413 3897 
Q 2184 4138 1850 4138 
Q 1581 4138 1378 3988 
Q 1113 3794 959 3422 
Q 806 3050 800 2363 
Q 1003 2672 1297 2822 
Q 1591 2972 1913 2972 
Q 2475 2972 2870 2558 
Q 3266 2144 3266 1488 
Q 3266 1056 3080 686 
Q 2894 316 2569 119 
Q 2244 -78 1831 -78 
Q 1128 -78 684 439 
Q 241 956 241 2144 
Q 241 3472 731 4075 
Q 1159 4600 1884 4600 
Q 2425 4600 2770 4297 
Q 3116 3994 3184 3459 
z
M 888 1484 
Q 888 1194 1011 928 
Q 1134 663 1356 523 
Q 1578 384 1822 384 
Q 2178 384 2434 671 
Q 2691 959 2691 1453 
Q 2691 1928 2437 2201 
Q 2184 2475 1800 2475 
Q 1419 2475 1153 2201 
Q 888 1928 888 1484 
z
" transform="scale(0.015625)"/>
       </defs>
       <use xlink:href="#ArialMT-36"/>
       <use xlink:href="#ArialMT-2e" x="55.615234"/>
       <use xlink:href="#ArialMT-30" x="83.398438"/>
      </g>
     </g>
    </g>
    <g id="xtick_14">
     <g id="line2d_14">
      <path d="M 730.634239 249.286875 
L 730.634239 21.789375 
" clip-path="url(#p3efa8aeb1b)" style="fill: none; stroke: #cccccc; stroke-linecap: round"/>
     </g>
     <g id="text_14">
      <!-- 6.5 -->
      <g style="fill: #262626" transform="translate(722.989239 266.660469) scale(0.11 -0.11)">
       <use xlink:href="#ArialMT-36"/>
       <use xlink:href="#ArialMT-2e" x="55.615234"/>
       <use xlink:href="#ArialMT-35" x="83.398438"/>
      </g>
     </g>
    </g>
    <g id="xtick_15">
     <g id="line2d_15">
      <path d="M 776.202855 249.286875 
L 776.202855 21.789375 
" clip-path="url(#p3efa8aeb1b)" style="fill: none; stroke: #cccccc; stroke-linecap: round"/>
     </g>
     <g id="text_15">
      <!-- 7.0 -->
      <g style="fill: #262626" transform="translate(768.557855 266.660469) scale(0.11 -0.11)">
       <defs>
        <path id="ArialMT-37" d="M 303 3981 
L 303 4522 
L 3269 4522 
L 3269 4084 
Q 2831 3619 2401 2847 
Q 1972 2075 1738 1259 
Q 1569 684 1522 0 
L 944 0 
Q 953 541 1156 1306 
Q 1359 2072 1739 2783 
Q 2119 3494 2547 3981 
L 303 3981 
z
" transform="scale(0.015625)"/>
       </defs>
       <use xlink:href="#ArialMT-37"/>
       <use xlink:href="#ArialMT-2e" x="55.615234"/>
       <use xlink:href="#ArialMT-30" x="83.398438"/>
      </g>
     </g>
    </g>
    <g id="xtick_16">
     <g id="line2d_16">
      <path d="M 821.77147 249.286875 
L 821.77147 21.789375 
" clip-path="url(#p3efa8aeb1b)" style="fill: none; stroke: #cccccc; stroke-linecap: round"/>
     </g>
     <g id="text_16">
      <!-- 7.5 -->
      <g style="fill: #262626" transform="translate(814.12647 266.660469) scale(0.11 -0.11)">
       <use xlink:href="#ArialMT-37"/>
       <use xlink:href="#ArialMT-2e" x="55.615234"/>
       <use xlink:href="#ArialMT-35" x="83.398438"/>
      </g>
     </g>
    </g>
    <g id="xtick_17">
     <g id="line2d_17">
      <path d="M 867.340086 249.286875 
L 867.340086 21.789375 
" clip-path="url(#p3efa8aeb1b)" style="fill: none; stroke: #cccccc; stroke-linecap: round"/>
     </g>
     <g id="text_17">
      <!-- 8.0 -->
      <g style="fill: #262626" transform="translate(859.695086 266.660469) scale(0.11 -0.11)">
       <defs>
        <path id="ArialMT-38" d="M 1131 2484 
Q 781 2613 612 2850 
Q 444 3088 444 3419 
Q 444 3919 803 4259 
Q 1163 4600 1759 4600 
Q 2359 4600 2725 4251 
Q 3091 3903 3091 3403 
Q 3091 3084 2923 2848 
Q 2756 2613 2416 2484 
Q 2838 2347 3058 2040 
Q 3278 1734 3278 1309 
Q 3278 722 2862 322 
Q 2447 -78 1769 -78 
Q 1091 -78 675 323 
Q 259 725 259 1325 
Q 259 1772 486 2073 
Q 713 2375 1131 2484 
z
M 1019 3438 
Q 1019 3113 1228 2906 
Q 1438 2700 1772 2700 
Q 2097 2700 2305 2904 
Q 2513 3109 2513 3406 
Q 2513 3716 2298 3927 
Q 2084 4138 1766 4138 
Q 1444 4138 1231 3931 
Q 1019 3725 1019 3438 
z
M 838 1322 
Q 838 1081 952 856 
Q 1066 631 1291 507 
Q 1516 384 1775 384 
Q 2178 384 2440 643 
Q 2703 903 2703 1303 
Q 2703 1709 2433 1975 
Q 2163 2241 1756 2241 
Q 1359 2241 1098 1978 
Q 838 1716 838 1322 
z
" transform="scale(0.015625)"/>
       </defs>
       <use xlink:href="#ArialMT-38"/>
       <use xlink:href="#ArialMT-2e" x="55.615234"/>
       <use xlink:href="#ArialMT-30" x="83.398438"/>
      </g>
     </g>
    </g>
    <g id="xtick_18">
     <g id="line2d_18">
      <path d="M 912.908702 249.286875 
L 912.908702 21.789375 
" clip-path="url(#p3efa8aeb1b)" style="fill: none; stroke: #cccccc; stroke-linecap: round"/>
     </g>
     <g id="text_18">
      <!-- 8.5 -->
      <g style="fill: #262626" transform="translate(905.263702 266.660469) scale(0.11 -0.11)">
       <use xlink:href="#ArialMT-38"/>
       <use xlink:href="#ArialMT-2e" x="55.615234"/>
       <use xlink:href="#ArialMT-35" x="83.398438"/>
      </g>
     </g>
    </g>
    <g id="xtick_19">
     <g id="line2d_19">
      <path d="M 958.477318 249.286875 
L 958.477318 21.789375 
" clip-path="url(#p3efa8aeb1b)" style="fill: none; stroke: #cccccc; stroke-linecap: round"/>
     </g>
     <g id="text_19">
      <!-- 9.0 -->
      <g style="fill: #262626" transform="translate(950.832318 266.660469) scale(0.11 -0.11)">
       <defs>
        <path id="ArialMT-39" d="M 350 1059 
L 891 1109 
Q 959 728 1153 556 
Q 1347 384 1650 384 
Q 1909 384 2104 503 
Q 2300 622 2425 820 
Q 2550 1019 2634 1356 
Q 2719 1694 2719 2044 
Q 2719 2081 2716 2156 
Q 2547 1888 2255 1720 
Q 1963 1553 1622 1553 
Q 1053 1553 659 1965 
Q 266 2378 266 3053 
Q 266 3750 677 4175 
Q 1088 4600 1706 4600 
Q 2153 4600 2523 4359 
Q 2894 4119 3086 3673 
Q 3278 3228 3278 2384 
Q 3278 1506 3087 986 
Q 2897 466 2520 194 
Q 2144 -78 1638 -78 
Q 1100 -78 759 220 
Q 419 519 350 1059 
z
M 2653 3081 
Q 2653 3566 2395 3850 
Q 2138 4134 1775 4134 
Q 1400 4134 1122 3828 
Q 844 3522 844 3034 
Q 844 2597 1108 2323 
Q 1372 2050 1759 2050 
Q 2150 2050 2401 2323 
Q 2653 2597 2653 3081 
z
" transform="scale(0.015625)"/>
       </defs>
       <use xlink:href="#ArialMT-39"/>
       <use xlink:href="#ArialMT-2e" x="55.615234"/>
       <use xlink:href="#ArialMT-30" x="83.398438"/>
      </g>
     </g>
    </g>
    <g id="xtick_20">
     <g id="line2d_20">
      <path d="M 1004.045934 249.286875 
L 1004.045934 21.789375 
" clip-path="url(#p3efa8aeb1b)" style="fill: none; stroke: #cccccc; stroke-linecap: round"/>
     </g>
     <g id="text_20">
      <!-- 9.5 -->
      <g style="fill: #262626" transform="translate(996.400934 266.660469) scale(0.11 -0.11)">
       <use xlink:href="#ArialMT-39"/>
       <use xlink:href="#ArialMT-2e" x="55.615234"/>
       <use xlink:href="#ArialMT-35" x="83.398438"/>
      </g>
     </g>
    </g>
    <g id="xtick_21">
     <g id="line2d_21">
      <path d="M 1049.61455 249.286875 
L 1049.61455 21.789375 
" clip-path="url(#p3efa8aeb1b)" style="fill: none; stroke: #cccccc; stroke-linecap: round"/>
     </g>
     <g id="text_21">
      <!-- 10.0 -->
      <g style="fill: #262626" transform="translate(1038.911034 266.660469) scale(0.11 -0.11)">
       <use xlink:href="#ArialMT-31"/>
       <use xlink:href="#ArialMT-30" x="55.615234"/>
       <use xlink:href="#ArialMT-2e" x="111.230469"/>
       <use xlink:href="#ArialMT-30" x="139.013672"/>
      </g>
     </g>
    </g>
    <g id="text_22">
     <!-- Execution Time -->
     <g style="fill: #262626" transform="translate(507.342275 281.436094) scale(0.12 -0.12)">
      <defs>
       <path id="ArialMT-45" d="M 506 0 
L 506 4581 
L 3819 4581 
L 3819 4041 
L 1113 4041 
L 1113 2638 
L 3647 2638 
L 3647 2100 
L 1113 2100 
L 1113 541 
L 3925 541 
L 3925 0 
L 506 0 
z
" transform="scale(0.015625)"/>
       <path id="ArialMT-78" d="M 47 0 
L 1259 1725 
L 138 3319 
L 841 3319 
L 1350 2541 
Q 1494 2319 1581 2169 
Q 1719 2375 1834 2534 
L 2394 3319 
L 3066 3319 
L 1919 1756 
L 3153 0 
L 2463 0 
L 1781 1031 
L 1600 1309 
L 728 0 
L 47 0 
z
" transform="scale(0.015625)"/>
       <path id="ArialMT-65" d="M 2694 1069 
L 3275 997 
Q 3138 488 2766 206 
Q 2394 -75 1816 -75 
Q 1088 -75 661 373 
Q 234 822 234 1631 
Q 234 2469 665 2931 
Q 1097 3394 1784 3394 
Q 2450 3394 2872 2941 
Q 3294 2488 3294 1666 
Q 3294 1616 3291 1516 
L 816 1516 
Q 847 969 1125 678 
Q 1403 388 1819 388 
Q 2128 388 2347 550 
Q 2566 713 2694 1069 
z
M 847 1978 
L 2700 1978 
Q 2663 2397 2488 2606 
Q 2219 2931 1791 2931 
Q 1403 2931 1139 2672 
Q 875 2413 847 1978 
z
" transform="scale(0.015625)"/>
       <path id="ArialMT-63" d="M 2588 1216 
L 3141 1144 
Q 3050 572 2676 248 
Q 2303 -75 1759 -75 
Q 1078 -75 664 370 
Q 250 816 250 1647 
Q 250 2184 428 2587 
Q 606 2991 970 3192 
Q 1334 3394 1763 3394 
Q 2303 3394 2647 3120 
Q 2991 2847 3088 2344 
L 2541 2259 
Q 2463 2594 2264 2762 
Q 2066 2931 1784 2931 
Q 1359 2931 1093 2626 
Q 828 2322 828 1663 
Q 828 994 1084 691 
Q 1341 388 1753 388 
Q 2084 388 2306 591 
Q 2528 794 2588 1216 
z
" transform="scale(0.015625)"/>
       <path id="ArialMT-75" d="M 2597 0 
L 2597 488 
Q 2209 -75 1544 -75 
Q 1250 -75 995 37 
Q 741 150 617 320 
Q 494 491 444 738 
Q 409 903 409 1263 
L 409 3319 
L 972 3319 
L 972 1478 
Q 972 1038 1006 884 
Q 1059 663 1231 536 
Q 1403 409 1656 409 
Q 1909 409 2131 539 
Q 2353 669 2445 892 
Q 2538 1116 2538 1541 
L 2538 3319 
L 3100 3319 
L 3100 0 
L 2597 0 
z
" transform="scale(0.015625)"/>
       <path id="ArialMT-74" d="M 1650 503 
L 1731 6 
Q 1494 -44 1306 -44 
Q 1000 -44 831 53 
Q 663 150 594 308 
Q 525 466 525 972 
L 525 2881 
L 113 2881 
L 113 3319 
L 525 3319 
L 525 4141 
L 1084 4478 
L 1084 3319 
L 1650 3319 
L 1650 2881 
L 1084 2881 
L 1084 941 
Q 1084 700 1114 631 
Q 1144 563 1211 522 
Q 1278 481 1403 481 
Q 1497 481 1650 503 
z
" transform="scale(0.015625)"/>
       <path id="ArialMT-69" d="M 425 3934 
L 425 4581 
L 988 4581 
L 988 3934 
L 425 3934 
z
M 425 0 
L 425 3319 
L 988 3319 
L 988 0 
L 425 0 
z
" transform="scale(0.015625)"/>
       <path id="ArialMT-6f" d="M 213 1659 
Q 213 2581 725 3025 
Q 1153 3394 1769 3394 
Q 2453 3394 2887 2945 
Q 3322 2497 3322 1706 
Q 3322 1066 3130 698 
Q 2938 331 2570 128 
Q 2203 -75 1769 -75 
Q 1072 -75 642 372 
Q 213 819 213 1659 
z
M 791 1659 
Q 791 1022 1069 705 
Q 1347 388 1769 388 
Q 2188 388 2466 706 
Q 2744 1025 2744 1678 
Q 2744 2294 2464 2611 
Q 2184 2928 1769 2928 
Q 1347 2928 1069 2612 
Q 791 2297 791 1659 
z
" transform="scale(0.015625)"/>
       <path id="ArialMT-6e" d="M 422 0 
L 422 3319 
L 928 3319 
L 928 2847 
Q 1294 3394 1984 3394 
Q 2284 3394 2536 3286 
Q 2788 3178 2913 3003 
Q 3038 2828 3088 2588 
Q 3119 2431 3119 2041 
L 3119 0 
L 2556 0 
L 2556 2019 
Q 2556 2363 2490 2533 
Q 2425 2703 2258 2804 
Q 2091 2906 1866 2906 
Q 1506 2906 1245 2678 
Q 984 2450 984 1813 
L 984 0 
L 422 0 
z
" transform="scale(0.015625)"/>
       <path id="ArialMT-20" transform="scale(0.015625)"/>
       <path id="ArialMT-54" d="M 1659 0 
L 1659 4041 
L 150 4041 
L 150 4581 
L 3781 4581 
L 3781 4041 
L 2266 4041 
L 2266 0 
L 1659 0 
z
" transform="scale(0.015625)"/>
       <path id="ArialMT-6d" d="M 422 0 
L 422 3319 
L 925 3319 
L 925 2853 
Q 1081 3097 1340 3245 
Q 1600 3394 1931 3394 
Q 2300 3394 2536 3241 
Q 2772 3088 2869 2813 
Q 3263 3394 3894 3394 
Q 4388 3394 4653 3120 
Q 4919 2847 4919 2278 
L 4919 0 
L 4359 0 
L 4359 2091 
Q 4359 2428 4304 2576 
Q 4250 2725 4106 2815 
Q 3963 2906 3769 2906 
Q 3419 2906 3187 2673 
Q 2956 2441 2956 1928 
L 2956 0 
L 2394 0 
L 2394 2156 
Q 2394 2531 2256 2718 
Q 2119 2906 1806 2906 
Q 1569 2906 1367 2781 
Q 1166 2656 1075 2415 
Q 984 2175 984 1722 
L 984 0 
L 422 0 
z
" transform="scale(0.015625)"/>
      </defs>
      <use xlink:href="#ArialMT-45"/>
      <use xlink:href="#ArialMT-78" x="66.699219"/>
      <use xlink:href="#ArialMT-65" x="116.699219"/>
      <use xlink:href="#ArialMT-63" x="172.314453"/>
      <use xlink:href="#ArialMT-75" x="222.314453"/>
      <use xlink:href="#ArialMT-74" x="277.929688"/>
      <use xlink:href="#ArialMT-69" x="305.712891"/>
      <use xlink:href="#ArialMT-6f" x="327.929688"/>
      <use xlink:href="#ArialMT-6e" x="383.544922"/>
      <use xlink:href="#ArialMT-20" x="439.160156"/>
      <use xlink:href="#ArialMT-54" x="465.193359"/>
      <use xlink:href="#ArialMT-69" x="522.527344"/>
      <use xlink:href="#ArialMT-6d" x="544.744141"/>
      <use xlink:href="#ArialMT-65" x="628.044922"/>
     </g>
    </g>
   </g>
   <g id="matplotlib.axis_2">
    <g id="ytick_1">
     <g id="line2d_22">
      <path d="M 47.105 249.286875 
L 1049.61455 249.286875 
" clip-path="url(#p3efa8aeb1b)" style="fill: none; stroke: #cccccc; stroke-linecap: round"/>
     </g>
     <g id="text_23">
      <!-- 0.0 -->
      <g style="fill: #262626" transform="translate(22.315 253.223672) scale(0.11 -0.11)">
       <use xlink:href="#ArialMT-30"/>
       <use xlink:href="#ArialMT-2e" x="55.615234"/>
       <use xlink:href="#ArialMT-30" x="83.398438"/>
      </g>
     </g>
    </g>
    <g id="ytick_2">
     <g id="line2d_23">
      <path d="M 47.105 201.809759 
L 1049.61455 201.809759 
" clip-path="url(#p3efa8aeb1b)" style="fill: none; stroke: #cccccc; stroke-linecap: round"/>
     </g>
     <g id="text_24">
      <!-- 0.2 -->
      <g style="fill: #262626" transform="translate(22.315 205.746556) scale(0.11 -0.11)">
       <use xlink:href="#ArialMT-30"/>
       <use xlink:href="#ArialMT-2e" x="55.615234"/>
       <use xlink:href="#ArialMT-32" x="83.398438"/>
      </g>
     </g>
    </g>
    <g id="ytick_3">
     <g id="line2d_24">
      <path d="M 47.105 154.332643 
L 1049.61455 154.332643 
" clip-path="url(#p3efa8aeb1b)" style="fill: none; stroke: #cccccc; stroke-linecap: round"/>
     </g>
     <g id="text_25">
      <!-- 0.4 -->
      <g style="fill: #262626" transform="translate(22.315 158.26944) scale(0.11 -0.11)">
       <use xlink:href="#ArialMT-30"/>
       <use xlink:href="#ArialMT-2e" x="55.615234"/>
       <use xlink:href="#ArialMT-34" x="83.398438"/>
      </g>
     </g>
    </g>
    <g id="ytick_4">
     <g id="line2d_25">
      <path d="M 47.105 106.855527 
L 1049.61455 106.855527 
" clip-path="url(#p3efa8aeb1b)" style="fill: none; stroke: #cccccc; stroke-linecap: round"/>
     </g>
     <g id="text_26">
      <!-- 0.6 -->
      <g style="fill: #262626" transform="translate(22.315 110.792324) scale(0.11 -0.11)">
       <use xlink:href="#ArialMT-30"/>
       <use xlink:href="#ArialMT-2e" x="55.615234"/>
       <use xlink:href="#ArialMT-36" x="83.398438"/>
      </g>
     </g>
    </g>
    <g id="ytick_5">
     <g id="line2d_26">
      <path d="M 47.105 59.378411 
L 1049.61455 59.378411 
" clip-path="url(#p3efa8aeb1b)" style="fill: none; stroke: #cccccc; stroke-linecap: round"/>
     </g>
     <g id="text_27">
      <!-- 0.8 -->
      <g style="fill: #262626" transform="translate(22.315 63.315208) scale(0.11 -0.11)">
       <use xlink:href="#ArialMT-30"/>
       <use xlink:href="#ArialMT-2e" x="55.615234"/>
       <use xlink:href="#ArialMT-38" x="83.398438"/>
      </g>
     </g>
    </g>
    <g id="text_28">
     <!-- Density -->
     <g style="fill: #262626" transform="translate(15.789375 155.544375) rotate(-90) scale(0.12 -0.12)">
      <defs>
       <path id="ArialMT-44" d="M 494 0 
L 494 4581 
L 2072 4581 
Q 2606 4581 2888 4516 
Q 3281 4425 3559 4188 
Q 3922 3881 4101 3404 
Q 4281 2928 4281 2316 
Q 4281 1794 4159 1391 
Q 4038 988 3847 723 
Q 3656 459 3429 307 
Q 3203 156 2883 78 
Q 2563 0 2147 0 
L 494 0 
z
M 1100 541 
L 2078 541 
Q 2531 541 2789 625 
Q 3047 709 3200 863 
Q 3416 1078 3536 1442 
Q 3656 1806 3656 2325 
Q 3656 3044 3420 3430 
Q 3184 3816 2847 3947 
Q 2603 4041 2063 4041 
L 1100 4041 
L 1100 541 
z
" transform="scale(0.015625)"/>
       <path id="ArialMT-73" d="M 197 991 
L 753 1078 
Q 800 744 1014 566 
Q 1228 388 1613 388 
Q 2000 388 2187 545 
Q 2375 703 2375 916 
Q 2375 1106 2209 1216 
Q 2094 1291 1634 1406 
Q 1016 1563 777 1677 
Q 538 1791 414 1992 
Q 291 2194 291 2438 
Q 291 2659 392 2848 
Q 494 3038 669 3163 
Q 800 3259 1026 3326 
Q 1253 3394 1513 3394 
Q 1903 3394 2198 3281 
Q 2494 3169 2634 2976 
Q 2775 2784 2828 2463 
L 2278 2388 
Q 2241 2644 2061 2787 
Q 1881 2931 1553 2931 
Q 1166 2931 1000 2803 
Q 834 2675 834 2503 
Q 834 2394 903 2306 
Q 972 2216 1119 2156 
Q 1203 2125 1616 2013 
Q 2213 1853 2448 1751 
Q 2684 1650 2818 1456 
Q 2953 1263 2953 975 
Q 2953 694 2789 445 
Q 2625 197 2315 61 
Q 2006 -75 1616 -75 
Q 969 -75 630 194 
Q 291 463 197 991 
z
" transform="scale(0.015625)"/>
       <path id="ArialMT-79" d="M 397 -1278 
L 334 -750 
Q 519 -800 656 -800 
Q 844 -800 956 -737 
Q 1069 -675 1141 -563 
Q 1194 -478 1313 -144 
Q 1328 -97 1363 -6 
L 103 3319 
L 709 3319 
L 1400 1397 
Q 1534 1031 1641 628 
Q 1738 1016 1872 1384 
L 2581 3319 
L 3144 3319 
L 1881 -56 
Q 1678 -603 1566 -809 
Q 1416 -1088 1222 -1217 
Q 1028 -1347 759 -1347 
Q 597 -1347 397 -1278 
z
" transform="scale(0.015625)"/>
      </defs>
      <use xlink:href="#ArialMT-44"/>
      <use xlink:href="#ArialMT-65" x="72.216797"/>
      <use xlink:href="#ArialMT-6e" x="127.832031"/>
      <use xlink:href="#ArialMT-73" x="183.447266"/>
      <use xlink:href="#ArialMT-69" x="233.447266"/>
      <use xlink:href="#ArialMT-74" x="255.664062"/>
      <use xlink:href="#ArialMT-79" x="283.447266"/>
     </g>
    </g>
   </g>
   <g id="PolyCollection_1">
    <defs>
     <path id="m89ac4504d7" d="M 162.077168 -41.804285 
L 162.077168 -41.734219 
L 163.812298 -41.734219 
L 165.547429 -41.734219 
L 167.282559 -41.734219 
L 169.017689 -41.734219 
L 170.752819 -41.734219 
L 172.487949 -41.734219 
L 174.223079 -41.734219 
L 175.95821 -41.734219 
L 177.69334 -41.734219 
L 179.42847 -41.734219 
L 181.1636 -41.734219 
L 182.89873 -41.734219 
L 184.63386 -41.734219 
L 186.368991 -41.734219 
L 188.104121 -41.734219 
L 189.839251 -41.734219 
L 191.574381 -41.734219 
L 193.309511 -41.734219 
L 195.044641 -41.734219 
L 196.779772 -41.734219 
L 198.514902 -41.734219 
L 200.250032 -41.734219 
L 201.985162 -41.734219 
L 203.720292 -41.734219 
L 205.455423 -41.734219 
L 207.190553 -41.734219 
L 208.925683 -41.734219 
L 210.660813 -41.734219 
L 212.395943 -41.734219 
L 214.131073 -41.734219 
L 215.866204 -41.734219 
L 217.601334 -41.734219 
L 219.336464 -41.734219 
L 221.071594 -41.734219 
L 222.806724 -41.734219 
L 224.541854 -41.734219 
L 226.276985 -41.734219 
L 228.012115 -41.734219 
L 229.747245 -41.734219 
L 231.482375 -41.734219 
L 233.217505 -41.734219 
L 234.952635 -41.734219 
L 236.687766 -41.734219 
L 238.422896 -41.734219 
L 240.158026 -41.734219 
L 241.893156 -41.734219 
L 243.628286 -41.734219 
L 245.363416 -41.734219 
L 247.098547 -41.734219 
L 248.833677 -41.734219 
L 250.568807 -41.734219 
L 252.303937 -41.734219 
L 254.039067 -41.734219 
L 255.774198 -41.734219 
L 257.509328 -41.734219 
L 259.244458 -41.734219 
L 260.979588 -41.734219 
L 262.714718 -41.734219 
L 264.449848 -41.734219 
L 266.184979 -41.734219 
L 267.920109 -41.734219 
L 269.655239 -41.734219 
L 271.390369 -41.734219 
L 273.125499 -41.734219 
L 274.860629 -41.734219 
L 276.59576 -41.734219 
L 278.33089 -41.734219 
L 280.06602 -41.734219 
L 281.80115 -41.734219 
L 283.53628 -41.734219 
L 285.27141 -41.734219 
L 287.006541 -41.734219 
L 288.741671 -41.734219 
L 290.476801 -41.734219 
L 292.211931 -41.734219 
L 293.947061 -41.734219 
L 295.682191 -41.734219 
L 297.417322 -41.734219 
L 299.152452 -41.734219 
L 300.887582 -41.734219 
L 302.622712 -41.734219 
L 304.357842 -41.734219 
L 306.092972 -41.734219 
L 307.828103 -41.734219 
L 309.563233 -41.734219 
L 311.298363 -41.734219 
L 313.033493 -41.734219 
L 314.768623 -41.734219 
L 316.503754 -41.734219 
L 318.238884 -41.734219 
L 319.974014 -41.734219 
L 321.709144 -41.734219 
L 323.444274 -41.734219 
L 325.179404 -41.734219 
L 326.914535 -41.734219 
L 328.649665 -41.734219 
L 330.384795 -41.734219 
L 332.119925 -41.734219 
L 333.855055 -41.734219 
L 335.590185 -41.734219 
L 337.325316 -41.734219 
L 339.060446 -41.734219 
L 340.795576 -41.734219 
L 342.530706 -41.734219 
L 344.265836 -41.734219 
L 346.000966 -41.734219 
L 347.736097 -41.734219 
L 349.471227 -41.734219 
L 351.206357 -41.734219 
L 352.941487 -41.734219 
L 354.676617 -41.734219 
L 356.411747 -41.734219 
L 358.146878 -41.734219 
L 359.882008 -41.734219 
L 361.617138 -41.734219 
L 363.352268 -41.734219 
L 365.087398 -41.734219 
L 366.822529 -41.734219 
L 368.557659 -41.734219 
L 370.292789 -41.734219 
L 372.027919 -41.734219 
L 373.763049 -41.734219 
L 375.498179 -41.734219 
L 377.23331 -41.734219 
L 378.96844 -41.734219 
L 380.70357 -41.734219 
L 382.4387 -41.734219 
L 384.17383 -41.734219 
L 385.90896 -41.734219 
L 387.644091 -41.734219 
L 389.379221 -41.734219 
L 391.114351 -41.734219 
L 392.849481 -41.734219 
L 394.584611 -41.734219 
L 396.319741 -41.734219 
L 398.054872 -41.734219 
L 399.790002 -41.734219 
L 401.525132 -41.734219 
L 403.260262 -41.734219 
L 404.995392 -41.734219 
L 406.730522 -41.734219 
L 408.465653 -41.734219 
L 410.200783 -41.734219 
L 411.935913 -41.734219 
L 413.671043 -41.734219 
L 415.406173 -41.734219 
L 417.141303 -41.734219 
L 418.876434 -41.734219 
L 420.611564 -41.734219 
L 422.346694 -41.734219 
L 424.081824 -41.734219 
L 425.816954 -41.734219 
L 427.552085 -41.734219 
L 429.287215 -41.734219 
L 431.022345 -41.734219 
L 432.757475 -41.734219 
L 434.492605 -41.734219 
L 436.227735 -41.734219 
L 437.962866 -41.734219 
L 439.697996 -41.734219 
L 441.433126 -41.734219 
L 443.168256 -41.734219 
L 444.903386 -41.734219 
L 446.638516 -41.734219 
L 448.373647 -41.734219 
L 450.108777 -41.734219 
L 451.843907 -41.734219 
L 453.579037 -41.734219 
L 455.314167 -41.734219 
L 457.049297 -41.734219 
L 458.784428 -41.734219 
L 460.519558 -41.734219 
L 462.254688 -41.734219 
L 463.989818 -41.734219 
L 465.724948 -41.734219 
L 467.460078 -41.734219 
L 469.195209 -41.734219 
L 470.930339 -41.734219 
L 472.665469 -41.734219 
L 474.400599 -41.734219 
L 476.135729 -41.734219 
L 477.87086 -41.734219 
L 479.60599 -41.734219 
L 481.34112 -41.734219 
L 483.07625 -41.734219 
L 484.81138 -41.734219 
L 486.54651 -41.734219 
L 488.281641 -41.734219 
L 490.016771 -41.734219 
L 491.751901 -41.734219 
L 493.487031 -41.734219 
L 495.222161 -41.734219 
L 496.957291 -41.734219 
L 498.692422 -41.734219 
L 500.427552 -41.734219 
L 502.162682 -41.734219 
L 503.897812 -41.734219 
L 505.632942 -41.734219 
L 507.368072 -41.734219 
L 507.368072 -41.742709 
L 507.368072 -41.742709 
L 505.632942 -41.749501 
L 503.897812 -41.76062 
L 502.162682 -41.777991 
L 500.427552 -41.803867 
L 498.692422 -41.840574 
L 496.957291 -41.890083 
L 495.222161 -41.953435 
L 493.487031 -42.030112 
L 491.751901 -42.117516 
L 490.016771 -42.210732 
L 488.281641 -42.302747 
L 486.54651 -42.385198 
L 484.81138 -42.449572 
L 483.07625 -42.488637 
L 481.34112 -42.497777 
L 479.60599 -42.475887 
L 477.87086 -42.425597 
L 476.135729 -42.352748 
L 474.400599 -42.265277 
L 472.665469 -42.171804 
L 470.930339 -42.080255 
L 469.195209 -41.996833 
L 467.460078 -41.925491 
L 465.724948 -41.867917 
L 463.989818 -41.823907 
L 462.254688 -41.79196 
L 460.519558 -41.769895 
L 458.784428 -41.755373 
L 457.049297 -41.746257 
L 455.314167 -41.740793 
L 453.579037 -41.737665 
L 451.843907 -41.735952 
L 450.108777 -41.735056 
L 448.373647 -41.734606 
L 446.638516 -41.734391 
L 444.903386 -41.734292 
L 443.168256 -41.734249 
L 441.433126 -41.734231 
L 439.697996 -41.734223 
L 437.962866 -41.73422 
L 436.227735 -41.734219 
L 434.492605 -41.734219 
L 432.757475 -41.734219 
L 431.022345 -41.734219 
L 429.287215 -41.734219 
L 427.552085 -41.734219 
L 425.816954 -41.734219 
L 424.081824 -41.734219 
L 422.346694 -41.734219 
L 420.611564 -41.734219 
L 418.876434 -41.734219 
L 417.141303 -41.734219 
L 415.406173 -41.734219 
L 413.671043 -41.734219 
L 411.935913 -41.73422 
L 410.200783 -41.734222 
L 408.465653 -41.734227 
L 406.730522 -41.734241 
L 404.995392 -41.734274 
L 403.260262 -41.734351 
L 401.525132 -41.734524 
L 399.790002 -41.734895 
L 398.054872 -41.735658 
L 396.319741 -41.737164 
L 394.584611 -41.740011 
L 392.849481 -41.745173 
L 391.114351 -41.754139 
L 389.379221 -41.769062 
L 387.644091 -41.792857 
L 385.90896 -41.829196 
L 384.17383 -41.882333 
L 382.4387 -41.9567 
L 380.70357 -42.05626 
L 378.96844 -42.183668 
L 377.23331 -42.339357 
L 375.498179 -42.520745 
L 373.763049 -42.721775 
L 372.027919 -42.932962 
L 370.292789 -43.142041 
L 368.557659 -43.335162 
L 366.822529 -43.498447 
L 365.087398 -43.619649 
L 363.352268 -43.689631 
L 361.617138 -43.703435 
L 359.882008 -43.660817 
L 358.146878 -43.566247 
L 356.411747 -43.428444 
L 354.676617 -43.259569 
L 352.941487 -43.074228 
L 351.206357 -42.888393 
L 349.471227 -42.718352 
L 347.736097 -42.579728 
L 346.000966 -42.486584 
L 344.265836 -42.450558 
L 342.530706 -42.479963 
L 340.795576 -42.578827 
L 339.060446 -42.745903 
L 337.325316 -42.97386 
L 335.590185 -43.248942 
L 333.855055 -43.551435 
L 332.119925 -43.857213 
L 330.384795 -44.14034 
L 328.649665 -44.37647 
L 326.914535 -44.546426 
L 325.179404 -44.639244 
L 323.444274 -44.653989 
L 321.709144 -44.599917 
L 319.974014 -44.49496 
L 318.238884 -44.362865 
L 316.503754 -44.229651 
L 314.768623 -44.120099 
L 313.033493 -44.054933 
L 311.298363 -44.049117 
L 309.563233 -44.111384 
L 307.828103 -44.244879 
L 306.092972 -44.448587 
L 304.357842 -44.719083 
L 302.622712 -45.052138 
L 300.887582 -45.44369 
L 299.152452 -45.889838 
L 297.417322 -46.385707 
L 295.682191 -46.923358 
L 293.947061 -47.489296 
L 292.211931 -48.062494 
L 290.476801 -48.613925 
L 288.741671 -49.108406 
L 287.006541 -49.508948 
L 285.27141 -49.783009 
L 283.53628 -49.909267 
L 281.80115 -49.883149 
L 280.06602 -49.719501 
L 278.33089 -49.45152 
L 276.59576 -49.126122 
L 274.860629 -48.796904 
L 273.125499 -48.516471 
L 271.390369 -48.329837 
L 269.655239 -48.270077 
L 267.920109 -48.356551 
L 266.184979 -48.595322 
L 264.449848 -48.981019 
L 262.714718 -49.499521 
L 260.979588 -50.131125 
L 259.244458 -50.85419 
L 257.509328 -51.649217 
L 255.774198 -52.502996 
L 254.039067 -53.411997 
L 252.303937 -54.383892 
L 250.568807 -55.43635 
L 248.833677 -56.592946 
L 247.098547 -57.877114 
L 245.363416 -59.305919 
L 243.628286 -60.88584 
L 241.893156 -62.612351 
L 240.158026 -64.474143 
L 238.422896 -66.461554 
L 236.687766 -68.577786 
L 234.952635 -70.850845 
L 233.217505 -73.344224 
L 231.482375 -76.164638 
L 229.747245 -79.46567 
L 228.012115 -83.446458 
L 226.276985 -88.344595 
L 224.541854 -94.422288 
L 222.806724 -101.944756 
L 221.071594 -111.150209 
L 219.336464 -122.211756 
L 217.601334 -135.193318 
L 215.866204 -150.003874 
L 214.131073 -166.356673 
L 212.395943 -183.741836 
L 210.660813 -201.421309 
L 208.925683 -218.453936 
L 207.190553 -233.755082 
L 205.455423 -246.189945 
L 203.720292 -254.692924 
L 201.985162 -258.398504 
L 200.250032 -256.763613 
L 198.514902 -249.659192 
L 196.779772 -237.411328 
L 195.044641 -220.779869 
L 193.309511 -200.874149 
L 191.574381 -179.018386 
L 189.839251 -156.590184 
L 188.104121 -134.861126 
L 186.368991 -114.867014 
L 184.63386 -97.327302 
L 182.89873 -82.621258 
L 181.1636 -70.815861 
L 179.42847 -61.73093 
L 177.69334 -55.022446 
L 175.95821 -50.265797 
L 174.223079 -47.025384 
L 172.487949 -44.903475 
L 170.752819 -43.567328 
L 169.017689 -42.757982 
L 167.282559 -42.286242 
L 165.547429 -42.021587 
L 163.812298 -41.878639 
L 162.077168 -41.804285 
z
" style="stroke: #55a868"/>
    </defs>
    <g clip-path="url(#p3efa8aeb1b)">
     <use xlink:href="#m89ac4504d7" x="0" y="291.021094" style="fill: #55a868; fill-opacity: 0.25; stroke: #55a868"/>
    </g>
   </g>
   <g id="PolyCollection_2">
    <defs>
     <path id="m6d56e315c5" d="M 132.293899 -41.783707 
L 132.293899 -41.734219 
L 135.106668 -41.734219 
L 137.919438 -41.734219 
L 140.732207 -41.734219 
L 143.544976 -41.734219 
L 146.357745 -41.734219 
L 149.170514 -41.734219 
L 151.983283 -41.734219 
L 154.796053 -41.734219 
L 157.608822 -41.734219 
L 160.421591 -41.734219 
L 163.23436 -41.734219 
L 166.047129 -41.734219 
L 168.859899 -41.734219 
L 171.672668 -41.734219 
L 174.485437 -41.734219 
L 177.298206 -41.734219 
L 180.110975 -41.734219 
L 182.923744 -41.734219 
L 185.736514 -41.734219 
L 188.549283 -41.734219 
L 191.362052 -41.734219 
L 194.174821 -41.734219 
L 196.98759 -41.734219 
L 199.800359 -41.734219 
L 202.613129 -41.734219 
L 205.425898 -41.734219 
L 208.238667 -41.734219 
L 211.051436 -41.734219 
L 213.864205 -41.734219 
L 216.676975 -41.734219 
L 219.489744 -41.734219 
L 222.302513 -41.734219 
L 225.115282 -41.734219 
L 227.928051 -41.734219 
L 230.74082 -41.734219 
L 233.55359 -41.734219 
L 236.366359 -41.734219 
L 239.179128 -41.734219 
L 241.991897 -41.734219 
L 244.804666 -41.734219 
L 247.617436 -41.734219 
L 250.430205 -41.734219 
L 253.242974 -41.734219 
L 256.055743 -41.734219 
L 258.868512 -41.734219 
L 261.681281 -41.734219 
L 264.494051 -41.734219 
L 267.30682 -41.734219 
L 270.119589 -41.734219 
L 272.932358 -41.734219 
L 275.745127 -41.734219 
L 278.557896 -41.734219 
L 281.370666 -41.734219 
L 284.183435 -41.734219 
L 286.996204 -41.734219 
L 289.808973 -41.734219 
L 292.621742 -41.734219 
L 295.434512 -41.734219 
L 298.247281 -41.734219 
L 301.06005 -41.734219 
L 303.872819 -41.734219 
L 306.685588 -41.734219 
L 309.498357 -41.734219 
L 312.311127 -41.734219 
L 315.123896 -41.734219 
L 317.936665 -41.734219 
L 320.749434 -41.734219 
L 323.562203 -41.734219 
L 326.374973 -41.734219 
L 329.187742 -41.734219 
L 332.000511 -41.734219 
L 334.81328 -41.734219 
L 337.626049 -41.734219 
L 340.438818 -41.734219 
L 343.251588 -41.734219 
L 346.064357 -41.734219 
L 348.877126 -41.734219 
L 351.689895 -41.734219 
L 354.502664 -41.734219 
L 357.315433 -41.734219 
L 360.128203 -41.734219 
L 362.940972 -41.734219 
L 365.753741 -41.734219 
L 368.56651 -41.734219 
L 371.379279 -41.734219 
L 374.192049 -41.734219 
L 377.004818 -41.734219 
L 379.817587 -41.734219 
L 382.630356 -41.734219 
L 385.443125 -41.734219 
L 388.255894 -41.734219 
L 391.068664 -41.734219 
L 393.881433 -41.734219 
L 396.694202 -41.734219 
L 399.506971 -41.734219 
L 402.31974 -41.734219 
L 405.13251 -41.734219 
L 407.945279 -41.734219 
L 410.758048 -41.734219 
L 413.570817 -41.734219 
L 416.383586 -41.734219 
L 419.196355 -41.734219 
L 422.009125 -41.734219 
L 424.821894 -41.734219 
L 427.634663 -41.734219 
L 430.447432 -41.734219 
L 433.260201 -41.734219 
L 436.07297 -41.734219 
L 438.88574 -41.734219 
L 441.698509 -41.734219 
L 444.511278 -41.734219 
L 447.324047 -41.734219 
L 450.136816 -41.734219 
L 452.949586 -41.734219 
L 455.762355 -41.734219 
L 458.575124 -41.734219 
L 461.387893 -41.734219 
L 464.200662 -41.734219 
L 467.013431 -41.734219 
L 469.826201 -41.734219 
L 472.63897 -41.734219 
L 475.451739 -41.734219 
L 478.264508 -41.734219 
L 481.077277 -41.734219 
L 483.890047 -41.734219 
L 486.702816 -41.734219 
L 489.515585 -41.734219 
L 492.328354 -41.734219 
L 495.141123 -41.734219 
L 497.953892 -41.734219 
L 500.766662 -41.734219 
L 503.579431 -41.734219 
L 506.3922 -41.734219 
L 509.204969 -41.734219 
L 512.017738 -41.734219 
L 514.830508 -41.734219 
L 517.643277 -41.734219 
L 520.456046 -41.734219 
L 523.268815 -41.734219 
L 526.081584 -41.734219 
L 528.894353 -41.734219 
L 531.707123 -41.734219 
L 534.519892 -41.734219 
L 537.332661 -41.734219 
L 540.14543 -41.734219 
L 542.958199 -41.734219 
L 545.770968 -41.734219 
L 548.583738 -41.734219 
L 551.396507 -41.734219 
L 554.209276 -41.734219 
L 557.022045 -41.734219 
L 559.834814 -41.734219 
L 562.647584 -41.734219 
L 565.460353 -41.734219 
L 568.273122 -41.734219 
L 571.085891 -41.734219 
L 573.89866 -41.734219 
L 576.711429 -41.734219 
L 579.524199 -41.734219 
L 582.336968 -41.734219 
L 585.149737 -41.734219 
L 587.962506 -41.734219 
L 590.775275 -41.734219 
L 593.588045 -41.734219 
L 596.400814 -41.734219 
L 599.213583 -41.734219 
L 602.026352 -41.734219 
L 604.839121 -41.734219 
L 607.65189 -41.734219 
L 610.46466 -41.734219 
L 613.277429 -41.734219 
L 616.090198 -41.734219 
L 618.902967 -41.734219 
L 621.715736 -41.734219 
L 624.528505 -41.734219 
L 627.341275 -41.734219 
L 630.154044 -41.734219 
L 632.966813 -41.734219 
L 635.779582 -41.734219 
L 638.592351 -41.734219 
L 641.405121 -41.734219 
L 644.21789 -41.734219 
L 647.030659 -41.734219 
L 649.843428 -41.734219 
L 652.656197 -41.734219 
L 655.468966 -41.734219 
L 658.281736 -41.734219 
L 661.094505 -41.734219 
L 663.907274 -41.734219 
L 666.720043 -41.734219 
L 669.532812 -41.734219 
L 672.345582 -41.734219 
L 675.158351 -41.734219 
L 677.97112 -41.734219 
L 680.783889 -41.734219 
L 683.596658 -41.734219 
L 686.409427 -41.734219 
L 689.222197 -41.734219 
L 692.034966 -41.734219 
L 692.034966 -41.738529 
L 692.034966 -41.738529 
L 689.222197 -41.740713 
L 686.409427 -41.743831 
L 683.596658 -41.748198 
L 680.783889 -41.754194 
L 677.97112 -41.762266 
L 675.158351 -41.772919 
L 672.345582 -41.786695 
L 669.532812 -41.804154 
L 666.720043 -41.825828 
L 663.907274 -41.85218 
L 661.094505 -41.883546 
L 658.281736 -41.920083 
L 655.468966 -41.961716 
L 652.656197 -42.008092 
L 649.843428 -42.058561 
L 647.030659 -42.112165 
L 644.21789 -42.167672 
L 641.405121 -42.223619 
L 638.592351 -42.278393 
L 635.779582 -42.330328 
L 632.966813 -42.377806 
L 630.154044 -42.419371 
L 627.341275 -42.453815 
L 624.528505 -42.480263 
L 621.715736 -42.498214 
L 618.902967 -42.507563 
L 616.090198 -42.508597 
L 613.277429 -42.501961 
L 610.46466 -42.488612 
L 607.65189 -42.46977 
L 604.839121 -42.446855 
L 602.026352 -42.421439 
L 599.213583 -42.395191 
L 596.400814 -42.369826 
L 593.588045 -42.347055 
L 590.775275 -42.328526 
L 587.962506 -42.315754 
L 585.149737 -42.310045 
L 582.336968 -42.312421 
L 579.524199 -42.323536 
L 576.711429 -42.343612 
L 573.89866 -42.372393 
L 571.085891 -42.409128 
L 568.273122 -42.452591 
L 565.460353 -42.501136 
L 562.647584 -42.55279 
L 559.834814 -42.605367 
L 557.022045 -42.656608 
L 554.209276 -42.704318 
L 551.396507 -42.746507 
L 548.583738 -42.781513 
L 545.770968 -42.808107 
L 542.958199 -42.825574 
L 540.14543 -42.833771 
L 537.332661 -42.833159 
L 534.519892 -42.824804 
L 531.707123 -42.810361 
L 528.894353 -42.792017 
L 526.081584 -42.772408 
L 523.268815 -42.754498 
L 520.456046 -42.741432 
L 517.643277 -42.736351 
L 514.830508 -42.742194 
L 512.017738 -42.761492 
L 509.204969 -42.796176 
L 506.3922 -42.847412 
L 503.579431 -42.915483 
L 500.766662 -42.999747 
L 497.953892 -43.09865 
L 495.141123 -43.209835 
L 492.328354 -43.330311 
L 489.515585 -43.456687 
L 486.702816 -43.585447 
L 483.890047 -43.713237 
L 481.077277 -43.83715 
L 478.264508 -43.954963 
L 475.451739 -44.065319 
L 472.63897 -44.167827 
L 469.826201 -44.263059 
L 467.013431 -44.352458 
L 464.200662 -44.438144 
L 461.387893 -44.522649 
L 458.575124 -44.608594 
L 455.762355 -44.698357 
L 452.949586 -44.793753 
L 450.136816 -44.895777 
L 447.324047 -45.004435 
L 444.511278 -45.118691 
L 441.698509 -45.236533 
L 438.88574 -45.355164 
L 436.07297 -45.471291 
L 433.260201 -45.581482 
L 430.447432 -45.682547 
L 427.634663 -45.771903 
L 424.821894 -45.847877 
L 422.009125 -45.909921 
L 419.196355 -45.958698 
L 416.383586 -45.99606 
L 413.570817 -46.024892 
L 410.758048 -46.048871 
L 407.945279 -46.072145 
L 405.13251 -46.09898 
L 402.31974 -46.13341 
L 399.506971 -46.178913 
L 396.694202 -46.238166 
L 393.881433 -46.312873 
L 391.068664 -46.403699 
L 388.255894 -46.510311 
L 385.443125 -46.631509 
L 382.630356 -46.765447 
L 379.817587 -46.909908 
L 377.004818 -47.06261 
L 374.192049 -47.221503 
L 371.379279 -47.385033 
L 368.56651 -47.552336 
L 365.753741 -47.723342 
L 362.940972 -47.898777 
L 360.128203 -48.080066 
L 357.315433 -48.269149 
L 354.502664 -48.468228 
L 351.689895 -48.679491 
L 348.877126 -48.904833 
L 346.064357 -49.145622 
L 343.251588 -49.40255 
L 340.438818 -49.675572 
L 337.626049 -49.96398 
L 334.81328 -50.266592 
L 332.000511 -50.582072 
L 329.187742 -50.909338 
L 326.374973 -51.24805 
L 323.562203 -51.599121 
L 320.749434 -51.965214 
L 317.936665 -52.351156 
L 315.123896 -52.764245 
L 312.311127 -53.214367 
L 309.498357 -53.713942 
L 306.685588 -54.277641 
L 303.872819 -54.92192 
L 301.06005 -55.664396 
L 298.247281 -56.523119 
L 295.434512 -57.515818 
L 292.621742 -58.65919 
L 289.808973 -59.968301 
L 286.996204 -61.456143 
L 284.183435 -63.133366 
L 281.370666 -65.00818 
L 278.557896 -67.086367 
L 275.745127 -69.371345 
L 272.932358 -71.864197 
L 270.119589 -74.563562 
L 267.30682 -77.465322 
L 264.494051 -80.562003 
L 261.681281 -83.84188 
L 258.868512 -87.287775 
L 256.055743 -90.875614 
L 253.242974 -94.572849 
L 250.430205 -98.336896 
L 247.617436 -102.113802 
L 244.804666 -105.837398 
L 241.991897 -109.429193 
L 239.179128 -112.799272 
L 236.366359 -115.848414 
L 233.55359 -118.471541 
L 230.74082 -120.562468 
L 227.928051 -122.019784 
L 225.115282 -122.753475 
L 222.302513 -122.691763 
L 219.489744 -121.787506 
L 216.676975 -120.023458 
L 213.864205 -117.415747 
L 211.051436 -114.015045 
L 208.238667 -109.905166 
L 205.425898 -105.199074 
L 202.613129 -100.032595 
L 199.800359 -94.5564 
L 196.98759 -88.926998 
L 194.174821 -83.2976 
L 191.362052 -77.809693 
L 188.549283 -72.586034 
L 185.736514 -67.725595 
L 182.923744 -63.300727 
L 180.110975 -59.356542 
L 177.298206 -55.91231 
L 174.485437 -52.96446 
L 171.672668 -50.490679 
L 168.859899 -48.454587 
L 166.047129 -46.810483 
L 163.23436 -45.507748 
L 160.421591 -44.494624 
L 157.608822 -43.721193 
L 154.796053 -43.141501 
L 151.983283 -42.714877 
L 149.170514 -42.406546 
L 146.357745 -42.187694 
L 143.544976 -42.035116 
L 140.732207 -41.930626 
L 137.919438 -41.860332 
L 135.106668 -41.813874 
L 132.293899 -41.783707 
z
" style="stroke: #dd8452"/>
    </defs>
    <g clip-path="url(#p3efa8aeb1b)">
     <use xlink:href="#m6d56e315c5" x="0" y="291.021094" style="fill: #dd8452; fill-opacity: 0.25; stroke: #dd8452"/>
    </g>
   </g>
   <g id="PolyCollection_3">
    <defs>
     <path id="mf2c047d915" d="M 49.502335 -41.875025 
L 49.502335 -41.734219 
L 55.285864 -41.734219 
L 61.069393 -41.734219 
L 66.852922 -41.734219 
L 72.636451 -41.734219 
L 78.41998 -41.734219 
L 84.203509 -41.734219 
L 89.987038 -41.734219 
L 95.770567 -41.734219 
L 101.554096 -41.734219 
L 107.337625 -41.734219 
L 113.121154 -41.734219 
L 118.904683 -41.734219 
L 124.688212 -41.734219 
L 130.471741 -41.734219 
L 136.25527 -41.734219 
L 142.038799 -41.734219 
L 147.822328 -41.734219 
L 153.605857 -41.734219 
L 159.389386 -41.734219 
L 165.172915 -41.734219 
L 170.956444 -41.734219 
L 176.739973 -41.734219 
L 182.523502 -41.734219 
L 188.307031 -41.734219 
L 194.09056 -41.734219 
L 199.874089 -41.734219 
L 205.657618 -41.734219 
L 211.441147 -41.734219 
L 217.224676 -41.734219 
L 223.008205 -41.734219 
L 228.791734 -41.734219 
L 234.575263 -41.734219 
L 240.358792 -41.734219 
L 246.142321 -41.734219 
L 251.92585 -41.734219 
L 257.709379 -41.734219 
L 263.492908 -41.734219 
L 269.276437 -41.734219 
L 275.059966 -41.734219 
L 280.843495 -41.734219 
L 286.627024 -41.734219 
L 292.410553 -41.734219 
L 298.194082 -41.734219 
L 303.977611 -41.734219 
L 309.76114 -41.734219 
L 315.544669 -41.734219 
L 321.328198 -41.734219 
L 327.111727 -41.734219 
L 332.895256 -41.734219 
L 338.678785 -41.734219 
L 344.462314 -41.734219 
L 350.245843 -41.734219 
L 356.029372 -41.734219 
L 361.812901 -41.734219 
L 367.59643 -41.734219 
L 373.379959 -41.734219 
L 379.163488 -41.734219 
L 384.947017 -41.734219 
L 390.730546 -41.734219 
L 396.514075 -41.734219 
L 402.297604 -41.734219 
L 408.081133 -41.734219 
L 413.864662 -41.734219 
L 419.648191 -41.734219 
L 425.43172 -41.734219 
L 431.215249 -41.734219 
L 436.998778 -41.734219 
L 442.782307 -41.734219 
L 448.565836 -41.734219 
L 454.349365 -41.734219 
L 460.132894 -41.734219 
L 465.916423 -41.734219 
L 471.699952 -41.734219 
L 477.483481 -41.734219 
L 483.26701 -41.734219 
L 489.050539 -41.734219 
L 494.834068 -41.734219 
L 500.617597 -41.734219 
L 506.401126 -41.734219 
L 512.184655 -41.734219 
L 517.968184 -41.734219 
L 523.751713 -41.734219 
L 529.535242 -41.734219 
L 535.318771 -41.734219 
L 541.1023 -41.734219 
L 546.885829 -41.734219 
L 552.669358 -41.734219 
L 558.452887 -41.734219 
L 564.236416 -41.734219 
L 570.019945 -41.734219 
L 575.803474 -41.734219 
L 581.587003 -41.734219 
L 587.370532 -41.734219 
L 593.154061 -41.734219 
L 598.93759 -41.734219 
L 604.721119 -41.734219 
L 610.504648 -41.734219 
L 616.288177 -41.734219 
L 622.071706 -41.734219 
L 627.855235 -41.734219 
L 633.638764 -41.734219 
L 639.422293 -41.734219 
L 645.205822 -41.734219 
L 650.989351 -41.734219 
L 656.77288 -41.734219 
L 662.556409 -41.734219 
L 668.339938 -41.734219 
L 674.123467 -41.734219 
L 679.906996 -41.734219 
L 685.690525 -41.734219 
L 691.474054 -41.734219 
L 697.257583 -41.734219 
L 703.041112 -41.734219 
L 708.824641 -41.734219 
L 714.60817 -41.734219 
L 720.391699 -41.734219 
L 726.175228 -41.734219 
L 731.958757 -41.734219 
L 737.742286 -41.734219 
L 743.525815 -41.734219 
L 749.309344 -41.734219 
L 755.092873 -41.734219 
L 760.876402 -41.734219 
L 766.659931 -41.734219 
L 772.44346 -41.734219 
L 778.226989 -41.734219 
L 784.010518 -41.734219 
L 789.794047 -41.734219 
L 795.577576 -41.734219 
L 801.361105 -41.734219 
L 807.144634 -41.734219 
L 812.928163 -41.734219 
L 818.711692 -41.734219 
L 824.495221 -41.734219 
L 830.27875 -41.734219 
L 836.062279 -41.734219 
L 841.845808 -41.734219 
L 847.629337 -41.734219 
L 853.412866 -41.734219 
L 859.196395 -41.734219 
L 864.979924 -41.734219 
L 870.763453 -41.734219 
L 876.546982 -41.734219 
L 882.330511 -41.734219 
L 888.11404 -41.734219 
L 893.897569 -41.734219 
L 899.681098 -41.734219 
L 905.464627 -41.734219 
L 911.248156 -41.734219 
L 917.031685 -41.734219 
L 922.815214 -41.734219 
L 928.598743 -41.734219 
L 934.382272 -41.734219 
L 940.1658 -41.734219 
L 945.949329 -41.734219 
L 951.732858 -41.734219 
L 957.516387 -41.734219 
L 963.299916 -41.734219 
L 969.083445 -41.734219 
L 974.866974 -41.734219 
L 980.650503 -41.734219 
L 986.434032 -41.734219 
L 992.217561 -41.734219 
L 998.00109 -41.734219 
L 1003.784619 -41.734219 
L 1009.568148 -41.734219 
L 1015.351677 -41.734219 
L 1021.135206 -41.734219 
L 1026.918735 -41.734219 
L 1032.702264 -41.734219 
L 1038.485793 -41.734219 
L 1044.269322 -41.734219 
L 1050.052851 -41.734219 
L 1055.83638 -41.734219 
L 1061.619909 -41.734219 
L 1067.403438 -41.734219 
L 1073.186967 -41.734219 
L 1078.970496 -41.734219 
L 1084.754025 -41.734219 
L 1090.537554 -41.734219 
L 1096.321083 -41.734219 
L 1102.104612 -41.734219 
L 1107.888141 -41.734219 
L 1113.67167 -41.734219 
L 1119.455199 -41.734219 
L 1125.238728 -41.734219 
L 1131.022257 -41.734219 
L 1136.805786 -41.734219 
L 1142.589315 -41.734219 
L 1148.372844 -41.734219 
L 1154.156373 -41.734219 
L 1159.939902 -41.734219 
L 1165.723431 -41.734219 
L 1171.50696 -41.734219 
L 1177.290489 -41.734219 
L 1183.074018 -41.734219 
L 1188.857547 -41.734219 
L 1194.641076 -41.734219 
L 1200.424605 -41.734219 
L 1200.424605 -41.735941 
L 1200.424605 -41.735941 
L 1194.641076 -41.736715 
L 1188.857547 -41.737785 
L 1183.074018 -41.739245 
L 1177.290489 -41.741206 
L 1171.50696 -41.743801 
L 1165.723431 -41.747183 
L 1159.939902 -41.751525 
L 1154.156373 -41.757017 
L 1148.372844 -41.76386 
L 1142.589315 -41.772258 
L 1136.805786 -41.782412 
L 1131.022257 -41.794506 
L 1125.238728 -41.808695 
L 1119.455199 -41.825094 
L 1113.67167 -41.843764 
L 1107.888141 -41.864706 
L 1102.104612 -41.887847 
L 1096.321083 -41.913047 
L 1090.537554 -41.940094 
L 1084.754025 -41.968719 
L 1078.970496 -41.998609 
L 1073.186967 -42.029431 
L 1067.403438 -42.060856 
L 1061.619909 -42.092587 
L 1055.83638 -42.124386 
L 1050.052851 -42.156099 
L 1044.269322 -42.187668 
L 1038.485793 -42.219136 
L 1032.702264 -42.250635 
L 1026.918735 -42.282365 
L 1021.135206 -42.314552 
L 1015.351677 -42.347395 
L 1009.568148 -42.381016 
L 1003.784619 -42.415393 
L 998.00109 -42.450314 
L 992.217561 -42.485337 
L 986.434032 -42.519773 
L 980.650503 -42.552697 
L 974.866974 -42.582988 
L 969.083445 -42.60939 
L 963.299916 -42.630609 
L 957.516387 -42.645411 
L 951.732858 -42.652738 
L 945.949329 -42.651814 
L 940.1658 -42.642233 
L 934.382272 -42.624021 
L 928.598743 -42.597672 
L 922.815214 -42.56414 
L 917.031685 -42.524799 
L 911.248156 -42.481377 
L 905.464627 -42.435861 
L 899.681098 -42.390395 
L 893.897569 -42.347177 
L 888.11404 -42.308354 
L 882.330511 -42.275943 
L 876.546982 -42.251764 
L 870.763453 -42.237393 
L 864.979924 -42.234138 
L 859.196395 -42.243028 
L 853.412866 -42.2648 
L 847.629337 -42.299904 
L 841.845808 -42.348489 
L 836.062279 -42.410393 
L 830.27875 -42.48511 
L 824.495221 -42.571767 
L 818.711692 -42.669082 
L 812.928163 -42.775338 
L 807.144634 -42.888367 
L 801.361105 -43.005554 
L 795.577576 -43.123878 
L 789.794047 -43.239984 
L 784.010518 -43.350294 
L 778.226989 -43.451155 
L 772.44346 -43.539013 
L 766.659931 -43.610607 
L 760.876402 -43.66316 
L 755.092873 -43.694568 
L 749.309344 -43.703542 
L 743.525815 -43.689721 
L 737.742286 -43.65372 
L 731.958757 -43.597118 
L 726.175228 -43.522385 
L 720.391699 -43.432745 
L 714.60817 -43.332002 
L 708.824641 -43.224321 
L 703.041112 -43.113999 
L 697.257583 -43.005239 
L 691.474054 -42.901935 
L 685.690525 -42.807494 
L 679.906996 -42.724705 
L 674.123467 -42.655651 
L 668.339938 -42.601676 
L 662.556409 -42.563403 
L 656.77288 -42.540794 
L 650.989351 -42.533247 
L 645.205822 -42.539719 
L 639.422293 -42.558861 
L 633.638764 -42.58916 
L 627.855235 -42.629069 
L 622.071706 -42.677125 
L 616.288177 -42.732042 
L 610.504648 -42.792773 
L 604.721119 -42.858541 
L 598.93759 -42.928844 
L 593.154061 -43.003417 
L 587.370532 -43.082189 
L 581.587003 -43.1652 
L 575.803474 -43.252529 
L 570.019945 -43.344207 
L 564.236416 -43.440154 
L 558.452887 -43.540116 
L 552.669358 -43.643648 
L 546.885829 -43.750113 
L 541.1023 -43.858715 
L 535.318771 -43.968564 
L 529.535242 -44.078757 
L 523.751713 -44.188485 
L 517.968184 -44.29713 
L 512.184655 -44.404367 
L 506.401126 -44.510241 
L 500.617597 -44.61522 
L 494.834068 -44.720217 
L 489.050539 -44.826572 
L 483.26701 -44.936005 
L 477.483481 -45.050543 
L 471.699952 -45.172416 
L 465.916423 -45.303956 
L 460.132894 -45.447484 
L 454.349365 -45.605207 
L 448.565836 -45.779131 
L 442.782307 -45.970984 
L 436.998778 -46.182164 
L 431.215249 -46.413698 
L 425.43172 -46.666223 
L 419.648191 -46.939978 
L 413.864662 -47.234819 
L 408.081133 -47.550251 
L 402.297604 -47.885501 
L 396.514075 -48.23962 
L 390.730546 -48.61164 
L 384.947017 -49.000796 
L 379.163488 -49.406797 
L 373.379959 -49.830161 
L 367.59643 -50.272589 
L 361.812901 -50.737348 
L 356.029372 -51.229642 
L 350.245843 -51.756897 
L 344.462314 -52.328939 
L 338.678785 -52.957979 
L 332.895256 -53.65838 
L 327.111727 -54.446153 
L 321.328198 -55.338156 
L 315.544669 -56.351015 
L 309.76114 -57.499765 
L 303.977611 -58.796295 
L 298.194082 -60.247666 
L 292.410553 -61.854432 
L 286.627024 -63.609084 
L 280.843495 -65.494789 
L 275.059966 -67.484565 
L 269.276437 -69.541044 
L 263.492908 -71.616928 
L 257.709379 -73.656216 
L 251.92585 -75.596204 
L 246.142321 -77.370217 
L 240.358792 -78.910916 
L 234.575263 -80.154006 
L 228.791734 -81.042063 
L 223.008205 -81.528198 
L 217.224676 -81.579245 
L 211.441147 -81.178194 
L 205.657618 -80.325635 
L 199.874089 -79.040062 
L 194.09056 -77.356996 
L 188.307031 -75.326974 
L 182.523502 -73.012585 
L 176.739973 -70.484789 
L 170.956444 -67.81884 
L 165.172915 -65.090147 
L 159.389386 -62.370398 
L 153.605857 -59.724229 
L 147.822328 -57.206649 
L 142.038799 -54.861352 
L 136.25527 -52.719932 
L 130.471741 -50.801973 
L 124.688212 -49.115865 
L 118.904683 -47.660199 
L 113.121154 -46.425533 
L 107.337625 -45.396334 
L 101.554096 -44.552929 
L 95.770567 -43.873309 
L 89.987038 -43.334696 
L 84.203509 -42.914794 
L 78.41998 -42.592728 
L 72.636451 -42.349664 
L 66.852922 -42.169141 
L 61.069393 -42.037188 
L 55.285864 -41.942255 
L 49.502335 -41.875025 
z
" style="stroke: #4c72b0"/>
    </defs>
    <g clip-path="url(#p3efa8aeb1b)">
     <use xlink:href="#mf2c047d915" x="0" y="291.021094" style="fill: #4c72b0; fill-opacity: 0.25; stroke: #4c72b0"/>
    </g>
   </g>
   <g id="patch_3">
    <path d="M 47.105 249.286875 
L 47.105 21.789375 
" style="fill: none; stroke: #cccccc; stroke-width: 1.25; stroke-linejoin: miter; stroke-linecap: square"/>
   </g>
   <g id="patch_4">
    <path d="M 47.105 249.286875 
L 1049.61455 249.286875 
" style="fill: none; stroke: #cccccc; stroke-width: 1.25; stroke-linejoin: miter; stroke-linecap: square"/>
   </g>
   <g id="text_29">
    <!-- KDE Plot of Execution Times -->
    <g style="fill: #262626" transform="translate(471.661963 15.789375) scale(0.12 -0.12)">
     <defs>
      <path id="ArialMT-4b" d="M 469 0 
L 469 4581 
L 1075 4581 
L 1075 2309 
L 3350 4581 
L 4172 4581 
L 2250 2725 
L 4256 0 
L 3456 0 
L 1825 2319 
L 1075 1588 
L 1075 0 
L 469 0 
z
" transform="scale(0.015625)"/>
      <path id="ArialMT-50" d="M 494 0 
L 494 4581 
L 2222 4581 
Q 2678 4581 2919 4538 
Q 3256 4481 3484 4323 
Q 3713 4166 3852 3881 
Q 3991 3597 3991 3256 
Q 3991 2672 3619 2267 
Q 3247 1863 2275 1863 
L 1100 1863 
L 1100 0 
L 494 0 
z
M 1100 2403 
L 2284 2403 
Q 2872 2403 3119 2622 
Q 3366 2841 3366 3238 
Q 3366 3525 3220 3729 
Q 3075 3934 2838 4000 
Q 2684 4041 2272 4041 
L 1100 4041 
L 1100 2403 
z
" transform="scale(0.015625)"/>
      <path id="ArialMT-6c" d="M 409 0 
L 409 4581 
L 972 4581 
L 972 0 
L 409 0 
z
" transform="scale(0.015625)"/>
      <path id="ArialMT-66" d="M 556 0 
L 556 2881 
L 59 2881 
L 59 3319 
L 556 3319 
L 556 3672 
Q 556 4006 616 4169 
Q 697 4388 901 4523 
Q 1106 4659 1475 4659 
Q 1713 4659 2000 4603 
L 1916 4113 
Q 1741 4144 1584 4144 
Q 1328 4144 1222 4034 
Q 1116 3925 1116 3625 
L 1116 3319 
L 1763 3319 
L 1763 2881 
L 1116 2881 
L 1116 0 
L 556 0 
z
" transform="scale(0.015625)"/>
     </defs>
     <use xlink:href="#ArialMT-4b"/>
     <use xlink:href="#ArialMT-44" x="66.699219"/>
     <use xlink:href="#ArialMT-45" x="138.916016"/>
     <use xlink:href="#ArialMT-20" x="205.615234"/>
     <use xlink:href="#ArialMT-50" x="233.398438"/>
     <use xlink:href="#ArialMT-6c" x="300.097656"/>
     <use xlink:href="#ArialMT-6f" x="322.314453"/>
     <use xlink:href="#ArialMT-74" x="377.929688"/>
     <use xlink:href="#ArialMT-20" x="405.712891"/>
     <use xlink:href="#ArialMT-6f" x="433.496094"/>
     <use xlink:href="#ArialMT-66" x="489.111328"/>
     <use xlink:href="#ArialMT-20" x="516.894531"/>
     <use xlink:href="#ArialMT-45" x="544.677734"/>
     <use xlink:href="#ArialMT-78" x="611.376953"/>
     <use xlink:href="#ArialMT-65" x="661.376953"/>
     <use xlink:href="#ArialMT-63" x="716.992188"/>
     <use xlink:href="#ArialMT-75" x="766.992188"/>
     <use xlink:href="#ArialMT-74" x="822.607422"/>
     <use xlink:href="#ArialMT-69" x="850.390625"/>
     <use xlink:href="#ArialMT-6f" x="872.607422"/>
     <use xlink:href="#ArialMT-6e" x="928.222656"/>
     <use xlink:href="#ArialMT-20" x="983.837891"/>
     <use xlink:href="#ArialMT-54" x="1009.871094"/>
     <use xlink:href="#ArialMT-69" x="1067.205078"/>
     <use xlink:href="#ArialMT-6d" x="1089.421875"/>
     <use xlink:href="#ArialMT-65" x="1172.722656"/>
     <use xlink:href="#ArialMT-73" x="1228.337891"/>
    </g>
   </g>
  </g>
  <g id="legend_1">
   <g id="text_30">
    <!-- model -->
    <g style="fill: #262626" transform="translate(1105.393203 125.272969) scale(0.12 -0.12)">
     <defs>
      <path id="ArialMT-64" d="M 2575 0 
L 2575 419 
Q 2259 -75 1647 -75 
Q 1250 -75 917 144 
Q 584 363 401 755 
Q 219 1147 219 1656 
Q 219 2153 384 2558 
Q 550 2963 881 3178 
Q 1213 3394 1622 3394 
Q 1922 3394 2156 3267 
Q 2391 3141 2538 2938 
L 2538 4581 
L 3097 4581 
L 3097 0 
L 2575 0 
z
M 797 1656 
Q 797 1019 1065 703 
Q 1334 388 1700 388 
Q 2069 388 2326 689 
Q 2584 991 2584 1609 
Q 2584 2291 2321 2609 
Q 2059 2928 1675 2928 
Q 1300 2928 1048 2622 
Q 797 2316 797 1656 
z
" transform="scale(0.015625)"/>
     </defs>
     <use xlink:href="#ArialMT-6d"/>
     <use xlink:href="#ArialMT-6f" x="83.300781"/>
     <use xlink:href="#ArialMT-64" x="138.916016"/>
     <use xlink:href="#ArialMT-65" x="194.53125"/>
     <use xlink:href="#ArialMT-6c" x="250.146484"/>
    </g>
   </g>
   <g id="patch_5">
    <path d="M 1074.848906 141.031563 
L 1096.848906 141.031563 
L 1096.848906 133.331563 
L 1074.848906 133.331563 
z
" style="fill: #4c72b0; fill-opacity: 0.25; stroke: #4c72b0; stroke-linejoin: miter"/>
   </g>
   <g id="text_31">
    <!-- GPT-4 -->
    <g style="fill: #262626" transform="translate(1105.648906 141.031563) scale(0.11 -0.11)">
     <defs>
      <path id="ArialMT-47" d="M 2638 1797 
L 2638 2334 
L 4578 2338 
L 4578 638 
Q 4131 281 3656 101 
Q 3181 -78 2681 -78 
Q 2006 -78 1454 211 
Q 903 500 622 1047 
Q 341 1594 341 2269 
Q 341 2938 620 3517 
Q 900 4097 1425 4378 
Q 1950 4659 2634 4659 
Q 3131 4659 3532 4498 
Q 3934 4338 4162 4050 
Q 4391 3763 4509 3300 
L 3963 3150 
Q 3859 3500 3706 3700 
Q 3553 3900 3268 4020 
Q 2984 4141 2638 4141 
Q 2222 4141 1919 4014 
Q 1616 3888 1430 3681 
Q 1244 3475 1141 3228 
Q 966 2803 966 2306 
Q 966 1694 1177 1281 
Q 1388 869 1791 669 
Q 2194 469 2647 469 
Q 3041 469 3416 620 
Q 3791 772 3984 944 
L 3984 1797 
L 2638 1797 
z
" transform="scale(0.015625)"/>
      <path id="ArialMT-2d" d="M 203 1375 
L 203 1941 
L 1931 1941 
L 1931 1375 
L 203 1375 
z
" transform="scale(0.015625)"/>
     </defs>
     <use xlink:href="#ArialMT-47"/>
     <use xlink:href="#ArialMT-50" x="77.783203"/>
     <use xlink:href="#ArialMT-54" x="144.482422"/>
     <use xlink:href="#ArialMT-2d" x="200.066406"/>
     <use xlink:href="#ArialMT-34" x="233.367188"/>
    </g>
   </g>
   <g id="patch_6">
    <path d="M 1074.848906 156.591406 
L 1096.848906 156.591406 
L 1096.848906 148.891406 
L 1074.848906 148.891406 
z
" style="fill: #dd8452; fill-opacity: 0.25; stroke: #dd8452; stroke-linejoin: miter"/>
   </g>
   <g id="text_32">
    <!-- GPT-4 Turbo -->
    <g style="fill: #262626" transform="translate(1105.648906 156.591406) scale(0.11 -0.11)">
     <defs>
      <path id="ArialMT-72" d="M 416 0 
L 416 3319 
L 922 3319 
L 922 2816 
Q 1116 3169 1280 3281 
Q 1444 3394 1641 3394 
Q 1925 3394 2219 3213 
L 2025 2691 
Q 1819 2813 1613 2813 
Q 1428 2813 1281 2702 
Q 1134 2591 1072 2394 
Q 978 2094 978 1738 
L 978 0 
L 416 0 
z
" transform="scale(0.015625)"/>
      <path id="ArialMT-62" d="M 941 0 
L 419 0 
L 419 4581 
L 981 4581 
L 981 2947 
Q 1338 3394 1891 3394 
Q 2197 3394 2470 3270 
Q 2744 3147 2920 2923 
Q 3097 2700 3197 2384 
Q 3297 2069 3297 1709 
Q 3297 856 2875 390 
Q 2453 -75 1863 -75 
Q 1275 -75 941 416 
L 941 0 
z
M 934 1684 
Q 934 1088 1097 822 
Q 1363 388 1816 388 
Q 2184 388 2453 708 
Q 2722 1028 2722 1663 
Q 2722 2313 2464 2622 
Q 2206 2931 1841 2931 
Q 1472 2931 1203 2611 
Q 934 2291 934 1684 
z
" transform="scale(0.015625)"/>
     </defs>
     <use xlink:href="#ArialMT-47"/>
     <use xlink:href="#ArialMT-50" x="77.783203"/>
     <use xlink:href="#ArialMT-54" x="144.482422"/>
     <use xlink:href="#ArialMT-2d" x="200.066406"/>
     <use xlink:href="#ArialMT-34" x="233.367188"/>
     <use xlink:href="#ArialMT-20" x="288.982422"/>
     <use xlink:href="#ArialMT-54" x="315.015625"/>
     <use xlink:href="#ArialMT-75" x="372.349609"/>
     <use xlink:href="#ArialMT-72" x="427.964844"/>
     <use xlink:href="#ArialMT-62" x="461.265625"/>
     <use xlink:href="#ArialMT-6f" x="516.880859"/>
    </g>
   </g>
   <g id="patch_7">
    <path d="M 1074.848906 172.15125 
L 1096.848906 172.15125 
L 1096.848906 164.45125 
L 1074.848906 164.45125 
z
" style="fill: #55a868; fill-opacity: 0.25; stroke: #55a868; stroke-linejoin: miter"/>
   </g>
   <g id="text_33">
    <!-- GPT-4 Omni -->
    <g style="fill: #262626" transform="translate(1105.648906 172.15125) scale(0.11 -0.11)">
     <defs>
      <path id="ArialMT-4f" d="M 309 2231 
Q 309 3372 921 4017 
Q 1534 4663 2503 4663 
Q 3138 4663 3647 4359 
Q 4156 4056 4423 3514 
Q 4691 2972 4691 2284 
Q 4691 1588 4409 1038 
Q 4128 488 3612 205 
Q 3097 -78 2500 -78 
Q 1853 -78 1343 234 
Q 834 547 571 1087 
Q 309 1628 309 2231 
z
M 934 2222 
Q 934 1394 1379 917 
Q 1825 441 2497 441 
Q 3181 441 3623 922 
Q 4066 1403 4066 2288 
Q 4066 2847 3877 3264 
Q 3688 3681 3323 3911 
Q 2959 4141 2506 4141 
Q 1863 4141 1398 3698 
Q 934 3256 934 2222 
z
" transform="scale(0.015625)"/>
     </defs>
     <use xlink:href="#ArialMT-47"/>
     <use xlink:href="#ArialMT-50" x="77.783203"/>
     <use xlink:href="#ArialMT-54" x="144.482422"/>
     <use xlink:href="#ArialMT-2d" x="200.066406"/>
     <use xlink:href="#ArialMT-34" x="233.367188"/>
     <use xlink:href="#ArialMT-20" x="288.982422"/>
     <use xlink:href="#ArialMT-4f" x="316.765625"/>
     <use xlink:href="#ArialMT-6d" x="394.548828"/>
     <use xlink:href="#ArialMT-6e" x="477.849609"/>
     <use xlink:href="#ArialMT-69" x="533.464844"/>
    </g>
   </g>
  </g>
 </g>
 <defs>
  <clipPath id="p3efa8aeb1b">
   <rect x="47.105" y="21.789375" width="1002.50955" height="227.4975"/>
  </clipPath>
 </defs>
</svg>
