<?xml version="1.0" encoding="utf-8" standalone="no"?>
<!DOCTYPE svg PUBLIC "-//W3C//DTD SVG 1.1//EN"
  "http://www.w3.org/Graphics/SVG/1.1/DTD/svg11.dtd">
<svg xmlns:xlink="http://www.w3.org/1999/xlink" width="882.132031pt" height="285.716719pt" viewBox="0 0 882.132031 285.716719" xmlns="http://www.w3.org/2000/svg" version="1.1">
 <metadata>
  <rdf:RDF xmlns:dc="http://purl.org/dc/elements/1.1/" xmlns:cc="http://creativecommons.org/ns#" xmlns:rdf="http://www.w3.org/1999/02/22-rdf-syntax-ns#">
   <cc:Work>
    <dc:type rdf:resource="http://purl.org/dc/dcmitype/StillImage"/>
    <dc:date>2024-05-28T11:56:05.640783</dc:date>
    <dc:format>image/svg+xml</dc:format>
    <dc:creator>
     <cc:Agent>
      <dc:title>Matplotlib v3.8.1, https://matplotlib.org/</dc:title>
     </cc:Agent>
    </dc:creator>
   </cc:Work>
  </rdf:RDF>
 </metadata>
 <defs>
  <style type="text/css">*{stroke-linejoin: round; stroke-linecap: butt}</style>
 </defs>
 <g id="figure_1">
  <g id="patch_1">
   <path d="M 0 285.716719 
L 882.132031 285.716719 
L 882.132031 0 
L 0 0 
z
" style="fill: #ffffff"/>
  </g>
  <g id="axes_1">
   <g id="patch_2">
    <path d="M 37.932031 243.695625 
L 874.932031 243.695625 
L 874.932031 21.935625 
L 37.932031 21.935625 
z
" style="fill: #ffffff"/>
   </g>
   <g id="matplotlib.axis_1">
    <g id="xtick_1">
     <g id="line2d_1">
      <path d="M 75.977486 243.695625 
L 75.977486 21.935625 
" clip-path="url(#p501af1827a)" style="fill: none; stroke: #cccccc; stroke-linecap: round"/>
     </g>
     <g id="text_1">
      <!-- 0 -->
      <g style="fill: #262626" transform="translate(72.91897 261.069219) scale(0.11 -0.11)">
       <defs>
        <path id="ArialMT-30" d="M 266 2259 
Q 266 3072 433 3567 
Q 600 4063 929 4331 
Q 1259 4600 1759 4600 
Q 2128 4600 2406 4451 
Q 2684 4303 2865 4023 
Q 3047 3744 3150 3342 
Q 3253 2941 3253 2259 
Q 3253 1453 3087 958 
Q 2922 463 2592 192 
Q 2263 -78 1759 -78 
Q 1097 -78 719 397 
Q 266 969 266 2259 
z
M 844 2259 
Q 844 1131 1108 757 
Q 1372 384 1759 384 
Q 2147 384 2411 759 
Q 2675 1134 2675 2259 
Q 2675 3391 2411 3762 
Q 2147 4134 1753 4134 
Q 1366 4134 1134 3806 
Q 844 3388 844 2259 
z
" transform="scale(0.015625)"/>
       </defs>
       <use xlink:href="#ArialMT-30"/>
      </g>
     </g>
    </g>
    <g id="xtick_2">
     <g id="line2d_2">
      <path d="M 226.677968 243.695625 
L 226.677968 21.935625 
" clip-path="url(#p501af1827a)" style="fill: none; stroke: #cccccc; stroke-linecap: round"/>
     </g>
     <g id="text_2">
      <!-- 2 -->
      <g style="fill: #262626" transform="translate(223.619452 261.069219) scale(0.11 -0.11)">
       <defs>
        <path id="ArialMT-32" d="M 3222 541 
L 3222 0 
L 194 0 
Q 188 203 259 391 
Q 375 700 629 1000 
Q 884 1300 1366 1694 
Q 2113 2306 2375 2664 
Q 2638 3022 2638 3341 
Q 2638 3675 2398 3904 
Q 2159 4134 1775 4134 
Q 1369 4134 1125 3890 
Q 881 3647 878 3216 
L 300 3275 
Q 359 3922 746 4261 
Q 1134 4600 1788 4600 
Q 2447 4600 2831 4234 
Q 3216 3869 3216 3328 
Q 3216 3053 3103 2787 
Q 2991 2522 2730 2228 
Q 2469 1934 1863 1422 
Q 1356 997 1212 845 
Q 1069 694 975 541 
L 3222 541 
z
" transform="scale(0.015625)"/>
       </defs>
       <use xlink:href="#ArialMT-32"/>
      </g>
     </g>
    </g>
    <g id="xtick_3">
     <g id="line2d_3">
      <path d="M 377.37845 243.695625 
L 377.37845 21.935625 
" clip-path="url(#p501af1827a)" style="fill: none; stroke: #cccccc; stroke-linecap: round"/>
     </g>
     <g id="text_3">
      <!-- 4 -->
      <g style="fill: #262626" transform="translate(374.319934 261.069219) scale(0.11 -0.11)">
       <defs>
        <path id="ArialMT-34" d="M 2069 0 
L 2069 1097 
L 81 1097 
L 81 1613 
L 2172 4581 
L 2631 4581 
L 2631 1613 
L 3250 1613 
L 3250 1097 
L 2631 1097 
L 2631 0 
L 2069 0 
z
M 2069 1613 
L 2069 3678 
L 634 1613 
L 2069 1613 
z
" transform="scale(0.015625)"/>
       </defs>
       <use xlink:href="#ArialMT-34"/>
      </g>
     </g>
    </g>
    <g id="xtick_4">
     <g id="line2d_4">
      <path d="M 528.078932 243.695625 
L 528.078932 21.935625 
" clip-path="url(#p501af1827a)" style="fill: none; stroke: #cccccc; stroke-linecap: round"/>
     </g>
     <g id="text_4">
      <!-- 6 -->
      <g style="fill: #262626" transform="translate(525.020416 261.069219) scale(0.11 -0.11)">
       <defs>
        <path id="ArialMT-36" d="M 3184 3459 
L 2625 3416 
Q 2550 3747 2413 3897 
Q 2184 4138 1850 4138 
Q 1581 4138 1378 3988 
Q 1113 3794 959 3422 
Q 806 3050 800 2363 
Q 1003 2672 1297 2822 
Q 1591 2972 1913 2972 
Q 2475 2972 2870 2558 
Q 3266 2144 3266 1488 
Q 3266 1056 3080 686 
Q 2894 316 2569 119 
Q 2244 -78 1831 -78 
Q 1128 -78 684 439 
Q 241 956 241 2144 
Q 241 3472 731 4075 
Q 1159 4600 1884 4600 
Q 2425 4600 2770 4297 
Q 3116 3994 3184 3459 
z
M 888 1484 
Q 888 1194 1011 928 
Q 1134 663 1356 523 
Q 1578 384 1822 384 
Q 2178 384 2434 671 
Q 2691 959 2691 1453 
Q 2691 1928 2437 2201 
Q 2184 2475 1800 2475 
Q 1419 2475 1153 2201 
Q 888 1928 888 1484 
z
" transform="scale(0.015625)"/>
       </defs>
       <use xlink:href="#ArialMT-36"/>
      </g>
     </g>
    </g>
    <g id="xtick_5">
     <g id="line2d_5">
      <path d="M 678.779414 243.695625 
L 678.779414 21.935625 
" clip-path="url(#p501af1827a)" style="fill: none; stroke: #cccccc; stroke-linecap: round"/>
     </g>
     <g id="text_5">
      <!-- 8 -->
      <g style="fill: #262626" transform="translate(675.720898 261.069219) scale(0.11 -0.11)">
       <defs>
        <path id="ArialMT-38" d="M 1131 2484 
Q 781 2613 612 2850 
Q 444 3088 444 3419 
Q 444 3919 803 4259 
Q 1163 4600 1759 4600 
Q 2359 4600 2725 4251 
Q 3091 3903 3091 3403 
Q 3091 3084 2923 2848 
Q 2756 2613 2416 2484 
Q 2838 2347 3058 2040 
Q 3278 1734 3278 1309 
Q 3278 722 2862 322 
Q 2447 -78 1769 -78 
Q 1091 -78 675 323 
Q 259 725 259 1325 
Q 259 1772 486 2073 
Q 713 2375 1131 2484 
z
M 1019 3438 
Q 1019 3113 1228 2906 
Q 1438 2700 1772 2700 
Q 2097 2700 2305 2904 
Q 2513 3109 2513 3406 
Q 2513 3716 2298 3927 
Q 2084 4138 1766 4138 
Q 1444 4138 1231 3931 
Q 1019 3725 1019 3438 
z
M 838 1322 
Q 838 1081 952 856 
Q 1066 631 1291 507 
Q 1516 384 1775 384 
Q 2178 384 2440 643 
Q 2703 903 2703 1303 
Q 2703 1709 2433 1975 
Q 2163 2241 1756 2241 
Q 1359 2241 1098 1978 
Q 838 1716 838 1322 
z
" transform="scale(0.015625)"/>
       </defs>
       <use xlink:href="#ArialMT-38"/>
      </g>
     </g>
    </g>
    <g id="xtick_6">
     <g id="line2d_6">
      <path d="M 829.479896 243.695625 
L 829.479896 21.935625 
" clip-path="url(#p501af1827a)" style="fill: none; stroke: #cccccc; stroke-linecap: round"/>
     </g>
     <g id="text_6">
      <!-- 10 -->
      <g style="fill: #262626" transform="translate(823.362865 261.069219) scale(0.11 -0.11)">
       <defs>
        <path id="ArialMT-31" d="M 2384 0 
L 1822 0 
L 1822 3584 
Q 1619 3391 1289 3197 
Q 959 3003 697 2906 
L 697 3450 
Q 1169 3672 1522 3987 
Q 1875 4303 2022 4600 
L 2384 4600 
L 2384 0 
z
" transform="scale(0.015625)"/>
       </defs>
       <use xlink:href="#ArialMT-31"/>
       <use xlink:href="#ArialMT-30" x="55.615234"/>
      </g>
     </g>
    </g>
    <g id="text_7">
     <!-- Execution Time (s) -->
     <g style="fill: #262626" transform="translate(406.752031 275.991094) scale(0.12 -0.12)">
      <defs>
       <path id="ArialMT-45" d="M 506 0 
L 506 4581 
L 3819 4581 
L 3819 4041 
L 1113 4041 
L 1113 2638 
L 3647 2638 
L 3647 2100 
L 1113 2100 
L 1113 541 
L 3925 541 
L 3925 0 
L 506 0 
z
" transform="scale(0.015625)"/>
       <path id="ArialMT-78" d="M 47 0 
L 1259 1725 
L 138 3319 
L 841 3319 
L 1350 2541 
Q 1494 2319 1581 2169 
Q 1719 2375 1834 2534 
L 2394 3319 
L 3066 3319 
L 1919 1756 
L 3153 0 
L 2463 0 
L 1781 1031 
L 1600 1309 
L 728 0 
L 47 0 
z
" transform="scale(0.015625)"/>
       <path id="ArialMT-65" d="M 2694 1069 
L 3275 997 
Q 3138 488 2766 206 
Q 2394 -75 1816 -75 
Q 1088 -75 661 373 
Q 234 822 234 1631 
Q 234 2469 665 2931 
Q 1097 3394 1784 3394 
Q 2450 3394 2872 2941 
Q 3294 2488 3294 1666 
Q 3294 1616 3291 1516 
L 816 1516 
Q 847 969 1125 678 
Q 1403 388 1819 388 
Q 2128 388 2347 550 
Q 2566 713 2694 1069 
z
M 847 1978 
L 2700 1978 
Q 2663 2397 2488 2606 
Q 2219 2931 1791 2931 
Q 1403 2931 1139 2672 
Q 875 2413 847 1978 
z
" transform="scale(0.015625)"/>
       <path id="ArialMT-63" d="M 2588 1216 
L 3141 1144 
Q 3050 572 2676 248 
Q 2303 -75 1759 -75 
Q 1078 -75 664 370 
Q 250 816 250 1647 
Q 250 2184 428 2587 
Q 606 2991 970 3192 
Q 1334 3394 1763 3394 
Q 2303 3394 2647 3120 
Q 2991 2847 3088 2344 
L 2541 2259 
Q 2463 2594 2264 2762 
Q 2066 2931 1784 2931 
Q 1359 2931 1093 2626 
Q 828 2322 828 1663 
Q 828 994 1084 691 
Q 1341 388 1753 388 
Q 2084 388 2306 591 
Q 2528 794 2588 1216 
z
" transform="scale(0.015625)"/>
       <path id="ArialMT-75" d="M 2597 0 
L 2597 488 
Q 2209 -75 1544 -75 
Q 1250 -75 995 37 
Q 741 150 617 320 
Q 494 491 444 738 
Q 409 903 409 1263 
L 409 3319 
L 972 3319 
L 972 1478 
Q 972 1038 1006 884 
Q 1059 663 1231 536 
Q 1403 409 1656 409 
Q 1909 409 2131 539 
Q 2353 669 2445 892 
Q 2538 1116 2538 1541 
L 2538 3319 
L 3100 3319 
L 3100 0 
L 2597 0 
z
" transform="scale(0.015625)"/>
       <path id="ArialMT-74" d="M 1650 503 
L 1731 6 
Q 1494 -44 1306 -44 
Q 1000 -44 831 53 
Q 663 150 594 308 
Q 525 466 525 972 
L 525 2881 
L 113 2881 
L 113 3319 
L 525 3319 
L 525 4141 
L 1084 4478 
L 1084 3319 
L 1650 3319 
L 1650 2881 
L 1084 2881 
L 1084 941 
Q 1084 700 1114 631 
Q 1144 563 1211 522 
Q 1278 481 1403 481 
Q 1497 481 1650 503 
z
" transform="scale(0.015625)"/>
       <path id="ArialMT-69" d="M 425 3934 
L 425 4581 
L 988 4581 
L 988 3934 
L 425 3934 
z
M 425 0 
L 425 3319 
L 988 3319 
L 988 0 
L 425 0 
z
" transform="scale(0.015625)"/>
       <path id="ArialMT-6f" d="M 213 1659 
Q 213 2581 725 3025 
Q 1153 3394 1769 3394 
Q 2453 3394 2887 2945 
Q 3322 2497 3322 1706 
Q 3322 1066 3130 698 
Q 2938 331 2570 128 
Q 2203 -75 1769 -75 
Q 1072 -75 642 372 
Q 213 819 213 1659 
z
M 791 1659 
Q 791 1022 1069 705 
Q 1347 388 1769 388 
Q 2188 388 2466 706 
Q 2744 1025 2744 1678 
Q 2744 2294 2464 2611 
Q 2184 2928 1769 2928 
Q 1347 2928 1069 2612 
Q 791 2297 791 1659 
z
" transform="scale(0.015625)"/>
       <path id="ArialMT-6e" d="M 422 0 
L 422 3319 
L 928 3319 
L 928 2847 
Q 1294 3394 1984 3394 
Q 2284 3394 2536 3286 
Q 2788 3178 2913 3003 
Q 3038 2828 3088 2588 
Q 3119 2431 3119 2041 
L 3119 0 
L 2556 0 
L 2556 2019 
Q 2556 2363 2490 2533 
Q 2425 2703 2258 2804 
Q 2091 2906 1866 2906 
Q 1506 2906 1245 2678 
Q 984 2450 984 1813 
L 984 0 
L 422 0 
z
" transform="scale(0.015625)"/>
       <path id="ArialMT-20" transform="scale(0.015625)"/>
       <path id="ArialMT-54" d="M 1659 0 
L 1659 4041 
L 150 4041 
L 150 4581 
L 3781 4581 
L 3781 4041 
L 2266 4041 
L 2266 0 
L 1659 0 
z
" transform="scale(0.015625)"/>
       <path id="ArialMT-6d" d="M 422 0 
L 422 3319 
L 925 3319 
L 925 2853 
Q 1081 3097 1340 3245 
Q 1600 3394 1931 3394 
Q 2300 3394 2536 3241 
Q 2772 3088 2869 2813 
Q 3263 3394 3894 3394 
Q 4388 3394 4653 3120 
Q 4919 2847 4919 2278 
L 4919 0 
L 4359 0 
L 4359 2091 
Q 4359 2428 4304 2576 
Q 4250 2725 4106 2815 
Q 3963 2906 3769 2906 
Q 3419 2906 3187 2673 
Q 2956 2441 2956 1928 
L 2956 0 
L 2394 0 
L 2394 2156 
Q 2394 2531 2256 2718 
Q 2119 2906 1806 2906 
Q 1569 2906 1367 2781 
Q 1166 2656 1075 2415 
Q 984 2175 984 1722 
L 984 0 
L 422 0 
z
" transform="scale(0.015625)"/>
       <path id="ArialMT-28" d="M 1497 -1347 
Q 1031 -759 709 28 
Q 388 816 388 1659 
Q 388 2403 628 3084 
Q 909 3875 1497 4659 
L 1900 4659 
Q 1522 4009 1400 3731 
Q 1209 3300 1100 2831 
Q 966 2247 966 1656 
Q 966 153 1900 -1347 
L 1497 -1347 
z
" transform="scale(0.015625)"/>
       <path id="ArialMT-73" d="M 197 991 
L 753 1078 
Q 800 744 1014 566 
Q 1228 388 1613 388 
Q 2000 388 2187 545 
Q 2375 703 2375 916 
Q 2375 1106 2209 1216 
Q 2094 1291 1634 1406 
Q 1016 1563 777 1677 
Q 538 1791 414 1992 
Q 291 2194 291 2438 
Q 291 2659 392 2848 
Q 494 3038 669 3163 
Q 800 3259 1026 3326 
Q 1253 3394 1513 3394 
Q 1903 3394 2198 3281 
Q 2494 3169 2634 2976 
Q 2775 2784 2828 2463 
L 2278 2388 
Q 2241 2644 2061 2787 
Q 1881 2931 1553 2931 
Q 1166 2931 1000 2803 
Q 834 2675 834 2503 
Q 834 2394 903 2306 
Q 972 2216 1119 2156 
Q 1203 2125 1616 2013 
Q 2213 1853 2448 1751 
Q 2684 1650 2818 1456 
Q 2953 1263 2953 975 
Q 2953 694 2789 445 
Q 2625 197 2315 61 
Q 2006 -75 1616 -75 
Q 969 -75 630 194 
Q 291 463 197 991 
z
" transform="scale(0.015625)"/>
       <path id="ArialMT-29" d="M 791 -1347 
L 388 -1347 
Q 1322 153 1322 1656 
Q 1322 2244 1188 2822 
Q 1081 3291 891 3722 
Q 769 4003 388 4659 
L 791 4659 
Q 1378 3875 1659 3084 
Q 1900 2403 1900 1659 
Q 1900 816 1576 28 
Q 1253 -759 791 -1347 
z
" transform="scale(0.015625)"/>
      </defs>
      <use xlink:href="#ArialMT-45"/>
      <use xlink:href="#ArialMT-78" x="66.699219"/>
      <use xlink:href="#ArialMT-65" x="116.699219"/>
      <use xlink:href="#ArialMT-63" x="172.314453"/>
      <use xlink:href="#ArialMT-75" x="222.314453"/>
      <use xlink:href="#ArialMT-74" x="277.929688"/>
      <use xlink:href="#ArialMT-69" x="305.712891"/>
      <use xlink:href="#ArialMT-6f" x="327.929688"/>
      <use xlink:href="#ArialMT-6e" x="383.544922"/>
      <use xlink:href="#ArialMT-20" x="439.160156"/>
      <use xlink:href="#ArialMT-54" x="465.193359"/>
      <use xlink:href="#ArialMT-69" x="522.527344"/>
      <use xlink:href="#ArialMT-6d" x="544.744141"/>
      <use xlink:href="#ArialMT-65" x="628.044922"/>
      <use xlink:href="#ArialMT-20" x="683.660156"/>
      <use xlink:href="#ArialMT-28" x="711.443359"/>
      <use xlink:href="#ArialMT-73" x="744.744141"/>
      <use xlink:href="#ArialMT-29" x="794.744141"/>
     </g>
    </g>
   </g>
   <g id="matplotlib.axis_2">
    <g id="ytick_1">
     <g id="line2d_7">
      <path d="M 37.932031 243.695625 
L 874.932031 243.695625 
" clip-path="url(#p501af1827a)" style="fill: none; stroke: #cccccc; stroke-linecap: round"/>
     </g>
     <g id="text_8">
      <!-- 0 -->
      <g style="fill: #262626" transform="translate(22.315 247.632422) scale(0.11 -0.11)">
       <use xlink:href="#ArialMT-30"/>
      </g>
     </g>
    </g>
    <g id="ytick_2">
     <g id="line2d_8">
      <path d="M 37.932031 196.213318 
L 874.932031 196.213318 
" clip-path="url(#p501af1827a)" style="fill: none; stroke: #cccccc; stroke-linecap: round"/>
     </g>
     <g id="text_9">
      <!-- 1 -->
      <g style="fill: #262626" transform="translate(22.315 200.150115) scale(0.11 -0.11)">
       <use xlink:href="#ArialMT-31"/>
      </g>
     </g>
    </g>
    <g id="ytick_3">
     <g id="line2d_9">
      <path d="M 37.932031 148.731011 
L 874.932031 148.731011 
" clip-path="url(#p501af1827a)" style="fill: none; stroke: #cccccc; stroke-linecap: round"/>
     </g>
     <g id="text_10">
      <!-- 2 -->
      <g style="fill: #262626" transform="translate(22.315 152.667808) scale(0.11 -0.11)">
       <use xlink:href="#ArialMT-32"/>
      </g>
     </g>
    </g>
    <g id="ytick_4">
     <g id="line2d_10">
      <path d="M 37.932031 101.248704 
L 874.932031 101.248704 
" clip-path="url(#p501af1827a)" style="fill: none; stroke: #cccccc; stroke-linecap: round"/>
     </g>
     <g id="text_11">
      <!-- 3 -->
      <g style="fill: #262626" transform="translate(22.315 105.185501) scale(0.11 -0.11)">
       <defs>
        <path id="ArialMT-33" d="M 269 1209 
L 831 1284 
Q 928 806 1161 595 
Q 1394 384 1728 384 
Q 2125 384 2398 659 
Q 2672 934 2672 1341 
Q 2672 1728 2419 1979 
Q 2166 2231 1775 2231 
Q 1616 2231 1378 2169 
L 1441 2663 
Q 1497 2656 1531 2656 
Q 1891 2656 2178 2843 
Q 2466 3031 2466 3422 
Q 2466 3731 2256 3934 
Q 2047 4138 1716 4138 
Q 1388 4138 1169 3931 
Q 950 3725 888 3313 
L 325 3413 
Q 428 3978 793 4289 
Q 1159 4600 1703 4600 
Q 2078 4600 2393 4439 
Q 2709 4278 2876 4000 
Q 3044 3722 3044 3409 
Q 3044 3113 2884 2869 
Q 2725 2625 2413 2481 
Q 2819 2388 3044 2092 
Q 3269 1797 3269 1353 
Q 3269 753 2831 336 
Q 2394 -81 1725 -81 
Q 1122 -81 723 278 
Q 325 638 269 1209 
z
" transform="scale(0.015625)"/>
       </defs>
       <use xlink:href="#ArialMT-33"/>
      </g>
     </g>
    </g>
    <g id="ytick_5">
     <g id="line2d_11">
      <path d="M 37.932031 53.766398 
L 874.932031 53.766398 
" clip-path="url(#p501af1827a)" style="fill: none; stroke: #cccccc; stroke-linecap: round"/>
     </g>
     <g id="text_12">
      <!-- 4 -->
      <g style="fill: #262626" transform="translate(22.315 57.703194) scale(0.11 -0.11)">
       <use xlink:href="#ArialMT-34"/>
      </g>
     </g>
    </g>
    <g id="text_13">
     <!-- Density -->
     <g style="fill: #262626" transform="translate(15.789375 152.821875) rotate(-90) scale(0.12 -0.12)">
      <defs>
       <path id="ArialMT-44" d="M 494 0 
L 494 4581 
L 2072 4581 
Q 2606 4581 2888 4516 
Q 3281 4425 3559 4188 
Q 3922 3881 4101 3404 
Q 4281 2928 4281 2316 
Q 4281 1794 4159 1391 
Q 4038 988 3847 723 
Q 3656 459 3429 307 
Q 3203 156 2883 78 
Q 2563 0 2147 0 
L 494 0 
z
M 1100 541 
L 2078 541 
Q 2531 541 2789 625 
Q 3047 709 3200 863 
Q 3416 1078 3536 1442 
Q 3656 1806 3656 2325 
Q 3656 3044 3420 3430 
Q 3184 3816 2847 3947 
Q 2603 4041 2063 4041 
L 1100 4041 
L 1100 541 
z
" transform="scale(0.015625)"/>
       <path id="ArialMT-79" d="M 397 -1278 
L 334 -750 
Q 519 -800 656 -800 
Q 844 -800 956 -737 
Q 1069 -675 1141 -563 
Q 1194 -478 1313 -144 
Q 1328 -97 1363 -6 
L 103 3319 
L 709 3319 
L 1400 1397 
Q 1534 1031 1641 628 
Q 1738 1016 1872 1384 
L 2581 3319 
L 3144 3319 
L 1881 -56 
Q 1678 -603 1566 -809 
Q 1416 -1088 1222 -1217 
Q 1028 -1347 759 -1347 
Q 597 -1347 397 -1278 
z
" transform="scale(0.015625)"/>
      </defs>
      <use xlink:href="#ArialMT-44"/>
      <use xlink:href="#ArialMT-65" x="72.216797"/>
      <use xlink:href="#ArialMT-6e" x="127.832031"/>
      <use xlink:href="#ArialMT-73" x="183.447266"/>
      <use xlink:href="#ArialMT-69" x="233.447266"/>
      <use xlink:href="#ArialMT-74" x="255.664062"/>
      <use xlink:href="#ArialMT-79" x="283.447266"/>
     </g>
    </g>
   </g>
   <g id="patch_3">
    <path d="M 120.381722 243.695625 
L 144.265217 243.695625 
L 144.265217 176.88038 
L 120.381722 176.88038 
z
" clip-path="url(#p501af1827a)" style="fill: #0000ff; opacity: 0.4; stroke: #ffffff; stroke-linejoin: miter"/>
   </g>
   <g id="patch_4">
    <path d="M 144.265217 243.695625 
L 168.148712 243.695625 
L 168.148712 217.309987 
L 144.265217 217.309987 
z
" clip-path="url(#p501af1827a)" style="fill: #0000ff; opacity: 0.4; stroke: #ffffff; stroke-linejoin: miter"/>
   </g>
   <g id="patch_5">
    <path d="M 168.148712 243.695625 
L 192.032207 243.695625 
L 192.032207 230.502806 
L 168.148712 230.502806 
z
" clip-path="url(#p501af1827a)" style="fill: #0000ff; opacity: 0.4; stroke: #ffffff; stroke-linejoin: miter"/>
   </g>
   <g id="patch_6">
    <path d="M 192.032207 243.695625 
L 215.915703 243.695625 
L 215.915703 238.163153 
L 192.032207 238.163153 
z
" clip-path="url(#p501af1827a)" style="fill: #0000ff; opacity: 0.4; stroke: #ffffff; stroke-linejoin: miter"/>
   </g>
   <g id="patch_7">
    <path d="M 215.915703 243.695625 
L 239.799198 243.695625 
L 239.799198 235.609704 
L 215.915703 235.609704 
z
" clip-path="url(#p501af1827a)" style="fill: #0000ff; opacity: 0.4; stroke: #ffffff; stroke-linejoin: miter"/>
   </g>
   <g id="patch_8">
    <path d="M 239.799198 243.695625 
L 263.682693 243.695625 
L 263.682693 238.588727 
L 239.799198 238.588727 
z
" clip-path="url(#p501af1827a)" style="fill: #0000ff; opacity: 0.4; stroke: #ffffff; stroke-linejoin: miter"/>
   </g>
   <g id="patch_9">
    <path d="M 263.682693 243.695625 
L 287.566188 243.695625 
L 287.566188 239.439877 
L 263.682693 239.439877 
z
" clip-path="url(#p501af1827a)" style="fill: #0000ff; opacity: 0.4; stroke: #ffffff; stroke-linejoin: miter"/>
   </g>
   <g id="patch_10">
    <path d="M 287.566188 243.695625 
L 311.449683 243.695625 
L 311.449683 240.291027 
L 287.566188 240.291027 
z
" clip-path="url(#p501af1827a)" style="fill: #0000ff; opacity: 0.4; stroke: #ffffff; stroke-linejoin: miter"/>
   </g>
   <g id="patch_11">
    <path d="M 311.449683 243.695625 
L 335.333178 243.695625 
L 335.333178 241.567751 
L 311.449683 241.567751 
z
" clip-path="url(#p501af1827a)" style="fill: #0000ff; opacity: 0.4; stroke: #ffffff; stroke-linejoin: miter"/>
   </g>
   <g id="patch_12">
    <path d="M 335.333178 243.695625 
L 359.216674 243.695625 
L 359.216674 242.418901 
L 335.333178 242.418901 
z
" clip-path="url(#p501af1827a)" style="fill: #0000ff; opacity: 0.4; stroke: #ffffff; stroke-linejoin: miter"/>
   </g>
   <g id="patch_13">
    <path d="M 359.216674 243.695625 
L 383.100169 243.695625 
L 383.100169 243.27005 
L 359.216674 243.27005 
z
" clip-path="url(#p501af1827a)" style="fill: #0000ff; opacity: 0.4; stroke: #ffffff; stroke-linejoin: miter"/>
   </g>
   <g id="patch_14">
    <path d="M 383.100169 243.695625 
L 406.983664 243.695625 
L 406.983664 241.993326 
L 383.100169 241.993326 
z
" clip-path="url(#p501af1827a)" style="fill: #0000ff; opacity: 0.4; stroke: #ffffff; stroke-linejoin: miter"/>
   </g>
   <g id="patch_15">
    <path d="M 406.983664 243.695625 
L 430.867159 243.695625 
L 430.867159 242.418901 
L 406.983664 242.418901 
z
" clip-path="url(#p501af1827a)" style="fill: #0000ff; opacity: 0.4; stroke: #ffffff; stroke-linejoin: miter"/>
   </g>
   <g id="patch_16">
    <path d="M 430.867159 243.695625 
L 454.750654 243.695625 
L 454.750654 243.27005 
L 430.867159 243.27005 
z
" clip-path="url(#p501af1827a)" style="fill: #0000ff; opacity: 0.4; stroke: #ffffff; stroke-linejoin: miter"/>
   </g>
   <g id="patch_17">
    <path d="M 454.750654 243.695625 
L 478.634149 243.695625 
L 478.634149 242.844475 
L 454.750654 242.844475 
z
" clip-path="url(#p501af1827a)" style="fill: #0000ff; opacity: 0.4; stroke: #ffffff; stroke-linejoin: miter"/>
   </g>
   <g id="patch_18">
    <path d="M 478.634149 243.695625 
L 502.517644 243.695625 
L 502.517644 243.27005 
L 478.634149 243.27005 
z
" clip-path="url(#p501af1827a)" style="fill: #0000ff; opacity: 0.4; stroke: #ffffff; stroke-linejoin: miter"/>
   </g>
   <g id="patch_19">
    <path d="M 502.517644 243.695625 
L 526.40114 243.695625 
L 526.40114 243.695625 
L 502.517644 243.695625 
z
" clip-path="url(#p501af1827a)" style="fill: #0000ff; opacity: 0.4; stroke: #ffffff; stroke-linejoin: miter"/>
   </g>
   <g id="patch_20">
    <path d="M 526.40114 243.695625 
L 550.284635 243.695625 
L 550.284635 243.695625 
L 526.40114 243.695625 
z
" clip-path="url(#p501af1827a)" style="fill: #0000ff; opacity: 0.4; stroke: #ffffff; stroke-linejoin: miter"/>
   </g>
   <g id="patch_21">
    <path d="M 550.284635 243.695625 
L 574.16813 243.695625 
L 574.16813 241.993326 
L 550.284635 241.993326 
z
" clip-path="url(#p501af1827a)" style="fill: #0000ff; opacity: 0.4; stroke: #ffffff; stroke-linejoin: miter"/>
   </g>
   <g id="patch_22">
    <path d="M 574.16813 243.695625 
L 598.051625 243.695625 
L 598.051625 240.716601 
L 574.16813 240.716601 
z
" clip-path="url(#p501af1827a)" style="fill: #0000ff; opacity: 0.4; stroke: #ffffff; stroke-linejoin: miter"/>
   </g>
   <g id="patch_23">
    <path d="M 598.051625 243.695625 
L 621.93512 243.695625 
L 621.93512 242.844475 
L 598.051625 242.844475 
z
" clip-path="url(#p501af1827a)" style="fill: #0000ff; opacity: 0.4; stroke: #ffffff; stroke-linejoin: miter"/>
   </g>
   <g id="patch_24">
    <path d="M 621.93512 243.695625 
L 645.818615 243.695625 
L 645.818615 243.695625 
L 621.93512 243.695625 
z
" clip-path="url(#p501af1827a)" style="fill: #0000ff; opacity: 0.4; stroke: #ffffff; stroke-linejoin: miter"/>
   </g>
   <g id="patch_25">
    <path d="M 645.818615 243.695625 
L 669.702111 243.695625 
L 669.702111 243.695625 
L 645.818615 243.695625 
z
" clip-path="url(#p501af1827a)" style="fill: #0000ff; opacity: 0.4; stroke: #ffffff; stroke-linejoin: miter"/>
   </g>
   <g id="patch_26">
    <path d="M 669.702111 243.695625 
L 693.585606 243.695625 
L 693.585606 243.695625 
L 669.702111 243.695625 
z
" clip-path="url(#p501af1827a)" style="fill: #0000ff; opacity: 0.4; stroke: #ffffff; stroke-linejoin: miter"/>
   </g>
   <g id="patch_27">
    <path d="M 693.585606 243.695625 
L 717.469101 243.695625 
L 717.469101 243.695625 
L 693.585606 243.695625 
z
" clip-path="url(#p501af1827a)" style="fill: #0000ff; opacity: 0.4; stroke: #ffffff; stroke-linejoin: miter"/>
   </g>
   <g id="patch_28">
    <path d="M 717.469101 243.695625 
L 741.352596 243.695625 
L 741.352596 242.418901 
L 717.469101 242.418901 
z
" clip-path="url(#p501af1827a)" style="fill: #0000ff; opacity: 0.4; stroke: #ffffff; stroke-linejoin: miter"/>
   </g>
   <g id="patch_29">
    <path d="M 741.352596 243.695625 
L 765.236091 243.695625 
L 765.236091 242.844475 
L 741.352596 242.844475 
z
" clip-path="url(#p501af1827a)" style="fill: #0000ff; opacity: 0.4; stroke: #ffffff; stroke-linejoin: miter"/>
   </g>
   <g id="patch_30">
    <path d="M 765.236091 243.695625 
L 789.119586 243.695625 
L 789.119586 243.695625 
L 765.236091 243.695625 
z
" clip-path="url(#p501af1827a)" style="fill: #0000ff; opacity: 0.4; stroke: #ffffff; stroke-linejoin: miter"/>
   </g>
   <g id="patch_31">
    <path d="M 789.119586 243.695625 
L 813.003082 243.695625 
L 813.003082 243.27005 
L 789.119586 243.27005 
z
" clip-path="url(#p501af1827a)" style="fill: #0000ff; opacity: 0.4; stroke: #ffffff; stroke-linejoin: miter"/>
   </g>
   <g id="patch_32">
    <path d="M 813.003082 243.695625 
L 836.886577 243.695625 
L 836.886577 243.27005 
L 813.003082 243.27005 
z
" clip-path="url(#p501af1827a)" style="fill: #0000ff; opacity: 0.4; stroke: #ffffff; stroke-linejoin: miter"/>
   </g>
   <g id="patch_33">
    <path d="M 122.515255 243.695625 
L 133.099668 243.695625 
L 133.099668 212.96602 
L 122.515255 212.96602 
z
" clip-path="url(#p501af1827a)" style="fill: #008000; opacity: 0.4; stroke: #ffffff; stroke-linejoin: miter"/>
   </g>
   <g id="patch_34">
    <path d="M 133.099668 243.695625 
L 143.684081 243.695625 
L 143.684081 152.467111 
L 133.099668 152.467111 
z
" clip-path="url(#p501af1827a)" style="fill: #008000; opacity: 0.4; stroke: #ffffff; stroke-linejoin: miter"/>
   </g>
   <g id="patch_35">
    <path d="M 143.684081 243.695625 
L 154.268495 243.695625 
L 154.268495 184.157016 
L 143.684081 184.157016 
z
" clip-path="url(#p501af1827a)" style="fill: #008000; opacity: 0.4; stroke: #ffffff; stroke-linejoin: miter"/>
   </g>
   <g id="patch_36">
    <path d="M 154.268495 243.695625 
L 164.852908 243.695625 
L 164.852908 194.720317 
L 154.268495 194.720317 
z
" clip-path="url(#p501af1827a)" style="fill: #008000; opacity: 0.4; stroke: #ffffff; stroke-linejoin: miter"/>
   </g>
   <g id="patch_37">
    <path d="M 164.852908 243.695625 
L 175.437322 243.695625 
L 175.437322 222.569022 
L 164.852908 222.569022 
z
" clip-path="url(#p501af1827a)" style="fill: #008000; opacity: 0.4; stroke: #ffffff; stroke-linejoin: miter"/>
   </g>
   <g id="patch_38">
    <path d="M 175.437322 243.695625 
L 186.021735 243.695625 
L 186.021735 221.608722 
L 175.437322 221.608722 
z
" clip-path="url(#p501af1827a)" style="fill: #008000; opacity: 0.4; stroke: #ffffff; stroke-linejoin: miter"/>
   </g>
   <g id="patch_39">
    <path d="M 186.021735 243.695625 
L 196.606149 243.695625 
L 196.606149 233.132323 
L 186.021735 233.132323 
z
" clip-path="url(#p501af1827a)" style="fill: #008000; opacity: 0.4; stroke: #ffffff; stroke-linejoin: miter"/>
   </g>
   <g id="patch_40">
    <path d="M 196.606149 243.695625 
L 207.190562 243.695625 
L 207.190562 239.854424 
L 196.606149 239.854424 
z
" clip-path="url(#p501af1827a)" style="fill: #008000; opacity: 0.4; stroke: #ffffff; stroke-linejoin: miter"/>
   </g>
   <g id="patch_41">
    <path d="M 207.190562 243.695625 
L 217.774976 243.695625 
L 217.774976 237.933824 
L 207.190562 237.933824 
z
" clip-path="url(#p501af1827a)" style="fill: #008000; opacity: 0.4; stroke: #ffffff; stroke-linejoin: miter"/>
   </g>
   <g id="patch_42">
    <path d="M 217.774976 243.695625 
L 228.359389 243.695625 
L 228.359389 235.052924 
L 217.774976 235.052924 
z
" clip-path="url(#p501af1827a)" style="fill: #008000; opacity: 0.4; stroke: #ffffff; stroke-linejoin: miter"/>
   </g>
   <g id="patch_43">
    <path d="M 228.359389 243.695625 
L 238.943803 243.695625 
L 238.943803 239.854424 
L 228.359389 239.854424 
z
" clip-path="url(#p501af1827a)" style="fill: #008000; opacity: 0.4; stroke: #ffffff; stroke-linejoin: miter"/>
   </g>
   <g id="patch_44">
    <path d="M 238.943803 243.695625 
L 249.528216 243.695625 
L 249.528216 242.735325 
L 238.943803 242.735325 
z
" clip-path="url(#p501af1827a)" style="fill: #008000; opacity: 0.4; stroke: #ffffff; stroke-linejoin: miter"/>
   </g>
   <g id="patch_45">
    <path d="M 249.528216 243.695625 
L 260.112629 243.695625 
L 260.112629 239.854424 
L 249.528216 239.854424 
z
" clip-path="url(#p501af1827a)" style="fill: #008000; opacity: 0.4; stroke: #ffffff; stroke-linejoin: miter"/>
   </g>
   <g id="patch_46">
    <path d="M 260.112629 243.695625 
L 270.697043 243.695625 
L 270.697043 236.973524 
L 260.112629 236.973524 
z
" clip-path="url(#p501af1827a)" style="fill: #008000; opacity: 0.4; stroke: #ffffff; stroke-linejoin: miter"/>
   </g>
   <g id="patch_47">
    <path d="M 270.697043 243.695625 
L 281.281456 243.695625 
L 281.281456 241.775025 
L 270.697043 241.775025 
z
" clip-path="url(#p501af1827a)" style="fill: #008000; opacity: 0.4; stroke: #ffffff; stroke-linejoin: miter"/>
   </g>
   <g id="patch_48">
    <path d="M 281.281456 243.695625 
L 291.86587 243.695625 
L 291.86587 240.814725 
L 281.281456 240.814725 
z
" clip-path="url(#p501af1827a)" style="fill: #008000; opacity: 0.4; stroke: #ffffff; stroke-linejoin: miter"/>
   </g>
   <g id="patch_49">
    <path d="M 291.86587 243.695625 
L 302.450283 243.695625 
L 302.450283 241.775025 
L 291.86587 241.775025 
z
" clip-path="url(#p501af1827a)" style="fill: #008000; opacity: 0.4; stroke: #ffffff; stroke-linejoin: miter"/>
   </g>
   <g id="patch_50">
    <path d="M 302.450283 243.695625 
L 313.034697 243.695625 
L 313.034697 241.775025 
L 302.450283 241.775025 
z
" clip-path="url(#p501af1827a)" style="fill: #008000; opacity: 0.4; stroke: #ffffff; stroke-linejoin: miter"/>
   </g>
   <g id="patch_51">
    <path d="M 313.034697 243.695625 
L 323.61911 243.695625 
L 323.61911 242.735325 
L 313.034697 242.735325 
z
" clip-path="url(#p501af1827a)" style="fill: #008000; opacity: 0.4; stroke: #ffffff; stroke-linejoin: miter"/>
   </g>
   <g id="patch_52">
    <path d="M 323.61911 243.695625 
L 334.203524 243.695625 
L 334.203524 242.735325 
L 323.61911 242.735325 
z
" clip-path="url(#p501af1827a)" style="fill: #008000; opacity: 0.4; stroke: #ffffff; stroke-linejoin: miter"/>
   </g>
   <g id="patch_53">
    <path d="M 334.203524 243.695625 
L 344.787937 243.695625 
L 344.787937 242.735325 
L 334.203524 242.735325 
z
" clip-path="url(#p501af1827a)" style="fill: #008000; opacity: 0.4; stroke: #ffffff; stroke-linejoin: miter"/>
   </g>
   <g id="patch_54">
    <path d="M 344.787937 243.695625 
L 355.372351 243.695625 
L 355.372351 241.775025 
L 344.787937 241.775025 
z
" clip-path="url(#p501af1827a)" style="fill: #008000; opacity: 0.4; stroke: #ffffff; stroke-linejoin: miter"/>
   </g>
   <g id="patch_55">
    <path d="M 355.372351 243.695625 
L 365.956764 243.695625 
L 365.956764 241.775025 
L 355.372351 241.775025 
z
" clip-path="url(#p501af1827a)" style="fill: #008000; opacity: 0.4; stroke: #ffffff; stroke-linejoin: miter"/>
   </g>
   <g id="patch_56">
    <path d="M 365.956764 243.695625 
L 376.541177 243.695625 
L 376.541177 243.695625 
L 365.956764 243.695625 
z
" clip-path="url(#p501af1827a)" style="fill: #008000; opacity: 0.4; stroke: #ffffff; stroke-linejoin: miter"/>
   </g>
   <g id="patch_57">
    <path d="M 376.541177 243.695625 
L 387.125591 243.695625 
L 387.125591 243.695625 
L 376.541177 243.695625 
z
" clip-path="url(#p501af1827a)" style="fill: #008000; opacity: 0.4; stroke: #ffffff; stroke-linejoin: miter"/>
   </g>
   <g id="patch_58">
    <path d="M 387.125591 243.695625 
L 397.710004 243.695625 
L 397.710004 242.735325 
L 387.125591 242.735325 
z
" clip-path="url(#p501af1827a)" style="fill: #008000; opacity: 0.4; stroke: #ffffff; stroke-linejoin: miter"/>
   </g>
   <g id="patch_59">
    <path d="M 397.710004 243.695625 
L 408.294418 243.695625 
L 408.294418 243.695625 
L 397.710004 243.695625 
z
" clip-path="url(#p501af1827a)" style="fill: #008000; opacity: 0.4; stroke: #ffffff; stroke-linejoin: miter"/>
   </g>
   <g id="patch_60">
    <path d="M 408.294418 243.695625 
L 418.878831 243.695625 
L 418.878831 243.695625 
L 408.294418 243.695625 
z
" clip-path="url(#p501af1827a)" style="fill: #008000; opacity: 0.4; stroke: #ffffff; stroke-linejoin: miter"/>
   </g>
   <g id="patch_61">
    <path d="M 418.878831 243.695625 
L 429.463245 243.695625 
L 429.463245 242.735325 
L 418.878831 242.735325 
z
" clip-path="url(#p501af1827a)" style="fill: #008000; opacity: 0.4; stroke: #ffffff; stroke-linejoin: miter"/>
   </g>
   <g id="patch_62">
    <path d="M 429.463245 243.695625 
L 440.047658 243.695625 
L 440.047658 243.695625 
L 429.463245 243.695625 
z
" clip-path="url(#p501af1827a)" style="fill: #008000; opacity: 0.4; stroke: #ffffff; stroke-linejoin: miter"/>
   </g>
   <g id="patch_63">
    <path d="M 440.047658 243.695625 
L 450.632072 243.695625 
L 450.632072 243.695625 
L 440.047658 243.695625 
z
" clip-path="url(#p501af1827a)" style="fill: #008000; opacity: 0.4; stroke: #ffffff; stroke-linejoin: miter"/>
   </g>
   <g id="patch_64">
    <path d="M 450.632072 243.695625 
L 461.216485 243.695625 
L 461.216485 242.735325 
L 450.632072 242.735325 
z
" clip-path="url(#p501af1827a)" style="fill: #008000; opacity: 0.4; stroke: #ffffff; stroke-linejoin: miter"/>
   </g>
   <g id="patch_65">
    <path d="M 461.216485 243.695625 
L 471.800898 243.695625 
L 471.800898 243.695625 
L 461.216485 243.695625 
z
" clip-path="url(#p501af1827a)" style="fill: #008000; opacity: 0.4; stroke: #ffffff; stroke-linejoin: miter"/>
   </g>
   <g id="patch_66">
    <path d="M 471.800898 243.695625 
L 482.385312 243.695625 
L 482.385312 241.775025 
L 471.800898 241.775025 
z
" clip-path="url(#p501af1827a)" style="fill: #008000; opacity: 0.4; stroke: #ffffff; stroke-linejoin: miter"/>
   </g>
   <g id="patch_67">
    <path d="M 116.90493 243.695625 
L 121.765657 243.695625 
L 121.765657 210.238199 
L 116.90493 210.238199 
z
" clip-path="url(#p501af1827a)" style="fill: #ff0000; opacity: 0.4; stroke: #ffffff; stroke-linejoin: miter"/>
   </g>
   <g id="patch_68">
    <path d="M 121.765657 243.695625 
L 126.626384 243.695625 
L 126.626384 32.495625 
L 121.765657 32.495625 
z
" clip-path="url(#p501af1827a)" style="fill: #ff0000; opacity: 0.4; stroke: #ffffff; stroke-linejoin: miter"/>
   </g>
   <g id="patch_69">
    <path d="M 126.626384 243.695625 
L 131.487112 243.695625 
L 131.487112 61.770873 
L 126.626384 61.770873 
z
" clip-path="url(#p501af1827a)" style="fill: #ff0000; opacity: 0.4; stroke: #ffffff; stroke-linejoin: miter"/>
   </g>
   <g id="patch_70">
    <path d="M 131.487112 243.695625 
L 136.347839 243.695625 
L 136.347839 134.958991 
L 131.487112 134.958991 
z
" clip-path="url(#p501af1827a)" style="fill: #ff0000; opacity: 0.4; stroke: #ffffff; stroke-linejoin: miter"/>
   </g>
   <g id="patch_71">
    <path d="M 136.347839 243.695625 
L 141.208566 243.695625 
L 141.208566 195.600575 
L 136.347839 195.600575 
z
" clip-path="url(#p501af1827a)" style="fill: #ff0000; opacity: 0.4; stroke: #ffffff; stroke-linejoin: miter"/>
   </g>
   <g id="patch_72">
    <path d="M 141.208566 243.695625 
L 146.069293 243.695625 
L 146.069293 210.238199 
L 141.208566 210.238199 
z
" clip-path="url(#p501af1827a)" style="fill: #ff0000; opacity: 0.4; stroke: #ffffff; stroke-linejoin: miter"/>
   </g>
   <g id="patch_73">
    <path d="M 146.069293 243.695625 
L 150.930021 243.695625 
L 150.930021 226.966912 
L 146.069293 226.966912 
z
" clip-path="url(#p501af1827a)" style="fill: #ff0000; opacity: 0.4; stroke: #ffffff; stroke-linejoin: miter"/>
   </g>
   <g id="patch_74">
    <path d="M 150.930021 243.695625 
L 155.790748 243.695625 
L 155.790748 222.784734 
L 150.930021 222.784734 
z
" clip-path="url(#p501af1827a)" style="fill: #ff0000; opacity: 0.4; stroke: #ffffff; stroke-linejoin: miter"/>
   </g>
   <g id="patch_75">
    <path d="M 155.790748 243.695625 
L 160.651475 243.695625 
L 160.651475 229.058001 
L 155.790748 229.058001 
z
" clip-path="url(#p501af1827a)" style="fill: #ff0000; opacity: 0.4; stroke: #ffffff; stroke-linejoin: miter"/>
   </g>
   <g id="patch_76">
    <path d="M 160.651475 243.695625 
L 165.512202 243.695625 
L 165.512202 235.331269 
L 160.651475 235.331269 
z
" clip-path="url(#p501af1827a)" style="fill: #ff0000; opacity: 0.4; stroke: #ffffff; stroke-linejoin: miter"/>
   </g>
   <g id="patch_77">
    <path d="M 165.512202 243.695625 
L 170.37293 243.695625 
L 170.37293 237.422358 
L 165.512202 237.422358 
z
" clip-path="url(#p501af1827a)" style="fill: #ff0000; opacity: 0.4; stroke: #ffffff; stroke-linejoin: miter"/>
   </g>
   <g id="patch_78">
    <path d="M 170.37293 243.695625 
L 175.233657 243.695625 
L 175.233657 233.240179 
L 170.37293 233.240179 
z
" clip-path="url(#p501af1827a)" style="fill: #ff0000; opacity: 0.4; stroke: #ffffff; stroke-linejoin: miter"/>
   </g>
   <g id="patch_79">
    <path d="M 175.233657 243.695625 
L 180.094384 243.695625 
L 180.094384 241.604536 
L 175.233657 241.604536 
z
" clip-path="url(#p501af1827a)" style="fill: #ff0000; opacity: 0.4; stroke: #ffffff; stroke-linejoin: miter"/>
   </g>
   <g id="patch_80">
    <path d="M 180.094384 243.695625 
L 184.955112 243.695625 
L 184.955112 239.513447 
L 180.094384 239.513447 
z
" clip-path="url(#p501af1827a)" style="fill: #ff0000; opacity: 0.4; stroke: #ffffff; stroke-linejoin: miter"/>
   </g>
   <g id="patch_81">
    <path d="M 184.955112 243.695625 
L 189.815839 243.695625 
L 189.815839 241.604536 
L 184.955112 241.604536 
z
" clip-path="url(#p501af1827a)" style="fill: #ff0000; opacity: 0.4; stroke: #ffffff; stroke-linejoin: miter"/>
   </g>
   <g id="patch_82">
    <path d="M 189.815839 243.695625 
L 194.676566 243.695625 
L 194.676566 243.695625 
L 189.815839 243.695625 
z
" clip-path="url(#p501af1827a)" style="fill: #ff0000; opacity: 0.4; stroke: #ffffff; stroke-linejoin: miter"/>
   </g>
   <g id="patch_83">
    <path d="M 194.676566 243.695625 
L 199.537293 243.695625 
L 199.537293 235.331269 
L 194.676566 235.331269 
z
" clip-path="url(#p501af1827a)" style="fill: #ff0000; opacity: 0.4; stroke: #ffffff; stroke-linejoin: miter"/>
   </g>
   <g id="patch_84">
    <path d="M 199.537293 243.695625 
L 204.398021 243.695625 
L 204.398021 241.604536 
L 199.537293 241.604536 
z
" clip-path="url(#p501af1827a)" style="fill: #ff0000; opacity: 0.4; stroke: #ffffff; stroke-linejoin: miter"/>
   </g>
   <g id="patch_85">
    <path d="M 204.398021 243.695625 
L 209.258748 243.695625 
L 209.258748 237.422358 
L 204.398021 237.422358 
z
" clip-path="url(#p501af1827a)" style="fill: #ff0000; opacity: 0.4; stroke: #ffffff; stroke-linejoin: miter"/>
   </g>
   <g id="patch_86">
    <path d="M 209.258748 243.695625 
L 214.119475 243.695625 
L 214.119475 243.695625 
L 209.258748 243.695625 
z
" clip-path="url(#p501af1827a)" style="fill: #ff0000; opacity: 0.4; stroke: #ffffff; stroke-linejoin: miter"/>
   </g>
   <g id="patch_87">
    <path d="M 214.119475 243.695625 
L 218.980202 243.695625 
L 218.980202 241.604536 
L 214.119475 241.604536 
z
" clip-path="url(#p501af1827a)" style="fill: #ff0000; opacity: 0.4; stroke: #ffffff; stroke-linejoin: miter"/>
   </g>
   <g id="patch_88">
    <path d="M 218.980202 243.695625 
L 223.84093 243.695625 
L 223.84093 243.695625 
L 218.980202 243.695625 
z
" clip-path="url(#p501af1827a)" style="fill: #ff0000; opacity: 0.4; stroke: #ffffff; stroke-linejoin: miter"/>
   </g>
   <g id="patch_89">
    <path d="M 223.84093 243.695625 
L 228.701657 243.695625 
L 228.701657 241.604536 
L 223.84093 241.604536 
z
" clip-path="url(#p501af1827a)" style="fill: #ff0000; opacity: 0.4; stroke: #ffffff; stroke-linejoin: miter"/>
   </g>
   <g id="patch_90">
    <path d="M 228.701657 243.695625 
L 233.562384 243.695625 
L 233.562384 239.513447 
L 228.701657 239.513447 
z
" clip-path="url(#p501af1827a)" style="fill: #ff0000; opacity: 0.4; stroke: #ffffff; stroke-linejoin: miter"/>
   </g>
   <g id="patch_91">
    <path d="M 233.562384 243.695625 
L 238.423111 243.695625 
L 238.423111 241.604536 
L 233.562384 241.604536 
z
" clip-path="url(#p501af1827a)" style="fill: #ff0000; opacity: 0.4; stroke: #ffffff; stroke-linejoin: miter"/>
   </g>
   <g id="patch_92">
    <path d="M 238.423111 243.695625 
L 243.283839 243.695625 
L 243.283839 243.695625 
L 238.423111 243.695625 
z
" clip-path="url(#p501af1827a)" style="fill: #ff0000; opacity: 0.4; stroke: #ffffff; stroke-linejoin: miter"/>
   </g>
   <g id="patch_93">
    <path d="M 243.283839 243.695625 
L 248.144566 243.695625 
L 248.144566 243.695625 
L 243.283839 243.695625 
z
" clip-path="url(#p501af1827a)" style="fill: #ff0000; opacity: 0.4; stroke: #ffffff; stroke-linejoin: miter"/>
   </g>
   <g id="patch_94">
    <path d="M 248.144566 243.695625 
L 253.005293 243.695625 
L 253.005293 243.695625 
L 248.144566 243.695625 
z
" clip-path="url(#p501af1827a)" style="fill: #ff0000; opacity: 0.4; stroke: #ffffff; stroke-linejoin: miter"/>
   </g>
   <g id="patch_95">
    <path d="M 253.005293 243.695625 
L 257.86602 243.695625 
L 257.86602 241.604536 
L 253.005293 241.604536 
z
" clip-path="url(#p501af1827a)" style="fill: #ff0000; opacity: 0.4; stroke: #ffffff; stroke-linejoin: miter"/>
   </g>
   <g id="patch_96">
    <path d="M 257.86602 243.695625 
L 262.726748 243.695625 
L 262.726748 243.695625 
L 257.86602 243.695625 
z
" clip-path="url(#p501af1827a)" style="fill: #ff0000; opacity: 0.4; stroke: #ffffff; stroke-linejoin: miter"/>
   </g>
   <g id="patch_97">
    <path d="M 262.726748 243.695625 
L 267.587475 243.695625 
L 267.587475 241.604536 
L 262.726748 241.604536 
z
" clip-path="url(#p501af1827a)" style="fill: #ff0000; opacity: 0.4; stroke: #ffffff; stroke-linejoin: miter"/>
   </g>
   <g id="patch_98">
    <path d="M 267.587475 243.695625 
L 272.448202 243.695625 
L 272.448202 243.695625 
L 267.587475 243.695625 
z
" clip-path="url(#p501af1827a)" style="fill: #ff0000; opacity: 0.4; stroke: #ffffff; stroke-linejoin: miter"/>
   </g>
   <g id="patch_99">
    <path d="M 272.448202 243.695625 
L 277.308929 243.695625 
L 277.308929 243.695625 
L 272.448202 243.695625 
z
" clip-path="url(#p501af1827a)" style="fill: #ff0000; opacity: 0.4; stroke: #ffffff; stroke-linejoin: miter"/>
   </g>
   <g id="patch_100">
    <path d="M 277.308929 243.695625 
L 282.169657 243.695625 
L 282.169657 243.695625 
L 277.308929 243.695625 
z
" clip-path="url(#p501af1827a)" style="fill: #ff0000; opacity: 0.4; stroke: #ffffff; stroke-linejoin: miter"/>
   </g>
   <g id="patch_101">
    <path d="M 282.169657 243.695625 
L 287.030384 243.695625 
L 287.030384 243.695625 
L 282.169657 243.695625 
z
" clip-path="url(#p501af1827a)" style="fill: #ff0000; opacity: 0.4; stroke: #ffffff; stroke-linejoin: miter"/>
   </g>
   <g id="patch_102">
    <path d="M 287.030384 243.695625 
L 291.891111 243.695625 
L 291.891111 243.695625 
L 287.030384 243.695625 
z
" clip-path="url(#p501af1827a)" style="fill: #ff0000; opacity: 0.4; stroke: #ffffff; stroke-linejoin: miter"/>
   </g>
   <g id="patch_103">
    <path d="M 291.891111 243.695625 
L 296.751838 243.695625 
L 296.751838 243.695625 
L 291.891111 243.695625 
z
" clip-path="url(#p501af1827a)" style="fill: #ff0000; opacity: 0.4; stroke: #ffffff; stroke-linejoin: miter"/>
   </g>
   <g id="patch_104">
    <path d="M 296.751838 243.695625 
L 301.612566 243.695625 
L 301.612566 243.695625 
L 296.751838 243.695625 
z
" clip-path="url(#p501af1827a)" style="fill: #ff0000; opacity: 0.4; stroke: #ffffff; stroke-linejoin: miter"/>
   </g>
   <g id="patch_105">
    <path d="M 301.612566 243.695625 
L 306.473293 243.695625 
L 306.473293 243.695625 
L 301.612566 243.695625 
z
" clip-path="url(#p501af1827a)" style="fill: #ff0000; opacity: 0.4; stroke: #ffffff; stroke-linejoin: miter"/>
   </g>
   <g id="patch_106">
    <path d="M 306.473293 243.695625 
L 311.33402 243.695625 
L 311.33402 243.695625 
L 306.473293 243.695625 
z
" clip-path="url(#p501af1827a)" style="fill: #ff0000; opacity: 0.4; stroke: #ffffff; stroke-linejoin: miter"/>
   </g>
   <g id="patch_107">
    <path d="M 311.33402 243.695625 
L 316.194747 243.695625 
L 316.194747 243.695625 
L 311.33402 243.695625 
z
" clip-path="url(#p501af1827a)" style="fill: #ff0000; opacity: 0.4; stroke: #ffffff; stroke-linejoin: miter"/>
   </g>
   <g id="patch_108">
    <path d="M 316.194747 243.695625 
L 321.055475 243.695625 
L 321.055475 243.695625 
L 316.194747 243.695625 
z
" clip-path="url(#p501af1827a)" style="fill: #ff0000; opacity: 0.4; stroke: #ffffff; stroke-linejoin: miter"/>
   </g>
   <g id="patch_109">
    <path d="M 321.055475 243.695625 
L 325.916202 243.695625 
L 325.916202 243.695625 
L 321.055475 243.695625 
z
" clip-path="url(#p501af1827a)" style="fill: #ff0000; opacity: 0.4; stroke: #ffffff; stroke-linejoin: miter"/>
   </g>
   <g id="patch_110">
    <path d="M 325.916202 243.695625 
L 330.776929 243.695625 
L 330.776929 243.695625 
L 325.916202 243.695625 
z
" clip-path="url(#p501af1827a)" style="fill: #ff0000; opacity: 0.4; stroke: #ffffff; stroke-linejoin: miter"/>
   </g>
   <g id="patch_111">
    <path d="M 330.776929 243.695625 
L 335.637656 243.695625 
L 335.637656 243.695625 
L 330.776929 243.695625 
z
" clip-path="url(#p501af1827a)" style="fill: #ff0000; opacity: 0.4; stroke: #ffffff; stroke-linejoin: miter"/>
   </g>
   <g id="patch_112">
    <path d="M 335.637656 243.695625 
L 340.498384 243.695625 
L 340.498384 243.695625 
L 335.637656 243.695625 
z
" clip-path="url(#p501af1827a)" style="fill: #ff0000; opacity: 0.4; stroke: #ffffff; stroke-linejoin: miter"/>
   </g>
   <g id="patch_113">
    <path d="M 340.498384 243.695625 
L 345.359111 243.695625 
L 345.359111 243.695625 
L 340.498384 243.695625 
z
" clip-path="url(#p501af1827a)" style="fill: #ff0000; opacity: 0.4; stroke: #ffffff; stroke-linejoin: miter"/>
   </g>
   <g id="patch_114">
    <path d="M 345.359111 243.695625 
L 350.219838 243.695625 
L 350.219838 243.695625 
L 345.359111 243.695625 
z
" clip-path="url(#p501af1827a)" style="fill: #ff0000; opacity: 0.4; stroke: #ffffff; stroke-linejoin: miter"/>
   </g>
   <g id="patch_115">
    <path d="M 350.219838 243.695625 
L 355.080565 243.695625 
L 355.080565 243.695625 
L 350.219838 243.695625 
z
" clip-path="url(#p501af1827a)" style="fill: #ff0000; opacity: 0.4; stroke: #ffffff; stroke-linejoin: miter"/>
   </g>
   <g id="patch_116">
    <path d="M 355.080565 243.695625 
L 359.941293 243.695625 
L 359.941293 241.604536 
L 355.080565 241.604536 
z
" clip-path="url(#p501af1827a)" style="fill: #ff0000; opacity: 0.4; stroke: #ffffff; stroke-linejoin: miter"/>
   </g>
   <g id="line2d_12">
    <path d="M 75.977486 236.393376 
L 83.929019 234.166321 
L 91.880552 231.690826 
L 113.08464 224.924122 
L 118.385662 223.475713 
L 123.686684 222.230101 
L 128.987706 221.231008 
L 134.288728 220.51204 
L 139.58975 220.094462 
L 144.890772 219.985905 
L 150.191794 220.180101 
L 155.492816 220.657668 
L 160.793838 221.387836 
L 166.094859 222.33091 
L 174.046392 224.043973 
L 184.648436 226.631887 
L 197.900991 229.86763 
L 205.852524 231.618052 
L 213.804057 233.152582 
L 221.75559 234.454677 
L 229.707123 235.536172 
L 237.658656 236.427266 
L 248.2607 237.38607 
L 261.513255 238.339185 
L 280.066832 239.426846 
L 301.27092 240.464818 
L 322.475008 241.285659 
L 343.679096 241.863065 
L 367.533695 242.253365 
L 404.640849 242.571113 
L 502.709755 243.178354 
L 526.564354 243.034411 
L 587.526107 242.478115 
L 603.429173 242.599432 
L 603.429173 242.599432 
" clip-path="url(#p501af1827a)" style="fill: none; stroke: #0000ff; stroke-width: 1.5; stroke-linecap: round"/>
   </g>
   <g id="line2d_13">
    <path d="M 75.977486 243.6044 
L 82.879157 243.37534 
L 87.480271 243.013012 
L 92.081386 242.331076 
L 94.381943 241.81192 
L 96.6825 241.13618 
L 98.983057 240.272566 
L 101.283614 239.189033 
L 103.584171 237.854718 
L 105.884728 236.242343 
L 108.185285 234.33098 
L 110.485842 232.108972 
L 112.7864 229.57677 
L 115.086957 226.749351 
L 117.387514 223.657929 
L 121.988628 216.891913 
L 128.890299 206.446804 
L 131.190856 203.258757 
L 133.491414 200.376171 
L 135.791971 197.882714 
L 138.092528 195.847231 
L 140.393085 194.319925 
L 142.693642 193.329972 
L 144.994199 192.884743 
L 147.294756 192.970628 
L 149.595313 193.555282 
L 151.89587 194.590993 
L 154.196427 196.018749 
L 156.496985 197.772602 
L 158.797542 199.78389 
L 163.398656 204.312444 
L 172.600884 213.860717 
L 177.201999 218.283464 
L 181.803113 222.26388 
L 186.404227 225.744022 
L 191.005341 228.708446 
L 195.606455 231.166879 
L 200.20757 233.14877 
L 204.808684 234.703959 
L 209.409798 235.90191 
L 214.010912 236.824407 
L 220.912584 237.863398 
L 227.814255 238.651215 
L 234.715926 239.251192 
L 241.617598 239.647841 
L 248.519269 239.844798 
L 271.52484 240.259327 
L 283.027626 240.838039 
L 301.432082 241.774429 
L 315.235425 242.235228 
L 326.738211 242.403165 
L 361.246567 242.642717 
L 386.552695 243.226229 
L 404.957152 243.296109 
L 453.268852 243.258362 
L 473.973866 243.117383 
L 487.777208 243.255632 
L 517.684451 243.657024 
L 533.78835 243.69239 
L 533.78835 243.69239 
" clip-path="url(#p501af1827a)" style="fill: none; stroke: #008000; stroke-width: 1.5; stroke-linecap: round"/>
   </g>
   <g id="line2d_14">
    <path d="M 94.216186 243.643485 
L 97.114817 243.499463 
L 98.564133 243.332927 
L 100.013449 243.046031 
L 101.462765 242.568608 
L 102.912081 241.80135 
L 104.361397 240.610873 
L 105.810712 238.828062 
L 107.260028 236.252112 
L 108.709344 232.662649 
L 110.15866 227.841464 
L 111.607976 221.603726 
L 113.057292 213.836119 
L 114.506607 204.536634 
L 115.955923 193.848568 
L 118.854555 169.703875 
L 121.753187 145.643888 
L 123.202502 135.359992 
L 124.651818 127.118251 
L 126.101134 121.42329 
L 127.55045 118.585597 
L 128.999766 118.691409 
L 130.449082 121.602519 
L 131.898397 126.984173 
L 133.347713 134.354433 
L 134.797029 143.145567 
L 140.594292 181.467777 
L 142.043608 189.742979 
L 143.492924 197.035011 
L 144.94224 203.297647 
L 146.391556 208.5642 
L 147.840872 212.924799 
L 149.290187 216.503904 
L 150.739503 219.44021 
L 152.188819 221.870257 
L 153.638135 223.916359 
L 155.087451 225.678992 
L 157.986082 228.630268 
L 160.884714 231.052654 
L 163.783346 233.032527 
L 166.681977 234.601622 
L 169.580609 235.852069 
L 173.928557 237.428873 
L 178.276504 238.84623 
L 181.175136 239.623983 
L 184.073767 240.155681 
L 186.972399 240.387337 
L 189.871031 240.347206 
L 198.566926 239.860166 
L 201.465558 239.966905 
L 205.813505 240.431837 
L 214.5094 241.622977 
L 217.408032 241.840413 
L 220.306663 241.893528 
L 226.103927 241.663991 
L 230.451874 241.606508 
L 233.350506 241.787884 
L 237.698453 242.332792 
L 242.046401 242.887661 
L 244.945033 243.104138 
L 249.29298 243.149297 
L 262.336823 242.834623 
L 268.134086 243.047945 
L 279.728613 243.600042 
L 288.424508 243.690095 
L 340.599878 243.675251 
L 349.295773 243.496532 
L 359.440984 243.160637 
L 365.238247 243.276083 
L 376.832774 243.651357 
L 382.630037 243.689669 
L 382.630037 243.689669 
" clip-path="url(#p501af1827a)" style="fill: none; stroke: #ff0000; stroke-width: 1.5; stroke-linecap: round"/>
   </g>
   <g id="patch_117">
    <path d="M 37.932031 243.695625 
L 37.932031 21.935625 
" style="fill: none; stroke: #cccccc; stroke-width: 1.25; stroke-linejoin: miter; stroke-linecap: square"/>
   </g>
   <g id="patch_118">
    <path d="M 874.932031 243.695625 
L 874.932031 21.935625 
" style="fill: none; stroke: #cccccc; stroke-width: 1.25; stroke-linejoin: miter; stroke-linecap: square"/>
   </g>
   <g id="patch_119">
    <path d="M 37.932031 243.695625 
L 874.932031 243.695625 
" style="fill: none; stroke: #cccccc; stroke-width: 1.25; stroke-linejoin: miter; stroke-linecap: square"/>
   </g>
   <g id="patch_120">
    <path d="M 37.932031 21.935625 
L 874.932031 21.935625 
" style="fill: none; stroke: #cccccc; stroke-width: 1.25; stroke-linejoin: miter; stroke-linecap: square"/>
   </g>
   <g id="text_14">
    <!-- Kernel Density Estimation of Execution Time -->
    <g style="fill: #262626" transform="translate(338.384844 15.935625) scale(0.12 -0.12)">
     <defs>
      <path id="ArialMT-4b" d="M 469 0 
L 469 4581 
L 1075 4581 
L 1075 2309 
L 3350 4581 
L 4172 4581 
L 2250 2725 
L 4256 0 
L 3456 0 
L 1825 2319 
L 1075 1588 
L 1075 0 
L 469 0 
z
" transform="scale(0.015625)"/>
      <path id="ArialMT-72" d="M 416 0 
L 416 3319 
L 922 3319 
L 922 2816 
Q 1116 3169 1280 3281 
Q 1444 3394 1641 3394 
Q 1925 3394 2219 3213 
L 2025 2691 
Q 1819 2813 1613 2813 
Q 1428 2813 1281 2702 
Q 1134 2591 1072 2394 
Q 978 2094 978 1738 
L 978 0 
L 416 0 
z
" transform="scale(0.015625)"/>
      <path id="ArialMT-6c" d="M 409 0 
L 409 4581 
L 972 4581 
L 972 0 
L 409 0 
z
" transform="scale(0.015625)"/>
      <path id="ArialMT-61" d="M 2588 409 
Q 2275 144 1986 34 
Q 1697 -75 1366 -75 
Q 819 -75 525 192 
Q 231 459 231 875 
Q 231 1119 342 1320 
Q 453 1522 633 1644 
Q 813 1766 1038 1828 
Q 1203 1872 1538 1913 
Q 2219 1994 2541 2106 
Q 2544 2222 2544 2253 
Q 2544 2597 2384 2738 
Q 2169 2928 1744 2928 
Q 1347 2928 1158 2789 
Q 969 2650 878 2297 
L 328 2372 
Q 403 2725 575 2942 
Q 747 3159 1072 3276 
Q 1397 3394 1825 3394 
Q 2250 3394 2515 3294 
Q 2781 3194 2906 3042 
Q 3031 2891 3081 2659 
Q 3109 2516 3109 2141 
L 3109 1391 
Q 3109 606 3145 398 
Q 3181 191 3288 0 
L 2700 0 
Q 2613 175 2588 409 
z
M 2541 1666 
Q 2234 1541 1622 1453 
Q 1275 1403 1131 1340 
Q 988 1278 909 1158 
Q 831 1038 831 891 
Q 831 666 1001 516 
Q 1172 366 1500 366 
Q 1825 366 2078 508 
Q 2331 650 2450 897 
Q 2541 1088 2541 1459 
L 2541 1666 
z
" transform="scale(0.015625)"/>
      <path id="ArialMT-66" d="M 556 0 
L 556 2881 
L 59 2881 
L 59 3319 
L 556 3319 
L 556 3672 
Q 556 4006 616 4169 
Q 697 4388 901 4523 
Q 1106 4659 1475 4659 
Q 1713 4659 2000 4603 
L 1916 4113 
Q 1741 4144 1584 4144 
Q 1328 4144 1222 4034 
Q 1116 3925 1116 3625 
L 1116 3319 
L 1763 3319 
L 1763 2881 
L 1116 2881 
L 1116 0 
L 556 0 
z
" transform="scale(0.015625)"/>
     </defs>
     <use xlink:href="#ArialMT-4b"/>
     <use xlink:href="#ArialMT-65" x="66.699219"/>
     <use xlink:href="#ArialMT-72" x="122.314453"/>
     <use xlink:href="#ArialMT-6e" x="155.615234"/>
     <use xlink:href="#ArialMT-65" x="211.230469"/>
     <use xlink:href="#ArialMT-6c" x="266.845703"/>
     <use xlink:href="#ArialMT-20" x="289.0625"/>
     <use xlink:href="#ArialMT-44" x="316.845703"/>
     <use xlink:href="#ArialMT-65" x="389.0625"/>
     <use xlink:href="#ArialMT-6e" x="444.677734"/>
     <use xlink:href="#ArialMT-73" x="500.292969"/>
     <use xlink:href="#ArialMT-69" x="550.292969"/>
     <use xlink:href="#ArialMT-74" x="572.509766"/>
     <use xlink:href="#ArialMT-79" x="600.292969"/>
     <use xlink:href="#ArialMT-20" x="650.292969"/>
     <use xlink:href="#ArialMT-45" x="678.076172"/>
     <use xlink:href="#ArialMT-73" x="744.775391"/>
     <use xlink:href="#ArialMT-74" x="794.775391"/>
     <use xlink:href="#ArialMT-69" x="822.558594"/>
     <use xlink:href="#ArialMT-6d" x="844.775391"/>
     <use xlink:href="#ArialMT-61" x="928.076172"/>
     <use xlink:href="#ArialMT-74" x="983.691406"/>
     <use xlink:href="#ArialMT-69" x="1011.474609"/>
     <use xlink:href="#ArialMT-6f" x="1033.691406"/>
     <use xlink:href="#ArialMT-6e" x="1089.306641"/>
     <use xlink:href="#ArialMT-20" x="1144.921875"/>
     <use xlink:href="#ArialMT-6f" x="1172.705078"/>
     <use xlink:href="#ArialMT-66" x="1228.320312"/>
     <use xlink:href="#ArialMT-20" x="1256.103516"/>
     <use xlink:href="#ArialMT-45" x="1283.886719"/>
     <use xlink:href="#ArialMT-78" x="1350.585938"/>
     <use xlink:href="#ArialMT-65" x="1400.585938"/>
     <use xlink:href="#ArialMT-63" x="1456.201172"/>
     <use xlink:href="#ArialMT-75" x="1506.201172"/>
     <use xlink:href="#ArialMT-74" x="1561.816406"/>
     <use xlink:href="#ArialMT-69" x="1589.599609"/>
     <use xlink:href="#ArialMT-6f" x="1611.816406"/>
     <use xlink:href="#ArialMT-6e" x="1667.431641"/>
     <use xlink:href="#ArialMT-20" x="1723.046875"/>
     <use xlink:href="#ArialMT-54" x="1749.080078"/>
     <use xlink:href="#ArialMT-69" x="1806.414062"/>
     <use xlink:href="#ArialMT-6d" x="1828.630859"/>
     <use xlink:href="#ArialMT-65" x="1911.931641"/>
    </g>
   </g>
   <g id="legend_1">
    <g id="patch_121">
     <path d="M 761.119844 77.685 
L 867.232031 77.685 
Q 869.432031 77.685 869.432031 75.485 
L 869.432031 29.635625 
Q 869.432031 27.435625 867.232031 27.435625 
L 761.119844 27.435625 
Q 758.919844 27.435625 758.919844 29.635625 
L 758.919844 75.485 
Q 758.919844 77.685 761.119844 77.685 
z
" style="fill: #ffffff; opacity: 0.8; stroke: #cccccc; stroke-linejoin: miter"/>
    </g>
    <g id="patch_122">
     <path d="M 763.319844 39.709219 
L 785.319844 39.709219 
L 785.319844 32.009219 
L 763.319844 32.009219 
z
" style="fill: #0000ff; opacity: 0.4; stroke: #ffffff; stroke-linejoin: miter"/>
    </g>
    <g id="text_15">
     <!-- GPT-4 -->
     <g style="fill: #262626" transform="translate(794.119844 39.709219) scale(0.11 -0.11)">
      <defs>
       <path id="ArialMT-47" d="M 2638 1797 
L 2638 2334 
L 4578 2338 
L 4578 638 
Q 4131 281 3656 101 
Q 3181 -78 2681 -78 
Q 2006 -78 1454 211 
Q 903 500 622 1047 
Q 341 1594 341 2269 
Q 341 2938 620 3517 
Q 900 4097 1425 4378 
Q 1950 4659 2634 4659 
Q 3131 4659 3532 4498 
Q 3934 4338 4162 4050 
Q 4391 3763 4509 3300 
L 3963 3150 
Q 3859 3500 3706 3700 
Q 3553 3900 3268 4020 
Q 2984 4141 2638 4141 
Q 2222 4141 1919 4014 
Q 1616 3888 1430 3681 
Q 1244 3475 1141 3228 
Q 966 2803 966 2306 
Q 966 1694 1177 1281 
Q 1388 869 1791 669 
Q 2194 469 2647 469 
Q 3041 469 3416 620 
Q 3791 772 3984 944 
L 3984 1797 
L 2638 1797 
z
" transform="scale(0.015625)"/>
       <path id="ArialMT-50" d="M 494 0 
L 494 4581 
L 2222 4581 
Q 2678 4581 2919 4538 
Q 3256 4481 3484 4323 
Q 3713 4166 3852 3881 
Q 3991 3597 3991 3256 
Q 3991 2672 3619 2267 
Q 3247 1863 2275 1863 
L 1100 1863 
L 1100 0 
L 494 0 
z
M 1100 2403 
L 2284 2403 
Q 2872 2403 3119 2622 
Q 3366 2841 3366 3238 
Q 3366 3525 3220 3729 
Q 3075 3934 2838 4000 
Q 2684 4041 2272 4041 
L 1100 4041 
L 1100 2403 
z
" transform="scale(0.015625)"/>
       <path id="ArialMT-2d" d="M 203 1375 
L 203 1941 
L 1931 1941 
L 1931 1375 
L 203 1375 
z
" transform="scale(0.015625)"/>
      </defs>
      <use xlink:href="#ArialMT-47"/>
      <use xlink:href="#ArialMT-50" x="77.783203"/>
      <use xlink:href="#ArialMT-54" x="144.482422"/>
      <use xlink:href="#ArialMT-2d" x="200.066406"/>
      <use xlink:href="#ArialMT-34" x="233.367188"/>
     </g>
    </g>
    <g id="patch_123">
     <path d="M 763.319844 55.269062 
L 785.319844 55.269062 
L 785.319844 47.569062 
L 763.319844 47.569062 
z
" style="fill: #008000; opacity: 0.4; stroke: #ffffff; stroke-linejoin: miter"/>
    </g>
    <g id="text_16">
     <!-- GPT-4 Turbo -->
     <g style="fill: #262626" transform="translate(794.119844 55.269062) scale(0.11 -0.11)">
      <defs>
       <path id="ArialMT-62" d="M 941 0 
L 419 0 
L 419 4581 
L 981 4581 
L 981 2947 
Q 1338 3394 1891 3394 
Q 2197 3394 2470 3270 
Q 2744 3147 2920 2923 
Q 3097 2700 3197 2384 
Q 3297 2069 3297 1709 
Q 3297 856 2875 390 
Q 2453 -75 1863 -75 
Q 1275 -75 941 416 
L 941 0 
z
M 934 1684 
Q 934 1088 1097 822 
Q 1363 388 1816 388 
Q 2184 388 2453 708 
Q 2722 1028 2722 1663 
Q 2722 2313 2464 2622 
Q 2206 2931 1841 2931 
Q 1472 2931 1203 2611 
Q 934 2291 934 1684 
z
" transform="scale(0.015625)"/>
      </defs>
      <use xlink:href="#ArialMT-47"/>
      <use xlink:href="#ArialMT-50" x="77.783203"/>
      <use xlink:href="#ArialMT-54" x="144.482422"/>
      <use xlink:href="#ArialMT-2d" x="200.066406"/>
      <use xlink:href="#ArialMT-34" x="233.367188"/>
      <use xlink:href="#ArialMT-20" x="288.982422"/>
      <use xlink:href="#ArialMT-54" x="315.015625"/>
      <use xlink:href="#ArialMT-75" x="372.349609"/>
      <use xlink:href="#ArialMT-72" x="427.964844"/>
      <use xlink:href="#ArialMT-62" x="461.265625"/>
      <use xlink:href="#ArialMT-6f" x="516.880859"/>
     </g>
    </g>
    <g id="patch_124">
     <path d="M 763.319844 70.969844 
L 785.319844 70.969844 
L 785.319844 63.269844 
L 763.319844 63.269844 
z
" style="fill: #ff0000; opacity: 0.4; stroke: #ffffff; stroke-linejoin: miter"/>
    </g>
    <g id="text_17">
     <!-- GPT-4 Omega -->
     <g style="fill: #262626" transform="translate(794.119844 70.969844) scale(0.11 -0.11)">
      <defs>
       <path id="ArialMT-4f" d="M 309 2231 
Q 309 3372 921 4017 
Q 1534 4663 2503 4663 
Q 3138 4663 3647 4359 
Q 4156 4056 4423 3514 
Q 4691 2972 4691 2284 
Q 4691 1588 4409 1038 
Q 4128 488 3612 205 
Q 3097 -78 2500 -78 
Q 1853 -78 1343 234 
Q 834 547 571 1087 
Q 309 1628 309 2231 
z
M 934 2222 
Q 934 1394 1379 917 
Q 1825 441 2497 441 
Q 3181 441 3623 922 
Q 4066 1403 4066 2288 
Q 4066 2847 3877 3264 
Q 3688 3681 3323 3911 
Q 2959 4141 2506 4141 
Q 1863 4141 1398 3698 
Q 934 3256 934 2222 
z
" transform="scale(0.015625)"/>
       <path id="ArialMT-67" d="M 319 -275 
L 866 -356 
Q 900 -609 1056 -725 
Q 1266 -881 1628 -881 
Q 2019 -881 2231 -725 
Q 2444 -569 2519 -288 
Q 2563 -116 2559 434 
Q 2191 0 1641 0 
Q 956 0 581 494 
Q 206 988 206 1678 
Q 206 2153 378 2554 
Q 550 2956 876 3175 
Q 1203 3394 1644 3394 
Q 2231 3394 2613 2919 
L 2613 3319 
L 3131 3319 
L 3131 450 
Q 3131 -325 2973 -648 
Q 2816 -972 2473 -1159 
Q 2131 -1347 1631 -1347 
Q 1038 -1347 672 -1080 
Q 306 -813 319 -275 
z
M 784 1719 
Q 784 1066 1043 766 
Q 1303 466 1694 466 
Q 2081 466 2343 764 
Q 2606 1063 2606 1700 
Q 2606 2309 2336 2618 
Q 2066 2928 1684 2928 
Q 1309 2928 1046 2623 
Q 784 2319 784 1719 
z
" transform="scale(0.015625)"/>
      </defs>
      <use xlink:href="#ArialMT-47"/>
      <use xlink:href="#ArialMT-50" x="77.783203"/>
      <use xlink:href="#ArialMT-54" x="144.482422"/>
      <use xlink:href="#ArialMT-2d" x="200.066406"/>
      <use xlink:href="#ArialMT-34" x="233.367188"/>
      <use xlink:href="#ArialMT-20" x="288.982422"/>
      <use xlink:href="#ArialMT-4f" x="316.765625"/>
      <use xlink:href="#ArialMT-6d" x="394.548828"/>
      <use xlink:href="#ArialMT-65" x="477.849609"/>
      <use xlink:href="#ArialMT-67" x="533.464844"/>
      <use xlink:href="#ArialMT-61" x="589.080078"/>
     </g>
    </g>
   </g>
  </g>
 </g>
 <defs>
  <clipPath id="p501af1827a">
   <rect x="37.932031" y="21.935625" width="837" height="221.76"/>
  </clipPath>
 </defs>
</svg>
