<?xml version="1.0" encoding="utf-8" standalone="no"?>
<!DOCTYPE svg PUBLIC "-//W3C//DTD SVG 1.1//EN"
  "http://www.w3.org/Graphics/SVG/1.1/DTD/svg11.dtd">
<svg xmlns:xlink="http://www.w3.org/1999/xlink" width="1186.43875pt" height="291.021094pt" viewBox="0 0 1186.43875 291.021094" xmlns="http://www.w3.org/2000/svg" version="1.1">
 <metadata>
  <rdf:RDF xmlns:dc="http://purl.org/dc/elements/1.1/" xmlns:cc="http://creativecommons.org/ns#" xmlns:rdf="http://www.w3.org/1999/02/22-rdf-syntax-ns#">
   <cc:Work>
    <dc:type rdf:resource="http://purl.org/dc/dcmitype/StillImage"/>
    <dc:date>2024-05-28T11:56:06.138063</dc:date>
    <dc:format>image/svg+xml</dc:format>
    <dc:creator>
     <cc:Agent>
      <dc:title>Matplotlib v3.8.1, https://matplotlib.org/</dc:title>
     </cc:Agent>
    </dc:creator>
   </cc:Work>
  </rdf:RDF>
 </metadata>
 <defs>
  <style type="text/css">*{stroke-linejoin: round; stroke-linecap: butt}</style>
 </defs>
 <g id="figure_1">
  <g id="patch_1">
   <path d="M 0 291.021094 
L 1186.43875 291.021094 
L 1186.43875 0 
L 0 0 
z
" style="fill: #ffffff"/>
  </g>
  <g id="axes_1">
   <g id="patch_2">
    <path d="M 47.105 249.286875 
L 1049.53535 249.286875 
L 1049.53535 21.789375 
L 47.105 21.789375 
z
" style="fill: #ffffff"/>
   </g>
   <g id="matplotlib.axis_1">
    <g id="xtick_1">
     <g id="line2d_1">
      <path d="M 138.235032 249.286875 
L 138.235032 21.789375 
" clip-path="url(#p400867366e)" style="fill: none; stroke: #cccccc; stroke-linecap: round"/>
     </g>
     <g id="text_1">
      <!-- 0.0 -->
      <g style="fill: #262626" transform="translate(130.590032 266.660469) scale(0.11 -0.11)">
       <defs>
        <path id="ArialMT-30" d="M 266 2259 
Q 266 3072 433 3567 
Q 600 4063 929 4331 
Q 1259 4600 1759 4600 
Q 2128 4600 2406 4451 
Q 2684 4303 2865 4023 
Q 3047 3744 3150 3342 
Q 3253 2941 3253 2259 
Q 3253 1453 3087 958 
Q 2922 463 2592 192 
Q 2263 -78 1759 -78 
Q 1097 -78 719 397 
Q 266 969 266 2259 
z
M 844 2259 
Q 844 1131 1108 757 
Q 1372 384 1759 384 
Q 2147 384 2411 759 
Q 2675 1134 2675 2259 
Q 2675 3391 2411 3762 
Q 2147 4134 1753 4134 
Q 1366 4134 1134 3806 
Q 844 3388 844 2259 
z
" transform="scale(0.015625)"/>
        <path id="ArialMT-2e" d="M 581 0 
L 581 641 
L 1222 641 
L 1222 0 
L 581 0 
z
" transform="scale(0.015625)"/>
       </defs>
       <use xlink:href="#ArialMT-30"/>
       <use xlink:href="#ArialMT-2e" x="55.615234"/>
       <use xlink:href="#ArialMT-30" x="83.398438"/>
      </g>
     </g>
    </g>
    <g id="xtick_2">
     <g id="line2d_2">
      <path d="M 183.800048 249.286875 
L 183.800048 21.789375 
" clip-path="url(#p400867366e)" style="fill: none; stroke: #cccccc; stroke-linecap: round"/>
     </g>
     <g id="text_2">
      <!-- 0.5 -->
      <g style="fill: #262626" transform="translate(176.155048 266.660469) scale(0.11 -0.11)">
       <defs>
        <path id="ArialMT-35" d="M 266 1200 
L 856 1250 
Q 922 819 1161 601 
Q 1400 384 1738 384 
Q 2144 384 2425 690 
Q 2706 997 2706 1503 
Q 2706 1984 2436 2262 
Q 2166 2541 1728 2541 
Q 1456 2541 1237 2417 
Q 1019 2294 894 2097 
L 366 2166 
L 809 4519 
L 3088 4519 
L 3088 3981 
L 1259 3981 
L 1013 2750 
Q 1425 3038 1878 3038 
Q 2478 3038 2890 2622 
Q 3303 2206 3303 1553 
Q 3303 931 2941 478 
Q 2500 -78 1738 -78 
Q 1113 -78 717 272 
Q 322 622 266 1200 
z
" transform="scale(0.015625)"/>
       </defs>
       <use xlink:href="#ArialMT-30"/>
       <use xlink:href="#ArialMT-2e" x="55.615234"/>
       <use xlink:href="#ArialMT-35" x="83.398438"/>
      </g>
     </g>
    </g>
    <g id="xtick_3">
     <g id="line2d_3">
      <path d="M 229.365064 249.286875 
L 229.365064 21.789375 
" clip-path="url(#p400867366e)" style="fill: none; stroke: #cccccc; stroke-linecap: round"/>
     </g>
     <g id="text_3">
      <!-- 1.0 -->
      <g style="fill: #262626" transform="translate(221.720064 266.660469) scale(0.11 -0.11)">
       <defs>
        <path id="ArialMT-31" d="M 2384 0 
L 1822 0 
L 1822 3584 
Q 1619 3391 1289 3197 
Q 959 3003 697 2906 
L 697 3450 
Q 1169 3672 1522 3987 
Q 1875 4303 2022 4600 
L 2384 4600 
L 2384 0 
z
" transform="scale(0.015625)"/>
       </defs>
       <use xlink:href="#ArialMT-31"/>
       <use xlink:href="#ArialMT-2e" x="55.615234"/>
       <use xlink:href="#ArialMT-30" x="83.398438"/>
      </g>
     </g>
    </g>
    <g id="xtick_4">
     <g id="line2d_4">
      <path d="M 274.93008 249.286875 
L 274.93008 21.789375 
" clip-path="url(#p400867366e)" style="fill: none; stroke: #cccccc; stroke-linecap: round"/>
     </g>
     <g id="text_4">
      <!-- 1.5 -->
      <g style="fill: #262626" transform="translate(267.28508 266.660469) scale(0.11 -0.11)">
       <use xlink:href="#ArialMT-31"/>
       <use xlink:href="#ArialMT-2e" x="55.615234"/>
       <use xlink:href="#ArialMT-35" x="83.398438"/>
      </g>
     </g>
    </g>
    <g id="xtick_5">
     <g id="line2d_5">
      <path d="M 320.495095 249.286875 
L 320.495095 21.789375 
" clip-path="url(#p400867366e)" style="fill: none; stroke: #cccccc; stroke-linecap: round"/>
     </g>
     <g id="text_5">
      <!-- 2.0 -->
      <g style="fill: #262626" transform="translate(312.850095 266.660469) scale(0.11 -0.11)">
       <defs>
        <path id="ArialMT-32" d="M 3222 541 
L 3222 0 
L 194 0 
Q 188 203 259 391 
Q 375 700 629 1000 
Q 884 1300 1366 1694 
Q 2113 2306 2375 2664 
Q 2638 3022 2638 3341 
Q 2638 3675 2398 3904 
Q 2159 4134 1775 4134 
Q 1369 4134 1125 3890 
Q 881 3647 878 3216 
L 300 3275 
Q 359 3922 746 4261 
Q 1134 4600 1788 4600 
Q 2447 4600 2831 4234 
Q 3216 3869 3216 3328 
Q 3216 3053 3103 2787 
Q 2991 2522 2730 2228 
Q 2469 1934 1863 1422 
Q 1356 997 1212 845 
Q 1069 694 975 541 
L 3222 541 
z
" transform="scale(0.015625)"/>
       </defs>
       <use xlink:href="#ArialMT-32"/>
       <use xlink:href="#ArialMT-2e" x="55.615234"/>
       <use xlink:href="#ArialMT-30" x="83.398438"/>
      </g>
     </g>
    </g>
    <g id="xtick_6">
     <g id="line2d_6">
      <path d="M 366.060111 249.286875 
L 366.060111 21.789375 
" clip-path="url(#p400867366e)" style="fill: none; stroke: #cccccc; stroke-linecap: round"/>
     </g>
     <g id="text_6">
      <!-- 2.5 -->
      <g style="fill: #262626" transform="translate(358.415111 266.660469) scale(0.11 -0.11)">
       <use xlink:href="#ArialMT-32"/>
       <use xlink:href="#ArialMT-2e" x="55.615234"/>
       <use xlink:href="#ArialMT-35" x="83.398438"/>
      </g>
     </g>
    </g>
    <g id="xtick_7">
     <g id="line2d_7">
      <path d="M 411.625127 249.286875 
L 411.625127 21.789375 
" clip-path="url(#p400867366e)" style="fill: none; stroke: #cccccc; stroke-linecap: round"/>
     </g>
     <g id="text_7">
      <!-- 3.0 -->
      <g style="fill: #262626" transform="translate(403.980127 266.660469) scale(0.11 -0.11)">
       <defs>
        <path id="ArialMT-33" d="M 269 1209 
L 831 1284 
Q 928 806 1161 595 
Q 1394 384 1728 384 
Q 2125 384 2398 659 
Q 2672 934 2672 1341 
Q 2672 1728 2419 1979 
Q 2166 2231 1775 2231 
Q 1616 2231 1378 2169 
L 1441 2663 
Q 1497 2656 1531 2656 
Q 1891 2656 2178 2843 
Q 2466 3031 2466 3422 
Q 2466 3731 2256 3934 
Q 2047 4138 1716 4138 
Q 1388 4138 1169 3931 
Q 950 3725 888 3313 
L 325 3413 
Q 428 3978 793 4289 
Q 1159 4600 1703 4600 
Q 2078 4600 2393 4439 
Q 2709 4278 2876 4000 
Q 3044 3722 3044 3409 
Q 3044 3113 2884 2869 
Q 2725 2625 2413 2481 
Q 2819 2388 3044 2092 
Q 3269 1797 3269 1353 
Q 3269 753 2831 336 
Q 2394 -81 1725 -81 
Q 1122 -81 723 278 
Q 325 638 269 1209 
z
" transform="scale(0.015625)"/>
       </defs>
       <use xlink:href="#ArialMT-33"/>
       <use xlink:href="#ArialMT-2e" x="55.615234"/>
       <use xlink:href="#ArialMT-30" x="83.398438"/>
      </g>
     </g>
    </g>
    <g id="xtick_8">
     <g id="line2d_8">
      <path d="M 457.190143 249.286875 
L 457.190143 21.789375 
" clip-path="url(#p400867366e)" style="fill: none; stroke: #cccccc; stroke-linecap: round"/>
     </g>
     <g id="text_8">
      <!-- 3.5 -->
      <g style="fill: #262626" transform="translate(449.545143 266.660469) scale(0.11 -0.11)">
       <use xlink:href="#ArialMT-33"/>
       <use xlink:href="#ArialMT-2e" x="55.615234"/>
       <use xlink:href="#ArialMT-35" x="83.398438"/>
      </g>
     </g>
    </g>
    <g id="xtick_9">
     <g id="line2d_9">
      <path d="M 502.755159 249.286875 
L 502.755159 21.789375 
" clip-path="url(#p400867366e)" style="fill: none; stroke: #cccccc; stroke-linecap: round"/>
     </g>
     <g id="text_9">
      <!-- 4.0 -->
      <g style="fill: #262626" transform="translate(495.110159 266.660469) scale(0.11 -0.11)">
       <defs>
        <path id="ArialMT-34" d="M 2069 0 
L 2069 1097 
L 81 1097 
L 81 1613 
L 2172 4581 
L 2631 4581 
L 2631 1613 
L 3250 1613 
L 3250 1097 
L 2631 1097 
L 2631 0 
L 2069 0 
z
M 2069 1613 
L 2069 3678 
L 634 1613 
L 2069 1613 
z
" transform="scale(0.015625)"/>
       </defs>
       <use xlink:href="#ArialMT-34"/>
       <use xlink:href="#ArialMT-2e" x="55.615234"/>
       <use xlink:href="#ArialMT-30" x="83.398438"/>
      </g>
     </g>
    </g>
    <g id="xtick_10">
     <g id="line2d_10">
      <path d="M 548.320175 249.286875 
L 548.320175 21.789375 
" clip-path="url(#p400867366e)" style="fill: none; stroke: #cccccc; stroke-linecap: round"/>
     </g>
     <g id="text_10">
      <!-- 4.5 -->
      <g style="fill: #262626" transform="translate(540.675175 266.660469) scale(0.11 -0.11)">
       <use xlink:href="#ArialMT-34"/>
       <use xlink:href="#ArialMT-2e" x="55.615234"/>
       <use xlink:href="#ArialMT-35" x="83.398438"/>
      </g>
     </g>
    </g>
    <g id="xtick_11">
     <g id="line2d_11">
      <path d="M 593.885191 249.286875 
L 593.885191 21.789375 
" clip-path="url(#p400867366e)" style="fill: none; stroke: #cccccc; stroke-linecap: round"/>
     </g>
     <g id="text_11">
      <!-- 5.0 -->
      <g style="fill: #262626" transform="translate(586.240191 266.660469) scale(0.11 -0.11)">
       <use xlink:href="#ArialMT-35"/>
       <use xlink:href="#ArialMT-2e" x="55.615234"/>
       <use xlink:href="#ArialMT-30" x="83.398438"/>
      </g>
     </g>
    </g>
    <g id="xtick_12">
     <g id="line2d_12">
      <path d="M 639.450207 249.286875 
L 639.450207 21.789375 
" clip-path="url(#p400867366e)" style="fill: none; stroke: #cccccc; stroke-linecap: round"/>
     </g>
     <g id="text_12">
      <!-- 5.5 -->
      <g style="fill: #262626" transform="translate(631.805207 266.660469) scale(0.11 -0.11)">
       <use xlink:href="#ArialMT-35"/>
       <use xlink:href="#ArialMT-2e" x="55.615234"/>
       <use xlink:href="#ArialMT-35" x="83.398438"/>
      </g>
     </g>
    </g>
    <g id="xtick_13">
     <g id="line2d_13">
      <path d="M 685.015223 249.286875 
L 685.015223 21.789375 
" clip-path="url(#p400867366e)" style="fill: none; stroke: #cccccc; stroke-linecap: round"/>
     </g>
     <g id="text_13">
      <!-- 6.0 -->
      <g style="fill: #262626" transform="translate(677.370223 266.660469) scale(0.11 -0.11)">
       <defs>
        <path id="ArialMT-36" d="M 3184 3459 
L 2625 3416 
Q 2550 3747 2413 3897 
Q 2184 4138 1850 4138 
Q 1581 4138 1378 3988 
Q 1113 3794 959 3422 
Q 806 3050 800 2363 
Q 1003 2672 1297 2822 
Q 1591 2972 1913 2972 
Q 2475 2972 2870 2558 
Q 3266 2144 3266 1488 
Q 3266 1056 3080 686 
Q 2894 316 2569 119 
Q 2244 -78 1831 -78 
Q 1128 -78 684 439 
Q 241 956 241 2144 
Q 241 3472 731 4075 
Q 1159 4600 1884 4600 
Q 2425 4600 2770 4297 
Q 3116 3994 3184 3459 
z
M 888 1484 
Q 888 1194 1011 928 
Q 1134 663 1356 523 
Q 1578 384 1822 384 
Q 2178 384 2434 671 
Q 2691 959 2691 1453 
Q 2691 1928 2437 2201 
Q 2184 2475 1800 2475 
Q 1419 2475 1153 2201 
Q 888 1928 888 1484 
z
" transform="scale(0.015625)"/>
       </defs>
       <use xlink:href="#ArialMT-36"/>
       <use xlink:href="#ArialMT-2e" x="55.615234"/>
       <use xlink:href="#ArialMT-30" x="83.398438"/>
      </g>
     </g>
    </g>
    <g id="xtick_14">
     <g id="line2d_14">
      <path d="M 730.580239 249.286875 
L 730.580239 21.789375 
" clip-path="url(#p400867366e)" style="fill: none; stroke: #cccccc; stroke-linecap: round"/>
     </g>
     <g id="text_14">
      <!-- 6.5 -->
      <g style="fill: #262626" transform="translate(722.935239 266.660469) scale(0.11 -0.11)">
       <use xlink:href="#ArialMT-36"/>
       <use xlink:href="#ArialMT-2e" x="55.615234"/>
       <use xlink:href="#ArialMT-35" x="83.398438"/>
      </g>
     </g>
    </g>
    <g id="xtick_15">
     <g id="line2d_15">
      <path d="M 776.145255 249.286875 
L 776.145255 21.789375 
" clip-path="url(#p400867366e)" style="fill: none; stroke: #cccccc; stroke-linecap: round"/>
     </g>
     <g id="text_15">
      <!-- 7.0 -->
      <g style="fill: #262626" transform="translate(768.500255 266.660469) scale(0.11 -0.11)">
       <defs>
        <path id="ArialMT-37" d="M 303 3981 
L 303 4522 
L 3269 4522 
L 3269 4084 
Q 2831 3619 2401 2847 
Q 1972 2075 1738 1259 
Q 1569 684 1522 0 
L 944 0 
Q 953 541 1156 1306 
Q 1359 2072 1739 2783 
Q 2119 3494 2547 3981 
L 303 3981 
z
" transform="scale(0.015625)"/>
       </defs>
       <use xlink:href="#ArialMT-37"/>
       <use xlink:href="#ArialMT-2e" x="55.615234"/>
       <use xlink:href="#ArialMT-30" x="83.398438"/>
      </g>
     </g>
    </g>
    <g id="xtick_16">
     <g id="line2d_16">
      <path d="M 821.71027 249.286875 
L 821.71027 21.789375 
" clip-path="url(#p400867366e)" style="fill: none; stroke: #cccccc; stroke-linecap: round"/>
     </g>
     <g id="text_16">
      <!-- 7.5 -->
      <g style="fill: #262626" transform="translate(814.06527 266.660469) scale(0.11 -0.11)">
       <use xlink:href="#ArialMT-37"/>
       <use xlink:href="#ArialMT-2e" x="55.615234"/>
       <use xlink:href="#ArialMT-35" x="83.398438"/>
      </g>
     </g>
    </g>
    <g id="xtick_17">
     <g id="line2d_17">
      <path d="M 867.275286 249.286875 
L 867.275286 21.789375 
" clip-path="url(#p400867366e)" style="fill: none; stroke: #cccccc; stroke-linecap: round"/>
     </g>
     <g id="text_17">
      <!-- 8.0 -->
      <g style="fill: #262626" transform="translate(859.630286 266.660469) scale(0.11 -0.11)">
       <defs>
        <path id="ArialMT-38" d="M 1131 2484 
Q 781 2613 612 2850 
Q 444 3088 444 3419 
Q 444 3919 803 4259 
Q 1163 4600 1759 4600 
Q 2359 4600 2725 4251 
Q 3091 3903 3091 3403 
Q 3091 3084 2923 2848 
Q 2756 2613 2416 2484 
Q 2838 2347 3058 2040 
Q 3278 1734 3278 1309 
Q 3278 722 2862 322 
Q 2447 -78 1769 -78 
Q 1091 -78 675 323 
Q 259 725 259 1325 
Q 259 1772 486 2073 
Q 713 2375 1131 2484 
z
M 1019 3438 
Q 1019 3113 1228 2906 
Q 1438 2700 1772 2700 
Q 2097 2700 2305 2904 
Q 2513 3109 2513 3406 
Q 2513 3716 2298 3927 
Q 2084 4138 1766 4138 
Q 1444 4138 1231 3931 
Q 1019 3725 1019 3438 
z
M 838 1322 
Q 838 1081 952 856 
Q 1066 631 1291 507 
Q 1516 384 1775 384 
Q 2178 384 2440 643 
Q 2703 903 2703 1303 
Q 2703 1709 2433 1975 
Q 2163 2241 1756 2241 
Q 1359 2241 1098 1978 
Q 838 1716 838 1322 
z
" transform="scale(0.015625)"/>
       </defs>
       <use xlink:href="#ArialMT-38"/>
       <use xlink:href="#ArialMT-2e" x="55.615234"/>
       <use xlink:href="#ArialMT-30" x="83.398438"/>
      </g>
     </g>
    </g>
    <g id="xtick_18">
     <g id="line2d_18">
      <path d="M 912.840302 249.286875 
L 912.840302 21.789375 
" clip-path="url(#p400867366e)" style="fill: none; stroke: #cccccc; stroke-linecap: round"/>
     </g>
     <g id="text_18">
      <!-- 8.5 -->
      <g style="fill: #262626" transform="translate(905.195302 266.660469) scale(0.11 -0.11)">
       <use xlink:href="#ArialMT-38"/>
       <use xlink:href="#ArialMT-2e" x="55.615234"/>
       <use xlink:href="#ArialMT-35" x="83.398438"/>
      </g>
     </g>
    </g>
    <g id="xtick_19">
     <g id="line2d_19">
      <path d="M 958.405318 249.286875 
L 958.405318 21.789375 
" clip-path="url(#p400867366e)" style="fill: none; stroke: #cccccc; stroke-linecap: round"/>
     </g>
     <g id="text_19">
      <!-- 9.0 -->
      <g style="fill: #262626" transform="translate(950.760318 266.660469) scale(0.11 -0.11)">
       <defs>
        <path id="ArialMT-39" d="M 350 1059 
L 891 1109 
Q 959 728 1153 556 
Q 1347 384 1650 384 
Q 1909 384 2104 503 
Q 2300 622 2425 820 
Q 2550 1019 2634 1356 
Q 2719 1694 2719 2044 
Q 2719 2081 2716 2156 
Q 2547 1888 2255 1720 
Q 1963 1553 1622 1553 
Q 1053 1553 659 1965 
Q 266 2378 266 3053 
Q 266 3750 677 4175 
Q 1088 4600 1706 4600 
Q 2153 4600 2523 4359 
Q 2894 4119 3086 3673 
Q 3278 3228 3278 2384 
Q 3278 1506 3087 986 
Q 2897 466 2520 194 
Q 2144 -78 1638 -78 
Q 1100 -78 759 220 
Q 419 519 350 1059 
z
M 2653 3081 
Q 2653 3566 2395 3850 
Q 2138 4134 1775 4134 
Q 1400 4134 1122 3828 
Q 844 3522 844 3034 
Q 844 2597 1108 2323 
Q 1372 2050 1759 2050 
Q 2150 2050 2401 2323 
Q 2653 2597 2653 3081 
z
" transform="scale(0.015625)"/>
       </defs>
       <use xlink:href="#ArialMT-39"/>
       <use xlink:href="#ArialMT-2e" x="55.615234"/>
       <use xlink:href="#ArialMT-30" x="83.398438"/>
      </g>
     </g>
    </g>
    <g id="xtick_20">
     <g id="line2d_20">
      <path d="M 1003.970334 249.286875 
L 1003.970334 21.789375 
" clip-path="url(#p400867366e)" style="fill: none; stroke: #cccccc; stroke-linecap: round"/>
     </g>
     <g id="text_20">
      <!-- 9.5 -->
      <g style="fill: #262626" transform="translate(996.325334 266.660469) scale(0.11 -0.11)">
       <use xlink:href="#ArialMT-39"/>
       <use xlink:href="#ArialMT-2e" x="55.615234"/>
       <use xlink:href="#ArialMT-35" x="83.398438"/>
      </g>
     </g>
    </g>
    <g id="xtick_21">
     <g id="line2d_21">
      <path d="M 1049.53535 249.286875 
L 1049.53535 21.789375 
" clip-path="url(#p400867366e)" style="fill: none; stroke: #cccccc; stroke-linecap: round"/>
     </g>
     <g id="text_21">
      <!-- 10.0 -->
      <g style="fill: #262626" transform="translate(1038.831834 266.660469) scale(0.11 -0.11)">
       <use xlink:href="#ArialMT-31"/>
       <use xlink:href="#ArialMT-30" x="55.615234"/>
       <use xlink:href="#ArialMT-2e" x="111.230469"/>
       <use xlink:href="#ArialMT-30" x="139.013672"/>
      </g>
     </g>
    </g>
    <g id="text_22">
     <!-- Execution Time -->
     <g style="fill: #262626" transform="translate(507.302675 281.436094) scale(0.12 -0.12)">
      <defs>
       <path id="ArialMT-45" d="M 506 0 
L 506 4581 
L 3819 4581 
L 3819 4041 
L 1113 4041 
L 1113 2638 
L 3647 2638 
L 3647 2100 
L 1113 2100 
L 1113 541 
L 3925 541 
L 3925 0 
L 506 0 
z
" transform="scale(0.015625)"/>
       <path id="ArialMT-78" d="M 47 0 
L 1259 1725 
L 138 3319 
L 841 3319 
L 1350 2541 
Q 1494 2319 1581 2169 
Q 1719 2375 1834 2534 
L 2394 3319 
L 3066 3319 
L 1919 1756 
L 3153 0 
L 2463 0 
L 1781 1031 
L 1600 1309 
L 728 0 
L 47 0 
z
" transform="scale(0.015625)"/>
       <path id="ArialMT-65" d="M 2694 1069 
L 3275 997 
Q 3138 488 2766 206 
Q 2394 -75 1816 -75 
Q 1088 -75 661 373 
Q 234 822 234 1631 
Q 234 2469 665 2931 
Q 1097 3394 1784 3394 
Q 2450 3394 2872 2941 
Q 3294 2488 3294 1666 
Q 3294 1616 3291 1516 
L 816 1516 
Q 847 969 1125 678 
Q 1403 388 1819 388 
Q 2128 388 2347 550 
Q 2566 713 2694 1069 
z
M 847 1978 
L 2700 1978 
Q 2663 2397 2488 2606 
Q 2219 2931 1791 2931 
Q 1403 2931 1139 2672 
Q 875 2413 847 1978 
z
" transform="scale(0.015625)"/>
       <path id="ArialMT-63" d="M 2588 1216 
L 3141 1144 
Q 3050 572 2676 248 
Q 2303 -75 1759 -75 
Q 1078 -75 664 370 
Q 250 816 250 1647 
Q 250 2184 428 2587 
Q 606 2991 970 3192 
Q 1334 3394 1763 3394 
Q 2303 3394 2647 3120 
Q 2991 2847 3088 2344 
L 2541 2259 
Q 2463 2594 2264 2762 
Q 2066 2931 1784 2931 
Q 1359 2931 1093 2626 
Q 828 2322 828 1663 
Q 828 994 1084 691 
Q 1341 388 1753 388 
Q 2084 388 2306 591 
Q 2528 794 2588 1216 
z
" transform="scale(0.015625)"/>
       <path id="ArialMT-75" d="M 2597 0 
L 2597 488 
Q 2209 -75 1544 -75 
Q 1250 -75 995 37 
Q 741 150 617 320 
Q 494 491 444 738 
Q 409 903 409 1263 
L 409 3319 
L 972 3319 
L 972 1478 
Q 972 1038 1006 884 
Q 1059 663 1231 536 
Q 1403 409 1656 409 
Q 1909 409 2131 539 
Q 2353 669 2445 892 
Q 2538 1116 2538 1541 
L 2538 3319 
L 3100 3319 
L 3100 0 
L 2597 0 
z
" transform="scale(0.015625)"/>
       <path id="ArialMT-74" d="M 1650 503 
L 1731 6 
Q 1494 -44 1306 -44 
Q 1000 -44 831 53 
Q 663 150 594 308 
Q 525 466 525 972 
L 525 2881 
L 113 2881 
L 113 3319 
L 525 3319 
L 525 4141 
L 1084 4478 
L 1084 3319 
L 1650 3319 
L 1650 2881 
L 1084 2881 
L 1084 941 
Q 1084 700 1114 631 
Q 1144 563 1211 522 
Q 1278 481 1403 481 
Q 1497 481 1650 503 
z
" transform="scale(0.015625)"/>
       <path id="ArialMT-69" d="M 425 3934 
L 425 4581 
L 988 4581 
L 988 3934 
L 425 3934 
z
M 425 0 
L 425 3319 
L 988 3319 
L 988 0 
L 425 0 
z
" transform="scale(0.015625)"/>
       <path id="ArialMT-6f" d="M 213 1659 
Q 213 2581 725 3025 
Q 1153 3394 1769 3394 
Q 2453 3394 2887 2945 
Q 3322 2497 3322 1706 
Q 3322 1066 3130 698 
Q 2938 331 2570 128 
Q 2203 -75 1769 -75 
Q 1072 -75 642 372 
Q 213 819 213 1659 
z
M 791 1659 
Q 791 1022 1069 705 
Q 1347 388 1769 388 
Q 2188 388 2466 706 
Q 2744 1025 2744 1678 
Q 2744 2294 2464 2611 
Q 2184 2928 1769 2928 
Q 1347 2928 1069 2612 
Q 791 2297 791 1659 
z
" transform="scale(0.015625)"/>
       <path id="ArialMT-6e" d="M 422 0 
L 422 3319 
L 928 3319 
L 928 2847 
Q 1294 3394 1984 3394 
Q 2284 3394 2536 3286 
Q 2788 3178 2913 3003 
Q 3038 2828 3088 2588 
Q 3119 2431 3119 2041 
L 3119 0 
L 2556 0 
L 2556 2019 
Q 2556 2363 2490 2533 
Q 2425 2703 2258 2804 
Q 2091 2906 1866 2906 
Q 1506 2906 1245 2678 
Q 984 2450 984 1813 
L 984 0 
L 422 0 
z
" transform="scale(0.015625)"/>
       <path id="ArialMT-20" transform="scale(0.015625)"/>
       <path id="ArialMT-54" d="M 1659 0 
L 1659 4041 
L 150 4041 
L 150 4581 
L 3781 4581 
L 3781 4041 
L 2266 4041 
L 2266 0 
L 1659 0 
z
" transform="scale(0.015625)"/>
       <path id="ArialMT-6d" d="M 422 0 
L 422 3319 
L 925 3319 
L 925 2853 
Q 1081 3097 1340 3245 
Q 1600 3394 1931 3394 
Q 2300 3394 2536 3241 
Q 2772 3088 2869 2813 
Q 3263 3394 3894 3394 
Q 4388 3394 4653 3120 
Q 4919 2847 4919 2278 
L 4919 0 
L 4359 0 
L 4359 2091 
Q 4359 2428 4304 2576 
Q 4250 2725 4106 2815 
Q 3963 2906 3769 2906 
Q 3419 2906 3187 2673 
Q 2956 2441 2956 1928 
L 2956 0 
L 2394 0 
L 2394 2156 
Q 2394 2531 2256 2718 
Q 2119 2906 1806 2906 
Q 1569 2906 1367 2781 
Q 1166 2656 1075 2415 
Q 984 2175 984 1722 
L 984 0 
L 422 0 
z
" transform="scale(0.015625)"/>
      </defs>
      <use xlink:href="#ArialMT-45"/>
      <use xlink:href="#ArialMT-78" x="66.699219"/>
      <use xlink:href="#ArialMT-65" x="116.699219"/>
      <use xlink:href="#ArialMT-63" x="172.314453"/>
      <use xlink:href="#ArialMT-75" x="222.314453"/>
      <use xlink:href="#ArialMT-74" x="277.929688"/>
      <use xlink:href="#ArialMT-69" x="305.712891"/>
      <use xlink:href="#ArialMT-6f" x="327.929688"/>
      <use xlink:href="#ArialMT-6e" x="383.544922"/>
      <use xlink:href="#ArialMT-20" x="439.160156"/>
      <use xlink:href="#ArialMT-54" x="465.193359"/>
      <use xlink:href="#ArialMT-69" x="522.527344"/>
      <use xlink:href="#ArialMT-6d" x="544.744141"/>
      <use xlink:href="#ArialMT-65" x="628.044922"/>
     </g>
    </g>
   </g>
   <g id="matplotlib.axis_2">
    <g id="ytick_1">
     <g id="line2d_22">
      <path d="M 47.105 249.286875 
L 1049.53535 249.286875 
" clip-path="url(#p400867366e)" style="fill: none; stroke: #cccccc; stroke-linecap: round"/>
     </g>
     <g id="text_23">
      <!-- 0.0 -->
      <g style="fill: #262626" transform="translate(22.315 253.223672) scale(0.11 -0.11)">
       <use xlink:href="#ArialMT-30"/>
       <use xlink:href="#ArialMT-2e" x="55.615234"/>
       <use xlink:href="#ArialMT-30" x="83.398438"/>
      </g>
     </g>
    </g>
    <g id="ytick_2">
     <g id="line2d_23">
      <path d="M 47.105 199.949247 
L 1049.53535 199.949247 
" clip-path="url(#p400867366e)" style="fill: none; stroke: #cccccc; stroke-linecap: round"/>
     </g>
     <g id="text_24">
      <!-- 0.2 -->
      <g style="fill: #262626" transform="translate(22.315 203.886043) scale(0.11 -0.11)">
       <use xlink:href="#ArialMT-30"/>
       <use xlink:href="#ArialMT-2e" x="55.615234"/>
       <use xlink:href="#ArialMT-32" x="83.398438"/>
      </g>
     </g>
    </g>
    <g id="ytick_3">
     <g id="line2d_24">
      <path d="M 47.105 150.611618 
L 1049.53535 150.611618 
" clip-path="url(#p400867366e)" style="fill: none; stroke: #cccccc; stroke-linecap: round"/>
     </g>
     <g id="text_25">
      <!-- 0.4 -->
      <g style="fill: #262626" transform="translate(22.315 154.548415) scale(0.11 -0.11)">
       <use xlink:href="#ArialMT-30"/>
       <use xlink:href="#ArialMT-2e" x="55.615234"/>
       <use xlink:href="#ArialMT-34" x="83.398438"/>
      </g>
     </g>
    </g>
    <g id="ytick_4">
     <g id="line2d_25">
      <path d="M 47.105 101.27399 
L 1049.53535 101.27399 
" clip-path="url(#p400867366e)" style="fill: none; stroke: #cccccc; stroke-linecap: round"/>
     </g>
     <g id="text_26">
      <!-- 0.6 -->
      <g style="fill: #262626" transform="translate(22.315 105.210787) scale(0.11 -0.11)">
       <use xlink:href="#ArialMT-30"/>
       <use xlink:href="#ArialMT-2e" x="55.615234"/>
       <use xlink:href="#ArialMT-36" x="83.398438"/>
      </g>
     </g>
    </g>
    <g id="ytick_5">
     <g id="line2d_26">
      <path d="M 47.105 51.936361 
L 1049.53535 51.936361 
" clip-path="url(#p400867366e)" style="fill: none; stroke: #cccccc; stroke-linecap: round"/>
     </g>
     <g id="text_27">
      <!-- 0.8 -->
      <g style="fill: #262626" transform="translate(22.315 55.873158) scale(0.11 -0.11)">
       <use xlink:href="#ArialMT-30"/>
       <use xlink:href="#ArialMT-2e" x="55.615234"/>
       <use xlink:href="#ArialMT-38" x="83.398438"/>
      </g>
     </g>
    </g>
    <g id="text_28">
     <!-- Density -->
     <g style="fill: #262626" transform="translate(15.789375 155.544375) rotate(-90) scale(0.12 -0.12)">
      <defs>
       <path id="ArialMT-44" d="M 494 0 
L 494 4581 
L 2072 4581 
Q 2606 4581 2888 4516 
Q 3281 4425 3559 4188 
Q 3922 3881 4101 3404 
Q 4281 2928 4281 2316 
Q 4281 1794 4159 1391 
Q 4038 988 3847 723 
Q 3656 459 3429 307 
Q 3203 156 2883 78 
Q 2563 0 2147 0 
L 494 0 
z
M 1100 541 
L 2078 541 
Q 2531 541 2789 625 
Q 3047 709 3200 863 
Q 3416 1078 3536 1442 
Q 3656 1806 3656 2325 
Q 3656 3044 3420 3430 
Q 3184 3816 2847 3947 
Q 2603 4041 2063 4041 
L 1100 4041 
L 1100 541 
z
" transform="scale(0.015625)"/>
       <path id="ArialMT-73" d="M 197 991 
L 753 1078 
Q 800 744 1014 566 
Q 1228 388 1613 388 
Q 2000 388 2187 545 
Q 2375 703 2375 916 
Q 2375 1106 2209 1216 
Q 2094 1291 1634 1406 
Q 1016 1563 777 1677 
Q 538 1791 414 1992 
Q 291 2194 291 2438 
Q 291 2659 392 2848 
Q 494 3038 669 3163 
Q 800 3259 1026 3326 
Q 1253 3394 1513 3394 
Q 1903 3394 2198 3281 
Q 2494 3169 2634 2976 
Q 2775 2784 2828 2463 
L 2278 2388 
Q 2241 2644 2061 2787 
Q 1881 2931 1553 2931 
Q 1166 2931 1000 2803 
Q 834 2675 834 2503 
Q 834 2394 903 2306 
Q 972 2216 1119 2156 
Q 1203 2125 1616 2013 
Q 2213 1853 2448 1751 
Q 2684 1650 2818 1456 
Q 2953 1263 2953 975 
Q 2953 694 2789 445 
Q 2625 197 2315 61 
Q 2006 -75 1616 -75 
Q 969 -75 630 194 
Q 291 463 197 991 
z
" transform="scale(0.015625)"/>
       <path id="ArialMT-79" d="M 397 -1278 
L 334 -750 
Q 519 -800 656 -800 
Q 844 -800 956 -737 
Q 1069 -675 1141 -563 
Q 1194 -478 1313 -144 
Q 1328 -97 1363 -6 
L 103 3319 
L 709 3319 
L 1400 1397 
Q 1534 1031 1641 628 
Q 1738 1016 1872 1384 
L 2581 3319 
L 3144 3319 
L 1881 -56 
Q 1678 -603 1566 -809 
Q 1416 -1088 1222 -1217 
Q 1028 -1347 759 -1347 
Q 597 -1347 397 -1278 
z
" transform="scale(0.015625)"/>
      </defs>
      <use xlink:href="#ArialMT-44"/>
      <use xlink:href="#ArialMT-65" x="72.216797"/>
      <use xlink:href="#ArialMT-6e" x="127.832031"/>
      <use xlink:href="#ArialMT-73" x="183.447266"/>
      <use xlink:href="#ArialMT-69" x="233.447266"/>
      <use xlink:href="#ArialMT-74" x="255.664062"/>
      <use xlink:href="#ArialMT-79" x="283.447266"/>
     </g>
    </g>
   </g>
   <g id="PolyCollection_1">
    <defs>
     <path id="m1a753d9cab" d="M 160.293266 -41.824514 
L 160.293266 -41.734219 
L 162.046097 -41.734219 
L 163.798927 -41.734219 
L 165.551758 -41.734219 
L 167.304588 -41.734219 
L 169.057419 -41.734219 
L 170.810249 -41.734219 
L 172.56308 -41.734219 
L 174.31591 -41.734219 
L 176.068741 -41.734219 
L 177.821571 -41.734219 
L 179.574402 -41.734219 
L 181.327232 -41.734219 
L 183.080063 -41.734219 
L 184.832893 -41.734219 
L 186.585724 -41.734219 
L 188.338554 -41.734219 
L 190.091384 -41.734219 
L 191.844215 -41.734219 
L 193.597045 -41.734219 
L 195.349876 -41.734219 
L 197.102706 -41.734219 
L 198.855537 -41.734219 
L 200.608367 -41.734219 
L 202.361198 -41.734219 
L 204.114028 -41.734219 
L 205.866859 -41.734219 
L 207.619689 -41.734219 
L 209.37252 -41.734219 
L 211.12535 -41.734219 
L 212.878181 -41.734219 
L 214.631011 -41.734219 
L 216.383841 -41.734219 
L 218.136672 -41.734219 
L 219.889502 -41.734219 
L 221.642333 -41.734219 
L 223.395163 -41.734219 
L 225.147994 -41.734219 
L 226.900824 -41.734219 
L 228.653655 -41.734219 
L 230.406485 -41.734219 
L 232.159316 -41.734219 
L 233.912146 -41.734219 
L 235.664977 -41.734219 
L 237.417807 -41.734219 
L 239.170638 -41.734219 
L 240.923468 -41.734219 
L 242.676298 -41.734219 
L 244.429129 -41.734219 
L 246.181959 -41.734219 
L 247.93479 -41.734219 
L 249.68762 -41.734219 
L 251.440451 -41.734219 
L 253.193281 -41.734219 
L 254.946112 -41.734219 
L 256.698942 -41.734219 
L 258.451773 -41.734219 
L 260.204603 -41.734219 
L 261.957434 -41.734219 
L 263.710264 -41.734219 
L 265.463095 -41.734219 
L 267.215925 -41.734219 
L 268.968755 -41.734219 
L 270.721586 -41.734219 
L 272.474416 -41.734219 
L 274.227247 -41.734219 
L 275.980077 -41.734219 
L 277.732908 -41.734219 
L 279.485738 -41.734219 
L 281.238569 -41.734219 
L 282.991399 -41.734219 
L 284.74423 -41.734219 
L 286.49706 -41.734219 
L 288.249891 -41.734219 
L 290.002721 -41.734219 
L 291.755552 -41.734219 
L 293.508382 -41.734219 
L 295.261213 -41.734219 
L 297.014043 -41.734219 
L 298.766873 -41.734219 
L 300.519704 -41.734219 
L 302.272534 -41.734219 
L 304.025365 -41.734219 
L 305.778195 -41.734219 
L 307.531026 -41.734219 
L 309.283856 -41.734219 
L 311.036687 -41.734219 
L 312.789517 -41.734219 
L 314.542348 -41.734219 
L 316.295178 -41.734219 
L 318.048009 -41.734219 
L 319.800839 -41.734219 
L 321.55367 -41.734219 
L 323.3065 -41.734219 
L 325.05933 -41.734219 
L 326.812161 -41.734219 
L 328.564991 -41.734219 
L 330.317822 -41.734219 
L 332.070652 -41.734219 
L 333.823483 -41.734219 
L 335.576313 -41.734219 
L 337.329144 -41.734219 
L 339.081974 -41.734219 
L 340.834805 -41.734219 
L 342.587635 -41.734219 
L 344.340466 -41.734219 
L 346.093296 -41.734219 
L 347.846127 -41.734219 
L 349.598957 -41.734219 
L 351.351787 -41.734219 
L 353.104618 -41.734219 
L 354.857448 -41.734219 
L 356.610279 -41.734219 
L 358.363109 -41.734219 
L 360.11594 -41.734219 
L 361.86877 -41.734219 
L 363.621601 -41.734219 
L 365.374431 -41.734219 
L 367.127262 -41.734219 
L 368.880092 -41.734219 
L 370.632923 -41.734219 
L 372.385753 -41.734219 
L 374.138584 -41.734219 
L 375.891414 -41.734219 
L 377.644244 -41.734219 
L 379.397075 -41.734219 
L 381.149905 -41.734219 
L 382.902736 -41.734219 
L 384.655566 -41.734219 
L 386.408397 -41.734219 
L 388.161227 -41.734219 
L 389.914058 -41.734219 
L 391.666888 -41.734219 
L 393.419719 -41.734219 
L 395.172549 -41.734219 
L 396.92538 -41.734219 
L 398.67821 -41.734219 
L 400.431041 -41.734219 
L 402.183871 -41.734219 
L 403.936702 -41.734219 
L 405.689532 -41.734219 
L 407.442362 -41.734219 
L 409.195193 -41.734219 
L 410.948023 -41.734219 
L 412.700854 -41.734219 
L 414.453684 -41.734219 
L 416.206515 -41.734219 
L 417.959345 -41.734219 
L 419.712176 -41.734219 
L 421.465006 -41.734219 
L 423.217837 -41.734219 
L 424.970667 -41.734219 
L 426.723498 -41.734219 
L 428.476328 -41.734219 
L 430.229159 -41.734219 
L 431.981989 -41.734219 
L 433.734819 -41.734219 
L 435.48765 -41.734219 
L 437.24048 -41.734219 
L 438.993311 -41.734219 
L 440.746141 -41.734219 
L 442.498972 -41.734219 
L 444.251802 -41.734219 
L 446.004633 -41.734219 
L 447.757463 -41.734219 
L 449.510294 -41.734219 
L 451.263124 -41.734219 
L 453.015955 -41.734219 
L 454.768785 -41.734219 
L 456.521616 -41.734219 
L 458.274446 -41.734219 
L 460.027276 -41.734219 
L 461.780107 -41.734219 
L 463.532937 -41.734219 
L 465.285768 -41.734219 
L 467.038598 -41.734219 
L 468.791429 -41.734219 
L 470.544259 -41.734219 
L 472.29709 -41.734219 
L 474.04992 -41.734219 
L 475.802751 -41.734219 
L 477.555581 -41.734219 
L 479.308412 -41.734219 
L 481.061242 -41.734219 
L 482.814073 -41.734219 
L 484.566903 -41.734219 
L 486.319733 -41.734219 
L 488.072564 -41.734219 
L 489.825394 -41.734219 
L 491.578225 -41.734219 
L 493.331055 -41.734219 
L 495.083886 -41.734219 
L 496.836716 -41.734219 
L 498.589547 -41.734219 
L 500.342377 -41.734219 
L 502.095208 -41.734219 
L 503.848038 -41.734219 
L 505.600869 -41.734219 
L 507.353699 -41.734219 
L 509.10653 -41.734219 
L 509.10653 -41.744534 
L 509.10653 -41.744534 
L 507.353699 -41.752214 
L 505.600869 -41.764482 
L 503.848038 -41.783279 
L 502.095208 -41.810881 
L 500.342377 -41.849694 
L 498.589547 -41.901886 
L 496.836716 -41.968889 
L 495.083886 -42.050824 
L 493.331055 -42.145965 
L 491.578225 -42.250388 
L 489.825394 -42.357962 
L 488.072564 -42.460777 
L 486.319733 -42.550023 
L 484.566903 -42.617203 
L 482.814073 -42.655454 
L 481.061242 -42.660706 
L 479.308412 -42.632391 
L 477.555581 -42.573544 
L 475.802751 -42.490272 
L 474.04992 -42.390705 
L 472.29709 -42.283696 
L 470.544259 -42.177546 
L 468.791429 -42.079006 
L 467.038598 -41.9927 
L 465.285768 -41.92101 
L 463.532937 -41.864336 
L 461.780107 -41.82159 
L 460.027276 -41.790771 
L 458.274446 -41.769503 
L 456.521616 -41.75544 
L 454.768785 -41.746521 
L 453.015955 -41.741094 
L 451.263124 -41.737922 
L 449.510294 -41.736142 
L 447.757463 -41.735181 
L 446.004633 -41.734683 
L 444.251802 -41.734435 
L 442.498972 -41.734316 
L 440.746141 -41.734261 
L 438.993311 -41.734236 
L 437.24048 -41.734226 
L 435.48765 -41.734221 
L 433.734819 -41.73422 
L 431.981989 -41.734219 
L 430.229159 -41.734219 
L 428.476328 -41.734219 
L 426.723498 -41.734219 
L 424.970667 -41.734219 
L 423.217837 -41.734219 
L 421.465006 -41.734219 
L 419.712176 -41.734219 
L 417.959345 -41.734219 
L 416.206515 -41.734219 
L 414.453684 -41.73422 
L 412.700854 -41.734223 
L 410.948023 -41.73423 
L 409.195193 -41.734247 
L 407.442362 -41.734285 
L 405.689532 -41.73437 
L 403.936702 -41.734549 
L 402.183871 -41.734916 
L 400.431041 -41.735636 
L 398.67821 -41.736998 
L 396.92538 -41.739472 
L 395.172549 -41.743795 
L 393.419719 -41.751057 
L 391.666888 -41.762777 
L 389.914058 -41.780947 
L 388.161227 -41.808004 
L 386.408397 -41.846683 
L 384.655566 -41.899749 
L 382.902736 -41.969589 
L 381.149905 -42.057725 
L 379.397075 -42.164312 
L 377.644244 -42.287758 
L 375.891414 -42.424549 
L 374.138584 -42.569385 
L 372.385753 -42.715608 
L 370.632923 -42.855864 
L 368.880092 -42.982859 
L 367.127262 -43.09004 
L 365.374431 -43.172108 
L 363.621601 -43.225293 
L 361.86877 -43.247468 
L 360.11594 -43.238195 
L 358.363109 -43.198818 
L 356.610279 -43.132666 
L 354.857448 -43.045315 
L 353.104618 -42.944822 
L 351.351787 -42.841749 
L 349.598957 -42.748851 
L 347.846127 -42.680344 
L 346.093296 -42.650743 
L 344.340466 -42.673353 
L 342.587635 -42.75855 
L 340.834805 -42.912053 
L 339.081974 -43.133442 
L 337.329144 -43.415197 
L 335.576313 -43.742547 
L 333.823483 -44.094359 
L 332.070652 -44.44513 
L 330.317822 -44.767947 
L 328.564991 -45.038026 
L 326.812161 -45.236265 
L 325.05933 -45.352131 
L 323.3065 -45.385323 
L 321.55367 -45.345862 
L 319.800839 -45.252583 
L 318.048009 -45.130346 
L 316.295178 -45.00652 
L 314.542348 -44.907387 
L 312.789517 -44.855073 
L 311.036687 -44.865431 
L 309.283856 -44.947056 
L 307.531026 -45.10138 
L 305.778195 -45.32361 
L 304.025365 -45.604171 
L 302.272534 -45.930262 
L 300.519704 -46.287235 
L 298.766873 -46.659557 
L 297.014043 -47.031322 
L 295.261213 -47.386414 
L 293.508382 -47.70861 
L 291.755552 -47.981935 
L 290.002721 -48.191579 
L 288.249891 -48.325481 
L 286.49706 -48.376429 
L 284.74423 -48.344246 
L 282.991399 -48.237477 
L 281.238569 -48.073975 
L 279.485738 -47.880031 
L 277.732908 -47.688029 
L 275.980077 -47.532978 
L 274.227247 -47.448571 
L 272.474416 -47.463479 
L 270.721586 -47.598463 
L 268.968755 -47.864658 
L 267.215925 -48.263107 
L 265.463095 -48.785448 
L 263.710264 -49.415601 
L 261.957434 -50.132352 
L 260.204603 -50.912701 
L 258.451773 -51.735782 
L 256.698942 -52.586917 
L 254.946112 -53.461115 
L 253.193281 -54.365171 
L 251.440451 -55.31761 
L 249.68762 -56.346166 
L 247.93479 -57.483122 
L 246.181959 -58.759613 
L 244.429129 -60.200465 
L 242.676298 -61.821297 
L 240.923468 -63.629188 
L 239.170638 -65.627476 
L 237.417807 -67.824253 
L 235.664977 -70.243253 
L 233.912146 -72.935242 
L 232.159316 -75.987752 
L 230.406485 -79.53117 
L 228.653655 -83.739502 
L 226.900824 -88.824567 
L 225.147994 -95.022825 
L 223.395163 -102.574467 
L 221.642333 -111.69503 
L 219.889502 -122.540599 
L 218.136672 -135.168868 
L 216.383841 -149.499779 
L 214.631011 -165.281018 
L 212.878181 -182.064803 
L 211.12535 -199.202879 
L 209.37252 -215.865796 
L 207.619689 -231.090194 
L 205.866859 -243.853935 
L 204.114028 -253.173829 
L 202.361198 -258.215261 
L 200.608367 -258.398504 
L 198.855537 -253.484217 
L 197.102706 -243.62174 
L 195.349876 -229.348777 
L 193.597045 -211.539229 
L 191.844215 -191.305733 
L 190.091384 -169.872386 
L 188.338554 -148.438949 
L 186.585724 -128.058851 
L 184.832893 -109.549364 
L 183.080063 -93.444611 
L 181.327232 -79.992747 
L 179.574402 -69.190295 
L 177.821571 -60.841015 
L 176.068741 -54.62482 
L 174.31591 -50.163816 
L 172.56308 -47.076361 
L 170.810249 -45.014705 
L 169.057419 -43.685975 
L 167.304588 -42.859179 
L 165.551758 -42.362336 
L 163.798927 -42.07393 
L 162.046097 -41.912179 
L 160.293266 -41.824514 
z
" style="stroke: #55a868"/>
    </defs>
    <g clip-path="url(#p400867366e)">
     <use xlink:href="#m1a753d9cab" x="0" y="291.021094" style="fill: #55a868; fill-opacity: 0.25; stroke: #55a868"/>
    </g>
   </g>
   <g id="PolyCollection_2">
    <defs>
     <path id="m5ec7dd69cd" d="M 132.350881 -41.793937 
L 132.350881 -41.734219 
L 135.162788 -41.734219 
L 137.974694 -41.734219 
L 140.786601 -41.734219 
L 143.598508 -41.734219 
L 146.410414 -41.734219 
L 149.222321 -41.734219 
L 152.034227 -41.734219 
L 154.846134 -41.734219 
L 157.658041 -41.734219 
L 160.469947 -41.734219 
L 163.281854 -41.734219 
L 166.093761 -41.734219 
L 168.905667 -41.734219 
L 171.717574 -41.734219 
L 174.529481 -41.734219 
L 177.341387 -41.734219 
L 180.153294 -41.734219 
L 182.965201 -41.734219 
L 185.777107 -41.734219 
L 188.589014 -41.734219 
L 191.40092 -41.734219 
L 194.212827 -41.734219 
L 197.024734 -41.734219 
L 199.83664 -41.734219 
L 202.648547 -41.734219 
L 205.460454 -41.734219 
L 208.27236 -41.734219 
L 211.084267 -41.734219 
L 213.896174 -41.734219 
L 216.70808 -41.734219 
L 219.519987 -41.734219 
L 222.331894 -41.734219 
L 225.1438 -41.734219 
L 227.955707 -41.734219 
L 230.767614 -41.734219 
L 233.57952 -41.734219 
L 236.391427 -41.734219 
L 239.203333 -41.734219 
L 242.01524 -41.734219 
L 244.827147 -41.734219 
L 247.639053 -41.734219 
L 250.45096 -41.734219 
L 253.262867 -41.734219 
L 256.074773 -41.734219 
L 258.88668 -41.734219 
L 261.698587 -41.734219 
L 264.510493 -41.734219 
L 267.3224 -41.734219 
L 270.134307 -41.734219 
L 272.946213 -41.734219 
L 275.75812 -41.734219 
L 278.570026 -41.734219 
L 281.381933 -41.734219 
L 284.19384 -41.734219 
L 287.005746 -41.734219 
L 289.817653 -41.734219 
L 292.62956 -41.734219 
L 295.441466 -41.734219 
L 298.253373 -41.734219 
L 301.06528 -41.734219 
L 303.877186 -41.734219 
L 306.689093 -41.734219 
L 309.501 -41.734219 
L 312.312906 -41.734219 
L 315.124813 -41.734219 
L 317.93672 -41.734219 
L 320.748626 -41.734219 
L 323.560533 -41.734219 
L 326.372439 -41.734219 
L 329.184346 -41.734219 
L 331.996253 -41.734219 
L 334.808159 -41.734219 
L 337.620066 -41.734219 
L 340.431973 -41.734219 
L 343.243879 -41.734219 
L 346.055786 -41.734219 
L 348.867693 -41.734219 
L 351.679599 -41.734219 
L 354.491506 -41.734219 
L 357.303413 -41.734219 
L 360.115319 -41.734219 
L 362.927226 -41.734219 
L 365.739133 -41.734219 
L 368.551039 -41.734219 
L 371.362946 -41.734219 
L 374.174852 -41.734219 
L 376.986759 -41.734219 
L 379.798666 -41.734219 
L 382.610572 -41.734219 
L 385.422479 -41.734219 
L 388.234386 -41.734219 
L 391.046292 -41.734219 
L 393.858199 -41.734219 
L 396.670106 -41.734219 
L 399.482012 -41.734219 
L 402.293919 -41.734219 
L 405.105826 -41.734219 
L 407.917732 -41.734219 
L 410.729639 -41.734219 
L 413.541545 -41.734219 
L 416.353452 -41.734219 
L 419.165359 -41.734219 
L 421.977265 -41.734219 
L 424.789172 -41.734219 
L 427.601079 -41.734219 
L 430.412985 -41.734219 
L 433.224892 -41.734219 
L 436.036799 -41.734219 
L 438.848705 -41.734219 
L 441.660612 -41.734219 
L 444.472519 -41.734219 
L 447.284425 -41.734219 
L 450.096332 -41.734219 
L 452.908239 -41.734219 
L 455.720145 -41.734219 
L 458.532052 -41.734219 
L 461.343958 -41.734219 
L 464.155865 -41.734219 
L 466.967772 -41.734219 
L 469.779678 -41.734219 
L 472.591585 -41.734219 
L 475.403492 -41.734219 
L 478.215398 -41.734219 
L 481.027305 -41.734219 
L 483.839212 -41.734219 
L 486.651118 -41.734219 
L 489.463025 -41.734219 
L 492.274932 -41.734219 
L 495.086838 -41.734219 
L 497.898745 -41.734219 
L 500.710651 -41.734219 
L 503.522558 -41.734219 
L 506.334465 -41.734219 
L 509.146371 -41.734219 
L 511.958278 -41.734219 
L 514.770185 -41.734219 
L 517.582091 -41.734219 
L 520.393998 -41.734219 
L 523.205905 -41.734219 
L 526.017811 -41.734219 
L 528.829718 -41.734219 
L 531.641625 -41.734219 
L 534.453531 -41.734219 
L 537.265438 -41.734219 
L 540.077345 -41.734219 
L 542.889251 -41.734219 
L 545.701158 -41.734219 
L 548.513064 -41.734219 
L 551.324971 -41.734219 
L 554.136878 -41.734219 
L 556.948784 -41.734219 
L 559.760691 -41.734219 
L 562.572598 -41.734219 
L 565.384504 -41.734219 
L 568.196411 -41.734219 
L 571.008318 -41.734219 
L 573.820224 -41.734219 
L 576.632131 -41.734219 
L 579.444038 -41.734219 
L 582.255944 -41.734219 
L 585.067851 -41.734219 
L 587.879757 -41.734219 
L 590.691664 -41.734219 
L 593.503571 -41.734219 
L 596.315477 -41.734219 
L 599.127384 -41.734219 
L 601.939291 -41.734219 
L 604.751197 -41.734219 
L 607.563104 -41.734219 
L 610.375011 -41.734219 
L 613.186917 -41.734219 
L 615.998824 -41.734219 
L 618.810731 -41.734219 
L 621.622637 -41.734219 
L 624.434544 -41.734219 
L 627.246451 -41.734219 
L 630.058357 -41.734219 
L 632.870264 -41.734219 
L 635.68217 -41.734219 
L 638.494077 -41.734219 
L 641.305984 -41.734219 
L 644.11789 -41.734219 
L 646.929797 -41.734219 
L 649.741704 -41.734219 
L 652.55361 -41.734219 
L 655.365517 -41.734219 
L 658.177424 -41.734219 
L 660.98933 -41.734219 
L 663.801237 -41.734219 
L 666.613144 -41.734219 
L 669.42505 -41.734219 
L 672.236957 -41.734219 
L 675.048863 -41.734219 
L 677.86077 -41.734219 
L 680.672677 -41.734219 
L 683.484583 -41.734219 
L 686.29649 -41.734219 
L 689.108397 -41.734219 
L 691.920303 -41.734219 
L 691.920303 -41.739822 
L 691.920303 -41.739822 
L 689.108397 -41.742663 
L 686.29649 -41.746721 
L 683.484583 -41.752405 
L 680.672677 -41.760213 
L 677.86077 -41.770725 
L 675.048863 -41.784599 
L 672.236957 -41.802544 
L 669.42505 -41.825286 
L 666.613144 -41.85352 
L 663.801237 -41.887848 
L 660.98933 -41.928706 
L 658.177424 -41.976296 
L 655.365517 -42.030517 
L 652.55361 -42.090905 
L 649.741704 -42.156607 
L 646.929797 -42.226372 
L 644.11789 -42.298587 
L 641.305984 -42.371339 
L 638.494077 -42.442523 
L 635.68217 -42.509959 
L 632.870264 -42.571534 
L 630.058357 -42.625334 
L 627.246451 -42.66977 
L 624.434544 -42.703669 
L 621.622637 -42.726331 
L 618.810731 -42.737551 
L 615.998824 -42.737598 
L 613.186917 -42.727169 
L 610.375011 -42.70732 
L 607.563104 -42.679388 
L 604.751197 -42.644911 
L 601.939291 -42.605558 
L 599.127384 -42.563061 
L 596.315477 -42.51916 
L 593.503571 -42.475556 
L 590.691664 -42.433858 
L 587.879757 -42.395529 
L 585.067851 -42.361837 
L 582.255944 -42.333799 
L 579.444038 -42.312125 
L 576.632131 -42.297187 
L 573.820224 -42.288995 
L 571.008318 -42.287204 
L 568.196411 -42.291147 
L 565.384504 -42.299892 
L 562.572598 -42.312322 
L 559.760691 -42.32723 
L 556.948784 -42.343407 
L 554.136878 -42.359737 
L 551.324971 -42.375261 
L 548.513064 -42.38924 
L 545.701158 -42.401187 
L 542.889251 -42.41089 
L 540.077345 -42.418419 
L 537.265438 -42.424133 
L 534.453531 -42.428676 
L 531.641625 -42.432972 
L 528.829718 -42.43821 
L 526.017811 -42.445824 
L 523.205905 -42.457437 
L 520.393998 -42.474797 
L 517.582091 -42.499673 
L 514.770185 -42.533733 
L 511.958278 -42.578404 
L 509.146371 -42.63472 
L 506.334465 -42.703192 
L 503.522558 -42.783698 
L 500.710651 -42.875416 
L 497.898745 -42.976809 
L 495.086838 -43.085677 
L 492.274932 -43.199258 
L 489.463025 -43.314382 
L 486.651118 -43.427672 
L 483.839212 -43.53576 
L 481.027305 -43.635511 
L 478.215398 -43.724237 
L 475.403492 -43.79988 
L 472.591585 -43.861152 
L 469.779678 -43.907617 
L 466.967772 -43.939724 
L 464.155865 -43.95877 
L 461.343958 -43.966812 
L 458.532052 -43.966523 
L 455.720145 -43.961026 
L 452.908239 -43.953692 
L 450.096332 -43.947937 
L 447.284425 -43.947038 
L 444.472519 -43.95396 
L 441.660612 -43.971228 
L 438.848705 -44.000841 
L 436.036799 -44.044228 
L 433.224892 -44.102258 
L 430.412985 -44.175283 
L 427.601079 -44.263221 
L 424.789172 -44.365661 
L 421.977265 -44.481976 
L 419.165359 -44.611441 
L 416.353452 -44.75333 
L 413.541545 -44.906991 
L 410.729639 -45.071878 
L 407.917732 -45.247539 
L 405.105826 -45.433555 
L 402.293919 -45.629433 
L 399.482012 -45.834464 
L 396.670106 -46.047561 
L 393.858199 -46.267109 
L 391.046292 -46.490841 
L 388.234386 -46.715782 
L 385.422479 -46.938275 
L 382.610572 -47.154114 
L 379.798666 -47.358783 
L 376.986759 -47.547789 
L 374.174852 -47.717076 
L 371.362946 -47.863466 
L 368.551039 -47.985088 
L 365.739133 -48.081738 
L 362.927226 -48.155121 
L 360.115319 -48.208931 
L 357.303413 -48.24875 
L 354.491506 -48.281753 
L 351.679599 -48.316247 
L 348.867693 -48.361079 
L 346.055786 -48.424974 
L 343.243879 -48.515875 
L 340.431973 -48.640372 
L 337.620066 -48.803276 
L 334.808159 -49.007412 
L 331.996253 -49.253672 
L 329.184346 -49.541327 
L 326.372439 -49.868582 
L 323.560533 -50.233337 
L 320.748626 -50.634045 
L 317.93672 -51.07061 
L 315.124813 -51.545175 
L 312.312906 -52.062742 
L 309.501 -52.631516 
L 306.689093 -53.262933 
L 303.877186 -53.971368 
L 301.06528 -54.773545 
L 298.253373 -55.68774 
L 295.441466 -56.732844 
L 292.62956 -57.92744 
L 289.817653 -59.288964 
L 287.005746 -60.833062 
L 284.19384 -62.573169 
L 281.381933 -64.520339 
L 278.570026 -66.683248 
L 275.75812 -69.068314 
L 272.946213 -71.679807 
L 270.134307 -74.519821 
L 267.3224 -77.587997 
L 264.510493 -80.880902 
L 261.698587 -84.391002 
L 258.88668 -88.105236 
L 256.074773 -92.003233 
L 253.262867 -96.055314 
L 250.45096 -100.220441 
L 247.639053 -104.444389 
L 244.827147 -108.658409 
L 242.01524 -112.778728 
L 239.203333 -116.707187 
L 236.391427 -120.333279 
L 233.57952 -123.53775 
L 230.767614 -126.197773 
L 227.955707 -128.193496 
L 225.1438 -129.415594 
L 222.331894 -129.773227 
L 219.519987 -129.201667 
L 216.70808 -127.668807 
L 213.896174 -125.179766 
L 211.084267 -121.778969 
L 208.27236 -117.549322 
L 205.460454 -112.608391 
L 202.648547 -107.101867 
L 199.83664 -101.194865 
L 197.024734 -95.061909 
L 194.212827 -88.876522 
L 191.40092 -82.801415 
L 188.589014 -76.980119 
L 185.777107 -71.53071 
L 182.965201 -66.541991 
L 180.153294 -62.072217 
L 177.341387 -58.150155 
L 174.529481 -54.778078 
L 171.717574 -51.936126 
L 168.905667 -49.587456 
L 166.093761 -47.683572 
L 163.281854 -46.169391 
L 160.469947 -44.987639 
L 157.658041 -44.082399 
L 154.846134 -43.401694 
L 152.034227 -42.899155 
L 149.222321 -42.534861 
L 146.410414 -42.275535 
L 143.598508 -42.094236 
L 140.786601 -41.969744 
L 137.974694 -41.885778 
L 135.162788 -41.830146 
L 132.350881 -41.793937 
z
" style="stroke: #dd8452"/>
    </defs>
    <g clip-path="url(#p400867366e)">
     <use xlink:href="#m5ec7dd69cd" x="0" y="291.021094" style="fill: #dd8452; fill-opacity: 0.25; stroke: #dd8452"/>
    </g>
   </g>
   <g id="PolyCollection_3">
    <defs>
     <path id="m02b5002613" d="M 45.554475 -41.884915 
L 45.554475 -41.734219 
L 51.380216 -41.734219 
L 57.205957 -41.734219 
L 63.031699 -41.734219 
L 68.85744 -41.734219 
L 74.683182 -41.734219 
L 80.508923 -41.734219 
L 86.334665 -41.734219 
L 92.160406 -41.734219 
L 97.986148 -41.734219 
L 103.811889 -41.734219 
L 109.637631 -41.734219 
L 115.463372 -41.734219 
L 121.289114 -41.734219 
L 127.114855 -41.734219 
L 132.940597 -41.734219 
L 138.766338 -41.734219 
L 144.59208 -41.734219 
L 150.417821 -41.734219 
L 156.243562 -41.734219 
L 162.069304 -41.734219 
L 167.895045 -41.734219 
L 173.720787 -41.734219 
L 179.546528 -41.734219 
L 185.37227 -41.734219 
L 191.198011 -41.734219 
L 197.023753 -41.734219 
L 202.849494 -41.734219 
L 208.675236 -41.734219 
L 214.500977 -41.734219 
L 220.326719 -41.734219 
L 226.15246 -41.734219 
L 231.978202 -41.734219 
L 237.803943 -41.734219 
L 243.629685 -41.734219 
L 249.455426 -41.734219 
L 255.281167 -41.734219 
L 261.106909 -41.734219 
L 266.93265 -41.734219 
L 272.758392 -41.734219 
L 278.584133 -41.734219 
L 284.409875 -41.734219 
L 290.235616 -41.734219 
L 296.061358 -41.734219 
L 301.887099 -41.734219 
L 307.712841 -41.734219 
L 313.538582 -41.734219 
L 319.364324 -41.734219 
L 325.190065 -41.734219 
L 331.015807 -41.734219 
L 336.841548 -41.734219 
L 342.66729 -41.734219 
L 348.493031 -41.734219 
L 354.318773 -41.734219 
L 360.144514 -41.734219 
L 365.970255 -41.734219 
L 371.795997 -41.734219 
L 377.621738 -41.734219 
L 383.44748 -41.734219 
L 389.273221 -41.734219 
L 395.098963 -41.734219 
L 400.924704 -41.734219 
L 406.750446 -41.734219 
L 412.576187 -41.734219 
L 418.401929 -41.734219 
L 424.22767 -41.734219 
L 430.053412 -41.734219 
L 435.879153 -41.734219 
L 441.704895 -41.734219 
L 447.530636 -41.734219 
L 453.356378 -41.734219 
L 459.182119 -41.734219 
L 465.00786 -41.734219 
L 470.833602 -41.734219 
L 476.659343 -41.734219 
L 482.485085 -41.734219 
L 488.310826 -41.734219 
L 494.136568 -41.734219 
L 499.962309 -41.734219 
L 505.788051 -41.734219 
L 511.613792 -41.734219 
L 517.439534 -41.734219 
L 523.265275 -41.734219 
L 529.091017 -41.734219 
L 534.916758 -41.734219 
L 540.7425 -41.734219 
L 546.568241 -41.734219 
L 552.393983 -41.734219 
L 558.219724 -41.734219 
L 564.045465 -41.734219 
L 569.871207 -41.734219 
L 575.696948 -41.734219 
L 581.52269 -41.734219 
L 587.348431 -41.734219 
L 593.174173 -41.734219 
L 598.999914 -41.734219 
L 604.825656 -41.734219 
L 610.651397 -41.734219 
L 616.477139 -41.734219 
L 622.30288 -41.734219 
L 628.128622 -41.734219 
L 633.954363 -41.734219 
L 639.780105 -41.734219 
L 645.605846 -41.734219 
L 651.431588 -41.734219 
L 657.257329 -41.734219 
L 663.08307 -41.734219 
L 668.908812 -41.734219 
L 674.734553 -41.734219 
L 680.560295 -41.734219 
L 686.386036 -41.734219 
L 692.211778 -41.734219 
L 698.037519 -41.734219 
L 703.863261 -41.734219 
L 709.689002 -41.734219 
L 715.514744 -41.734219 
L 721.340485 -41.734219 
L 727.166227 -41.734219 
L 732.991968 -41.734219 
L 738.81771 -41.734219 
L 744.643451 -41.734219 
L 750.469193 -41.734219 
L 756.294934 -41.734219 
L 762.120675 -41.734219 
L 767.946417 -41.734219 
L 773.772158 -41.734219 
L 779.5979 -41.734219 
L 785.423641 -41.734219 
L 791.249383 -41.734219 
L 797.075124 -41.734219 
L 802.900866 -41.734219 
L 808.726607 -41.734219 
L 814.552349 -41.734219 
L 820.37809 -41.734219 
L 826.203832 -41.734219 
L 832.029573 -41.734219 
L 837.855315 -41.734219 
L 843.681056 -41.734219 
L 849.506798 -41.734219 
L 855.332539 -41.734219 
L 861.15828 -41.734219 
L 866.984022 -41.734219 
L 872.809763 -41.734219 
L 878.635505 -41.734219 
L 884.461246 -41.734219 
L 890.286988 -41.734219 
L 896.112729 -41.734219 
L 901.938471 -41.734219 
L 907.764212 -41.734219 
L 913.589954 -41.734219 
L 919.415695 -41.734219 
L 925.241437 -41.734219 
L 931.067178 -41.734219 
L 936.89292 -41.734219 
L 942.718661 -41.734219 
L 948.544403 -41.734219 
L 954.370144 -41.734219 
L 960.195885 -41.734219 
L 966.021627 -41.734219 
L 971.847368 -41.734219 
L 977.67311 -41.734219 
L 983.498851 -41.734219 
L 989.324593 -41.734219 
L 995.150334 -41.734219 
L 1000.976076 -41.734219 
L 1006.801817 -41.734219 
L 1012.627559 -41.734219 
L 1018.4533 -41.734219 
L 1024.279042 -41.734219 
L 1030.104783 -41.734219 
L 1035.930525 -41.734219 
L 1041.756266 -41.734219 
L 1047.582008 -41.734219 
L 1053.407749 -41.734219 
L 1059.23349 -41.734219 
L 1065.059232 -41.734219 
L 1070.884973 -41.734219 
L 1076.710715 -41.734219 
L 1082.536456 -41.734219 
L 1088.362198 -41.734219 
L 1094.187939 -41.734219 
L 1100.013681 -41.734219 
L 1105.839422 -41.734219 
L 1111.665164 -41.734219 
L 1117.490905 -41.734219 
L 1123.316647 -41.734219 
L 1129.142388 -41.734219 
L 1134.96813 -41.734219 
L 1140.793871 -41.734219 
L 1146.619613 -41.734219 
L 1152.445354 -41.734219 
L 1158.271095 -41.734219 
L 1164.096837 -41.734219 
L 1169.922578 -41.734219 
L 1175.74832 -41.734219 
L 1181.574061 -41.734219 
L 1187.399803 -41.734219 
L 1193.225544 -41.734219 
L 1199.051286 -41.734219 
L 1204.877027 -41.734219 
L 1204.877027 -41.736259 
L 1204.877027 -41.736259 
L 1199.051286 -41.737133 
L 1193.225544 -41.738325 
L 1187.399803 -41.739927 
L 1181.574061 -41.742046 
L 1175.74832 -41.744809 
L 1169.922578 -41.748357 
L 1164.096837 -41.752844 
L 1158.271095 -41.758432 
L 1152.445354 -41.765287 
L 1146.619613 -41.773569 
L 1140.793871 -41.783424 
L 1134.96813 -41.794971 
L 1129.142388 -41.808299 
L 1123.316647 -41.823448 
L 1117.490905 -41.84041 
L 1111.665164 -41.859122 
L 1105.839422 -41.879464 
L 1100.013681 -41.901268 
L 1094.187939 -41.924325 
L 1088.362198 -41.948402 
L 1082.536456 -41.973261 
L 1076.710715 -41.998683 
L 1070.884973 -42.024491 
L 1065.059232 -42.050574 
L 1059.23349 -42.076902 
L 1053.407749 -42.10354 
L 1047.582008 -42.130652 
L 1041.756266 -42.158482 
L 1035.930525 -42.18734 
L 1030.104783 -42.217561 
L 1024.279042 -42.249461 
L 1018.4533 -42.283282 
L 1012.627559 -42.319137 
L 1006.801817 -42.356955 
L 1000.976076 -42.396433 
L 995.150334 -42.437013 
L 989.324593 -42.477868 
L 983.498851 -42.517919 
L 977.67311 -42.555876 
L 971.847368 -42.590304 
L 966.021627 -42.61971 
L 960.195885 -42.64265 
L 954.370144 -42.65783 
L 948.544403 -42.66422 
L 942.718661 -42.661141 
L 936.89292 -42.648348 
L 931.067178 -42.626065 
L 925.241437 -42.595012 
L 919.415695 -42.556381 
L 913.589954 -42.511795 
L 907.764212 -42.463238 
L 901.938471 -42.412967 
L 896.112729 -42.363414 
L 890.286988 -42.317088 
L 884.461246 -42.276479 
L 878.635505 -42.243966 
L 872.809763 -42.221741 
L 866.984022 -42.211745 
L 861.15828 -42.215605 
L 855.332539 -42.234591 
L 849.506798 -42.269566 
L 843.681056 -42.320948 
L 837.855315 -42.388673 
L 832.029573 -42.472153 
L 826.203832 -42.570258 
L 820.37809 -42.68129 
L 814.552349 -42.802991 
L 808.726607 -42.932561 
L 802.900866 -43.066716 
L 797.075124 -43.201769 
L 791.249383 -43.333753 
L 785.423641 -43.458567 
L 779.5979 -43.572152 
L 773.772158 -43.670687 
L 767.946417 -43.750781 
L 762.120675 -43.809659 
L 756.294934 -43.845328 
L 750.469193 -43.8567 
L 744.643451 -43.843666 
L 738.81771 -43.807118 
L 732.991968 -43.748909 
L 727.166227 -43.671756 
L 721.340485 -43.579093 
L 715.514744 -43.47488 
L 709.689002 -43.363395 
L 703.863261 -43.249006 
L 698.037519 -43.135953 
L 692.211778 -43.028156 
L 686.386036 -42.929042 
L 680.560295 -42.841428 
L 674.734553 -42.767444 
L 668.908812 -42.708502 
L 663.08307 -42.665311 
L 657.257329 -42.637938 
L 651.431588 -42.625884 
L 645.605846 -42.628199 
L 639.780105 -42.64359 
L 633.954363 -42.670545 
L 628.128622 -42.707439 
L 622.30288 -42.752632 
L 616.477139 -42.804542 
L 610.651397 -42.861704 
L 604.825656 -42.922801 
L 598.999914 -42.986685 
L 593.174173 -43.05237 
L 587.348431 -43.119029 
L 581.52269 -43.185975 
L 575.696948 -43.252648 
L 569.871207 -43.318602 
L 564.045465 -43.383505 
L 558.219724 -43.447143 
L 552.393983 -43.509435 
L 546.568241 -43.570453 
L 540.7425 -43.630452 
L 534.916758 -43.689892 
L 529.091017 -43.74946 
L 523.265275 -43.810089 
L 517.439534 -43.872951 
L 511.613792 -43.939454 
L 505.788051 -44.011211 
L 499.962309 -44.090002 
L 494.136568 -44.177724 
L 488.310826 -44.276331 
L 482.485085 -44.387775 
L 476.659343 -44.513939 
L 470.833602 -44.65658 
L 465.00786 -44.817283 
L 459.182119 -44.997412 
L 453.356378 -45.198081 
L 447.530636 -45.420132 
L 441.704895 -45.664117 
L 435.879153 -45.930296 
L 430.053412 -46.218636 
L 424.22767 -46.528826 
L 418.401929 -46.860303 
L 412.576187 -47.212299 
L 406.750446 -47.583917 
L 400.924704 -47.974246 
L 395.098963 -48.382513 
L 389.273221 -48.808294 
L 383.44748 -49.251763 
L 377.621738 -49.71399 
L 371.795997 -50.197258 
L 365.970255 -50.705384 
L 360.144514 -51.244005 
L 354.318773 -51.820787 
L 348.493031 -52.445524 
L 342.66729 -53.130065 
L 336.841548 -53.888042 
L 331.015807 -54.73437 
L 325.190065 -55.684491 
L 319.364324 -56.75338 
L 313.538582 -57.954332 
L 307.712841 -59.297578 
L 301.887099 -60.788817 
L 296.061358 -62.427741 
L 290.235616 -64.206694 
L 284.409875 -66.109568 
L 278.584133 -68.111079 
L 272.758392 -70.176531 
L 266.93265 -72.26218 
L 261.106909 -74.316244 
L 255.281167 -76.280581 
L 249.455426 -78.093008 
L 243.629685 -79.690144 
L 237.803943 -81.010633 
L 231.978202 -81.998543 
L 226.15246 -82.606688 
L 220.326719 -82.799625 
L 214.500977 -82.556076 
L 208.675236 -81.870551 
L 202.849494 -80.754033 
L 197.023753 -79.23363 
L 191.198011 -77.351215 
L 185.37227 -75.161143 
L 179.546528 -72.727239 
L 173.720787 -70.119282 
L 167.895045 -67.409277 
L 162.069304 -64.667799 
L 156.243562 -61.96067 
L 150.417821 -59.346202 
L 144.59208 -56.873144 
L 138.766338 -54.579429 
L 132.940597 -52.491718 
L 127.114855 -50.625675 
L 121.289114 -48.986857 
L 115.463372 -47.572074 
L 109.637631 -46.371033 
L 103.811889 -45.368108 
L 97.986148 -44.544101 
L 92.160406 -43.877845 
L 86.334665 -43.347597 
L 80.508923 -42.932152 
L 74.683182 -42.611669 
L 68.85744 -42.368223 
L 63.031699 -42.186102 
L 57.205957 -42.051917 
L 51.380216 -41.954534 
L 45.554475 -41.884915 
z
" style="stroke: #4c72b0"/>
    </defs>
    <g clip-path="url(#p400867366e)">
     <use xlink:href="#m02b5002613" x="0" y="291.021094" style="fill: #4c72b0; fill-opacity: 0.25; stroke: #4c72b0"/>
    </g>
   </g>
   <g id="patch_3">
    <path d="M 47.105 249.286875 
L 47.105 21.789375 
" style="fill: none; stroke: #cccccc; stroke-width: 1.25; stroke-linejoin: miter; stroke-linecap: square"/>
   </g>
   <g id="patch_4">
    <path d="M 47.105 249.286875 
L 1049.53535 249.286875 
" style="fill: none; stroke: #cccccc; stroke-width: 1.25; stroke-linejoin: miter; stroke-linecap: square"/>
   </g>
   <g id="text_29">
    <!-- KDE Plot of Execution Times -->
    <g style="fill: #262626" transform="translate(471.622362 15.789375) scale(0.12 -0.12)">
     <defs>
      <path id="ArialMT-4b" d="M 469 0 
L 469 4581 
L 1075 4581 
L 1075 2309 
L 3350 4581 
L 4172 4581 
L 2250 2725 
L 4256 0 
L 3456 0 
L 1825 2319 
L 1075 1588 
L 1075 0 
L 469 0 
z
" transform="scale(0.015625)"/>
      <path id="ArialMT-50" d="M 494 0 
L 494 4581 
L 2222 4581 
Q 2678 4581 2919 4538 
Q 3256 4481 3484 4323 
Q 3713 4166 3852 3881 
Q 3991 3597 3991 3256 
Q 3991 2672 3619 2267 
Q 3247 1863 2275 1863 
L 1100 1863 
L 1100 0 
L 494 0 
z
M 1100 2403 
L 2284 2403 
Q 2872 2403 3119 2622 
Q 3366 2841 3366 3238 
Q 3366 3525 3220 3729 
Q 3075 3934 2838 4000 
Q 2684 4041 2272 4041 
L 1100 4041 
L 1100 2403 
z
" transform="scale(0.015625)"/>
      <path id="ArialMT-6c" d="M 409 0 
L 409 4581 
L 972 4581 
L 972 0 
L 409 0 
z
" transform="scale(0.015625)"/>
      <path id="ArialMT-66" d="M 556 0 
L 556 2881 
L 59 2881 
L 59 3319 
L 556 3319 
L 556 3672 
Q 556 4006 616 4169 
Q 697 4388 901 4523 
Q 1106 4659 1475 4659 
Q 1713 4659 2000 4603 
L 1916 4113 
Q 1741 4144 1584 4144 
Q 1328 4144 1222 4034 
Q 1116 3925 1116 3625 
L 1116 3319 
L 1763 3319 
L 1763 2881 
L 1116 2881 
L 1116 0 
L 556 0 
z
" transform="scale(0.015625)"/>
     </defs>
     <use xlink:href="#ArialMT-4b"/>
     <use xlink:href="#ArialMT-44" x="66.699219"/>
     <use xlink:href="#ArialMT-45" x="138.916016"/>
     <use xlink:href="#ArialMT-20" x="205.615234"/>
     <use xlink:href="#ArialMT-50" x="233.398438"/>
     <use xlink:href="#ArialMT-6c" x="300.097656"/>
     <use xlink:href="#ArialMT-6f" x="322.314453"/>
     <use xlink:href="#ArialMT-74" x="377.929688"/>
     <use xlink:href="#ArialMT-20" x="405.712891"/>
     <use xlink:href="#ArialMT-6f" x="433.496094"/>
     <use xlink:href="#ArialMT-66" x="489.111328"/>
     <use xlink:href="#ArialMT-20" x="516.894531"/>
     <use xlink:href="#ArialMT-45" x="544.677734"/>
     <use xlink:href="#ArialMT-78" x="611.376953"/>
     <use xlink:href="#ArialMT-65" x="661.376953"/>
     <use xlink:href="#ArialMT-63" x="716.992188"/>
     <use xlink:href="#ArialMT-75" x="766.992188"/>
     <use xlink:href="#ArialMT-74" x="822.607422"/>
     <use xlink:href="#ArialMT-69" x="850.390625"/>
     <use xlink:href="#ArialMT-6f" x="872.607422"/>
     <use xlink:href="#ArialMT-6e" x="928.222656"/>
     <use xlink:href="#ArialMT-20" x="983.837891"/>
     <use xlink:href="#ArialMT-54" x="1009.871094"/>
     <use xlink:href="#ArialMT-69" x="1067.205078"/>
     <use xlink:href="#ArialMT-6d" x="1089.421875"/>
     <use xlink:href="#ArialMT-65" x="1172.722656"/>
     <use xlink:href="#ArialMT-73" x="1228.337891"/>
    </g>
   </g>
  </g>
  <g id="legend_1">
   <g id="text_30">
    <!-- model -->
    <g style="fill: #262626" transform="translate(1109.342031 125.138047) scale(0.12 -0.12)">
     <defs>
      <path id="ArialMT-64" d="M 2575 0 
L 2575 419 
Q 2259 -75 1647 -75 
Q 1250 -75 917 144 
Q 584 363 401 755 
Q 219 1147 219 1656 
Q 219 2153 384 2558 
Q 550 2963 881 3178 
Q 1213 3394 1622 3394 
Q 1922 3394 2156 3267 
Q 2391 3141 2538 2938 
L 2538 4581 
L 3097 4581 
L 3097 0 
L 2575 0 
z
M 797 1656 
Q 797 1019 1065 703 
Q 1334 388 1700 388 
Q 2069 388 2326 689 
Q 2584 991 2584 1609 
Q 2584 2291 2321 2609 
Q 2059 2928 1675 2928 
Q 1300 2928 1048 2622 
Q 797 2316 797 1656 
z
" transform="scale(0.015625)"/>
     </defs>
     <use xlink:href="#ArialMT-6d"/>
     <use xlink:href="#ArialMT-6f" x="83.300781"/>
     <use xlink:href="#ArialMT-64" x="138.916016"/>
     <use xlink:href="#ArialMT-65" x="194.53125"/>
     <use xlink:href="#ArialMT-6c" x="250.146484"/>
    </g>
   </g>
   <g id="patch_5">
    <path d="M 1074.826563 140.896641 
L 1096.826563 140.896641 
L 1096.826563 133.196641 
L 1074.826563 133.196641 
z
" style="fill: #4c72b0; fill-opacity: 0.25; stroke: #4c72b0; stroke-linejoin: miter"/>
   </g>
   <g id="text_31">
    <!-- GPT-4 -->
    <g style="fill: #262626" transform="translate(1105.626563 140.896641) scale(0.11 -0.11)">
     <defs>
      <path id="ArialMT-47" d="M 2638 1797 
L 2638 2334 
L 4578 2338 
L 4578 638 
Q 4131 281 3656 101 
Q 3181 -78 2681 -78 
Q 2006 -78 1454 211 
Q 903 500 622 1047 
Q 341 1594 341 2269 
Q 341 2938 620 3517 
Q 900 4097 1425 4378 
Q 1950 4659 2634 4659 
Q 3131 4659 3532 4498 
Q 3934 4338 4162 4050 
Q 4391 3763 4509 3300 
L 3963 3150 
Q 3859 3500 3706 3700 
Q 3553 3900 3268 4020 
Q 2984 4141 2638 4141 
Q 2222 4141 1919 4014 
Q 1616 3888 1430 3681 
Q 1244 3475 1141 3228 
Q 966 2803 966 2306 
Q 966 1694 1177 1281 
Q 1388 869 1791 669 
Q 2194 469 2647 469 
Q 3041 469 3416 620 
Q 3791 772 3984 944 
L 3984 1797 
L 2638 1797 
z
" transform="scale(0.015625)"/>
      <path id="ArialMT-2d" d="M 203 1375 
L 203 1941 
L 1931 1941 
L 1931 1375 
L 203 1375 
z
" transform="scale(0.015625)"/>
     </defs>
     <use xlink:href="#ArialMT-47"/>
     <use xlink:href="#ArialMT-50" x="77.783203"/>
     <use xlink:href="#ArialMT-54" x="144.482422"/>
     <use xlink:href="#ArialMT-2d" x="200.066406"/>
     <use xlink:href="#ArialMT-34" x="233.367188"/>
    </g>
   </g>
   <g id="patch_6">
    <path d="M 1074.826563 156.456484 
L 1096.826563 156.456484 
L 1096.826563 148.756484 
L 1074.826563 148.756484 
z
" style="fill: #dd8452; fill-opacity: 0.25; stroke: #dd8452; stroke-linejoin: miter"/>
   </g>
   <g id="text_32">
    <!-- GPT-4 Turbo -->
    <g style="fill: #262626" transform="translate(1105.626563 156.456484) scale(0.11 -0.11)">
     <defs>
      <path id="ArialMT-72" d="M 416 0 
L 416 3319 
L 922 3319 
L 922 2816 
Q 1116 3169 1280 3281 
Q 1444 3394 1641 3394 
Q 1925 3394 2219 3213 
L 2025 2691 
Q 1819 2813 1613 2813 
Q 1428 2813 1281 2702 
Q 1134 2591 1072 2394 
Q 978 2094 978 1738 
L 978 0 
L 416 0 
z
" transform="scale(0.015625)"/>
      <path id="ArialMT-62" d="M 941 0 
L 419 0 
L 419 4581 
L 981 4581 
L 981 2947 
Q 1338 3394 1891 3394 
Q 2197 3394 2470 3270 
Q 2744 3147 2920 2923 
Q 3097 2700 3197 2384 
Q 3297 2069 3297 1709 
Q 3297 856 2875 390 
Q 2453 -75 1863 -75 
Q 1275 -75 941 416 
L 941 0 
z
M 934 1684 
Q 934 1088 1097 822 
Q 1363 388 1816 388 
Q 2184 388 2453 708 
Q 2722 1028 2722 1663 
Q 2722 2313 2464 2622 
Q 2206 2931 1841 2931 
Q 1472 2931 1203 2611 
Q 934 2291 934 1684 
z
" transform="scale(0.015625)"/>
     </defs>
     <use xlink:href="#ArialMT-47"/>
     <use xlink:href="#ArialMT-50" x="77.783203"/>
     <use xlink:href="#ArialMT-54" x="144.482422"/>
     <use xlink:href="#ArialMT-2d" x="200.066406"/>
     <use xlink:href="#ArialMT-34" x="233.367188"/>
     <use xlink:href="#ArialMT-20" x="288.982422"/>
     <use xlink:href="#ArialMT-54" x="315.015625"/>
     <use xlink:href="#ArialMT-75" x="372.349609"/>
     <use xlink:href="#ArialMT-72" x="427.964844"/>
     <use xlink:href="#ArialMT-62" x="461.265625"/>
     <use xlink:href="#ArialMT-6f" x="516.880859"/>
    </g>
   </g>
   <g id="patch_7">
    <path d="M 1074.826563 172.157266 
L 1096.826563 172.157266 
L 1096.826563 164.457266 
L 1074.826563 164.457266 
z
" style="fill: #55a868; fill-opacity: 0.25; stroke: #55a868; stroke-linejoin: miter"/>
   </g>
   <g id="text_33">
    <!-- GPT-4 Omega -->
    <g style="fill: #262626" transform="translate(1105.626563 172.157266) scale(0.11 -0.11)">
     <defs>
      <path id="ArialMT-4f" d="M 309 2231 
Q 309 3372 921 4017 
Q 1534 4663 2503 4663 
Q 3138 4663 3647 4359 
Q 4156 4056 4423 3514 
Q 4691 2972 4691 2284 
Q 4691 1588 4409 1038 
Q 4128 488 3612 205 
Q 3097 -78 2500 -78 
Q 1853 -78 1343 234 
Q 834 547 571 1087 
Q 309 1628 309 2231 
z
M 934 2222 
Q 934 1394 1379 917 
Q 1825 441 2497 441 
Q 3181 441 3623 922 
Q 4066 1403 4066 2288 
Q 4066 2847 3877 3264 
Q 3688 3681 3323 3911 
Q 2959 4141 2506 4141 
Q 1863 4141 1398 3698 
Q 934 3256 934 2222 
z
" transform="scale(0.015625)"/>
      <path id="ArialMT-67" d="M 319 -275 
L 866 -356 
Q 900 -609 1056 -725 
Q 1266 -881 1628 -881 
Q 2019 -881 2231 -725 
Q 2444 -569 2519 -288 
Q 2563 -116 2559 434 
Q 2191 0 1641 0 
Q 956 0 581 494 
Q 206 988 206 1678 
Q 206 2153 378 2554 
Q 550 2956 876 3175 
Q 1203 3394 1644 3394 
Q 2231 3394 2613 2919 
L 2613 3319 
L 3131 3319 
L 3131 450 
Q 3131 -325 2973 -648 
Q 2816 -972 2473 -1159 
Q 2131 -1347 1631 -1347 
Q 1038 -1347 672 -1080 
Q 306 -813 319 -275 
z
M 784 1719 
Q 784 1066 1043 766 
Q 1303 466 1694 466 
Q 2081 466 2343 764 
Q 2606 1063 2606 1700 
Q 2606 2309 2336 2618 
Q 2066 2928 1684 2928 
Q 1309 2928 1046 2623 
Q 784 2319 784 1719 
z
" transform="scale(0.015625)"/>
      <path id="ArialMT-61" d="M 2588 409 
Q 2275 144 1986 34 
Q 1697 -75 1366 -75 
Q 819 -75 525 192 
Q 231 459 231 875 
Q 231 1119 342 1320 
Q 453 1522 633 1644 
Q 813 1766 1038 1828 
Q 1203 1872 1538 1913 
Q 2219 1994 2541 2106 
Q 2544 2222 2544 2253 
Q 2544 2597 2384 2738 
Q 2169 2928 1744 2928 
Q 1347 2928 1158 2789 
Q 969 2650 878 2297 
L 328 2372 
Q 403 2725 575 2942 
Q 747 3159 1072 3276 
Q 1397 3394 1825 3394 
Q 2250 3394 2515 3294 
Q 2781 3194 2906 3042 
Q 3031 2891 3081 2659 
Q 3109 2516 3109 2141 
L 3109 1391 
Q 3109 606 3145 398 
Q 3181 191 3288 0 
L 2700 0 
Q 2613 175 2588 409 
z
M 2541 1666 
Q 2234 1541 1622 1453 
Q 1275 1403 1131 1340 
Q 988 1278 909 1158 
Q 831 1038 831 891 
Q 831 666 1001 516 
Q 1172 366 1500 366 
Q 1825 366 2078 508 
Q 2331 650 2450 897 
Q 2541 1088 2541 1459 
L 2541 1666 
z
" transform="scale(0.015625)"/>
     </defs>
     <use xlink:href="#ArialMT-47"/>
     <use xlink:href="#ArialMT-50" x="77.783203"/>
     <use xlink:href="#ArialMT-54" x="144.482422"/>
     <use xlink:href="#ArialMT-2d" x="200.066406"/>
     <use xlink:href="#ArialMT-34" x="233.367188"/>
     <use xlink:href="#ArialMT-20" x="288.982422"/>
     <use xlink:href="#ArialMT-4f" x="316.765625"/>
     <use xlink:href="#ArialMT-6d" x="394.548828"/>
     <use xlink:href="#ArialMT-65" x="477.849609"/>
     <use xlink:href="#ArialMT-67" x="533.464844"/>
     <use xlink:href="#ArialMT-61" x="589.080078"/>
    </g>
   </g>
  </g>
 </g>
 <defs>
  <clipPath id="p400867366e">
   <rect x="47.105" y="21.789375" width="1002.43035" height="227.4975"/>
  </clipPath>
 </defs>
</svg>
