<?xml version="1.0" encoding="utf-8" standalone="no"?>
<!DOCTYPE svg PUBLIC "-//W3C//DTD SVG 1.1//EN"
  "http://www.w3.org/Graphics/SVG/1.1/DTD/svg11.dtd">
<svg xmlns:xlink="http://www.w3.org/1999/xlink" width="1186.43875pt" height="291.021094pt" viewBox="0 0 1186.43875 291.021094" xmlns="http://www.w3.org/2000/svg" version="1.1">
 <metadata>
  <rdf:RDF xmlns:dc="http://purl.org/dc/elements/1.1/" xmlns:cc="http://creativecommons.org/ns#" xmlns:rdf="http://www.w3.org/1999/02/22-rdf-syntax-ns#">
   <cc:Work>
    <dc:type rdf:resource="http://purl.org/dc/dcmitype/StillImage"/>
    <dc:date>2024-05-27T14:49:04.284068</dc:date>
    <dc:format>image/svg+xml</dc:format>
    <dc:creator>
     <cc:Agent>
      <dc:title>Matplotlib v3.8.1, https://matplotlib.org/</dc:title>
     </cc:Agent>
    </dc:creator>
   </cc:Work>
  </rdf:RDF>
 </metadata>
 <defs>
  <style type="text/css">*{stroke-linejoin: round; stroke-linecap: butt}</style>
 </defs>
 <g id="figure_1">
  <g id="patch_1">
   <path d="M 0 291.021094 
L 1186.43875 291.021094 
L 1186.43875 0 
L 0 0 
z
" style="fill: #ffffff"/>
  </g>
  <g id="axes_1">
   <g id="patch_2">
    <path d="M 47.105 249.286875 
L 1049.53535 249.286875 
L 1049.53535 21.789375 
L 47.105 21.789375 
z
" style="fill: #ffffff"/>
   </g>
   <g id="matplotlib.axis_1">
    <g id="xtick_1">
     <g id="line2d_1">
      <path d="M 138.235032 249.286875 
L 138.235032 21.789375 
" clip-path="url(#pf222b77edf)" style="fill: none; stroke: #cccccc; stroke-linecap: round"/>
     </g>
     <g id="text_1">
      <!-- 0.0 -->
      <g style="fill: #262626" transform="translate(130.590032 266.660469) scale(0.11 -0.11)">
       <defs>
        <path id="ArialMT-30" d="M 266 2259 
Q 266 3072 433 3567 
Q 600 4063 929 4331 
Q 1259 4600 1759 4600 
Q 2128 4600 2406 4451 
Q 2684 4303 2865 4023 
Q 3047 3744 3150 3342 
Q 3253 2941 3253 2259 
Q 3253 1453 3087 958 
Q 2922 463 2592 192 
Q 2263 -78 1759 -78 
Q 1097 -78 719 397 
Q 266 969 266 2259 
z
M 844 2259 
Q 844 1131 1108 757 
Q 1372 384 1759 384 
Q 2147 384 2411 759 
Q 2675 1134 2675 2259 
Q 2675 3391 2411 3762 
Q 2147 4134 1753 4134 
Q 1366 4134 1134 3806 
Q 844 3388 844 2259 
z
" transform="scale(0.015625)"/>
        <path id="ArialMT-2e" d="M 581 0 
L 581 641 
L 1222 641 
L 1222 0 
L 581 0 
z
" transform="scale(0.015625)"/>
       </defs>
       <use xlink:href="#ArialMT-30"/>
       <use xlink:href="#ArialMT-2e" x="55.615234"/>
       <use xlink:href="#ArialMT-30" x="83.398438"/>
      </g>
     </g>
    </g>
    <g id="xtick_2">
     <g id="line2d_2">
      <path d="M 183.800048 249.286875 
L 183.800048 21.789375 
" clip-path="url(#pf222b77edf)" style="fill: none; stroke: #cccccc; stroke-linecap: round"/>
     </g>
     <g id="text_2">
      <!-- 0.5 -->
      <g style="fill: #262626" transform="translate(176.155048 266.660469) scale(0.11 -0.11)">
       <defs>
        <path id="ArialMT-35" d="M 266 1200 
L 856 1250 
Q 922 819 1161 601 
Q 1400 384 1738 384 
Q 2144 384 2425 690 
Q 2706 997 2706 1503 
Q 2706 1984 2436 2262 
Q 2166 2541 1728 2541 
Q 1456 2541 1237 2417 
Q 1019 2294 894 2097 
L 366 2166 
L 809 4519 
L 3088 4519 
L 3088 3981 
L 1259 3981 
L 1013 2750 
Q 1425 3038 1878 3038 
Q 2478 3038 2890 2622 
Q 3303 2206 3303 1553 
Q 3303 931 2941 478 
Q 2500 -78 1738 -78 
Q 1113 -78 717 272 
Q 322 622 266 1200 
z
" transform="scale(0.015625)"/>
       </defs>
       <use xlink:href="#ArialMT-30"/>
       <use xlink:href="#ArialMT-2e" x="55.615234"/>
       <use xlink:href="#ArialMT-35" x="83.398438"/>
      </g>
     </g>
    </g>
    <g id="xtick_3">
     <g id="line2d_3">
      <path d="M 229.365064 249.286875 
L 229.365064 21.789375 
" clip-path="url(#pf222b77edf)" style="fill: none; stroke: #cccccc; stroke-linecap: round"/>
     </g>
     <g id="text_3">
      <!-- 1.0 -->
      <g style="fill: #262626" transform="translate(221.720064 266.660469) scale(0.11 -0.11)">
       <defs>
        <path id="ArialMT-31" d="M 2384 0 
L 1822 0 
L 1822 3584 
Q 1619 3391 1289 3197 
Q 959 3003 697 2906 
L 697 3450 
Q 1169 3672 1522 3987 
Q 1875 4303 2022 4600 
L 2384 4600 
L 2384 0 
z
" transform="scale(0.015625)"/>
       </defs>
       <use xlink:href="#ArialMT-31"/>
       <use xlink:href="#ArialMT-2e" x="55.615234"/>
       <use xlink:href="#ArialMT-30" x="83.398438"/>
      </g>
     </g>
    </g>
    <g id="xtick_4">
     <g id="line2d_4">
      <path d="M 274.93008 249.286875 
L 274.93008 21.789375 
" clip-path="url(#pf222b77edf)" style="fill: none; stroke: #cccccc; stroke-linecap: round"/>
     </g>
     <g id="text_4">
      <!-- 1.5 -->
      <g style="fill: #262626" transform="translate(267.28508 266.660469) scale(0.11 -0.11)">
       <use xlink:href="#ArialMT-31"/>
       <use xlink:href="#ArialMT-2e" x="55.615234"/>
       <use xlink:href="#ArialMT-35" x="83.398438"/>
      </g>
     </g>
    </g>
    <g id="xtick_5">
     <g id="line2d_5">
      <path d="M 320.495095 249.286875 
L 320.495095 21.789375 
" clip-path="url(#pf222b77edf)" style="fill: none; stroke: #cccccc; stroke-linecap: round"/>
     </g>
     <g id="text_5">
      <!-- 2.0 -->
      <g style="fill: #262626" transform="translate(312.850095 266.660469) scale(0.11 -0.11)">
       <defs>
        <path id="ArialMT-32" d="M 3222 541 
L 3222 0 
L 194 0 
Q 188 203 259 391 
Q 375 700 629 1000 
Q 884 1300 1366 1694 
Q 2113 2306 2375 2664 
Q 2638 3022 2638 3341 
Q 2638 3675 2398 3904 
Q 2159 4134 1775 4134 
Q 1369 4134 1125 3890 
Q 881 3647 878 3216 
L 300 3275 
Q 359 3922 746 4261 
Q 1134 4600 1788 4600 
Q 2447 4600 2831 4234 
Q 3216 3869 3216 3328 
Q 3216 3053 3103 2787 
Q 2991 2522 2730 2228 
Q 2469 1934 1863 1422 
Q 1356 997 1212 845 
Q 1069 694 975 541 
L 3222 541 
z
" transform="scale(0.015625)"/>
       </defs>
       <use xlink:href="#ArialMT-32"/>
       <use xlink:href="#ArialMT-2e" x="55.615234"/>
       <use xlink:href="#ArialMT-30" x="83.398438"/>
      </g>
     </g>
    </g>
    <g id="xtick_6">
     <g id="line2d_6">
      <path d="M 366.060111 249.286875 
L 366.060111 21.789375 
" clip-path="url(#pf222b77edf)" style="fill: none; stroke: #cccccc; stroke-linecap: round"/>
     </g>
     <g id="text_6">
      <!-- 2.5 -->
      <g style="fill: #262626" transform="translate(358.415111 266.660469) scale(0.11 -0.11)">
       <use xlink:href="#ArialMT-32"/>
       <use xlink:href="#ArialMT-2e" x="55.615234"/>
       <use xlink:href="#ArialMT-35" x="83.398438"/>
      </g>
     </g>
    </g>
    <g id="xtick_7">
     <g id="line2d_7">
      <path d="M 411.625127 249.286875 
L 411.625127 21.789375 
" clip-path="url(#pf222b77edf)" style="fill: none; stroke: #cccccc; stroke-linecap: round"/>
     </g>
     <g id="text_7">
      <!-- 3.0 -->
      <g style="fill: #262626" transform="translate(403.980127 266.660469) scale(0.11 -0.11)">
       <defs>
        <path id="ArialMT-33" d="M 269 1209 
L 831 1284 
Q 928 806 1161 595 
Q 1394 384 1728 384 
Q 2125 384 2398 659 
Q 2672 934 2672 1341 
Q 2672 1728 2419 1979 
Q 2166 2231 1775 2231 
Q 1616 2231 1378 2169 
L 1441 2663 
Q 1497 2656 1531 2656 
Q 1891 2656 2178 2843 
Q 2466 3031 2466 3422 
Q 2466 3731 2256 3934 
Q 2047 4138 1716 4138 
Q 1388 4138 1169 3931 
Q 950 3725 888 3313 
L 325 3413 
Q 428 3978 793 4289 
Q 1159 4600 1703 4600 
Q 2078 4600 2393 4439 
Q 2709 4278 2876 4000 
Q 3044 3722 3044 3409 
Q 3044 3113 2884 2869 
Q 2725 2625 2413 2481 
Q 2819 2388 3044 2092 
Q 3269 1797 3269 1353 
Q 3269 753 2831 336 
Q 2394 -81 1725 -81 
Q 1122 -81 723 278 
Q 325 638 269 1209 
z
" transform="scale(0.015625)"/>
       </defs>
       <use xlink:href="#ArialMT-33"/>
       <use xlink:href="#ArialMT-2e" x="55.615234"/>
       <use xlink:href="#ArialMT-30" x="83.398438"/>
      </g>
     </g>
    </g>
    <g id="xtick_8">
     <g id="line2d_8">
      <path d="M 457.190143 249.286875 
L 457.190143 21.789375 
" clip-path="url(#pf222b77edf)" style="fill: none; stroke: #cccccc; stroke-linecap: round"/>
     </g>
     <g id="text_8">
      <!-- 3.5 -->
      <g style="fill: #262626" transform="translate(449.545143 266.660469) scale(0.11 -0.11)">
       <use xlink:href="#ArialMT-33"/>
       <use xlink:href="#ArialMT-2e" x="55.615234"/>
       <use xlink:href="#ArialMT-35" x="83.398438"/>
      </g>
     </g>
    </g>
    <g id="xtick_9">
     <g id="line2d_9">
      <path d="M 502.755159 249.286875 
L 502.755159 21.789375 
" clip-path="url(#pf222b77edf)" style="fill: none; stroke: #cccccc; stroke-linecap: round"/>
     </g>
     <g id="text_9">
      <!-- 4.0 -->
      <g style="fill: #262626" transform="translate(495.110159 266.660469) scale(0.11 -0.11)">
       <defs>
        <path id="ArialMT-34" d="M 2069 0 
L 2069 1097 
L 81 1097 
L 81 1613 
L 2172 4581 
L 2631 4581 
L 2631 1613 
L 3250 1613 
L 3250 1097 
L 2631 1097 
L 2631 0 
L 2069 0 
z
M 2069 1613 
L 2069 3678 
L 634 1613 
L 2069 1613 
z
" transform="scale(0.015625)"/>
       </defs>
       <use xlink:href="#ArialMT-34"/>
       <use xlink:href="#ArialMT-2e" x="55.615234"/>
       <use xlink:href="#ArialMT-30" x="83.398438"/>
      </g>
     </g>
    </g>
    <g id="xtick_10">
     <g id="line2d_10">
      <path d="M 548.320175 249.286875 
L 548.320175 21.789375 
" clip-path="url(#pf222b77edf)" style="fill: none; stroke: #cccccc; stroke-linecap: round"/>
     </g>
     <g id="text_10">
      <!-- 4.5 -->
      <g style="fill: #262626" transform="translate(540.675175 266.660469) scale(0.11 -0.11)">
       <use xlink:href="#ArialMT-34"/>
       <use xlink:href="#ArialMT-2e" x="55.615234"/>
       <use xlink:href="#ArialMT-35" x="83.398438"/>
      </g>
     </g>
    </g>
    <g id="xtick_11">
     <g id="line2d_11">
      <path d="M 593.885191 249.286875 
L 593.885191 21.789375 
" clip-path="url(#pf222b77edf)" style="fill: none; stroke: #cccccc; stroke-linecap: round"/>
     </g>
     <g id="text_11">
      <!-- 5.0 -->
      <g style="fill: #262626" transform="translate(586.240191 266.660469) scale(0.11 -0.11)">
       <use xlink:href="#ArialMT-35"/>
       <use xlink:href="#ArialMT-2e" x="55.615234"/>
       <use xlink:href="#ArialMT-30" x="83.398438"/>
      </g>
     </g>
    </g>
    <g id="xtick_12">
     <g id="line2d_12">
      <path d="M 639.450207 249.286875 
L 639.450207 21.789375 
" clip-path="url(#pf222b77edf)" style="fill: none; stroke: #cccccc; stroke-linecap: round"/>
     </g>
     <g id="text_12">
      <!-- 5.5 -->
      <g style="fill: #262626" transform="translate(631.805207 266.660469) scale(0.11 -0.11)">
       <use xlink:href="#ArialMT-35"/>
       <use xlink:href="#ArialMT-2e" x="55.615234"/>
       <use xlink:href="#ArialMT-35" x="83.398438"/>
      </g>
     </g>
    </g>
    <g id="xtick_13">
     <g id="line2d_13">
      <path d="M 685.015223 249.286875 
L 685.015223 21.789375 
" clip-path="url(#pf222b77edf)" style="fill: none; stroke: #cccccc; stroke-linecap: round"/>
     </g>
     <g id="text_13">
      <!-- 6.0 -->
      <g style="fill: #262626" transform="translate(677.370223 266.660469) scale(0.11 -0.11)">
       <defs>
        <path id="ArialMT-36" d="M 3184 3459 
L 2625 3416 
Q 2550 3747 2413 3897 
Q 2184 4138 1850 4138 
Q 1581 4138 1378 3988 
Q 1113 3794 959 3422 
Q 806 3050 800 2363 
Q 1003 2672 1297 2822 
Q 1591 2972 1913 2972 
Q 2475 2972 2870 2558 
Q 3266 2144 3266 1488 
Q 3266 1056 3080 686 
Q 2894 316 2569 119 
Q 2244 -78 1831 -78 
Q 1128 -78 684 439 
Q 241 956 241 2144 
Q 241 3472 731 4075 
Q 1159 4600 1884 4600 
Q 2425 4600 2770 4297 
Q 3116 3994 3184 3459 
z
M 888 1484 
Q 888 1194 1011 928 
Q 1134 663 1356 523 
Q 1578 384 1822 384 
Q 2178 384 2434 671 
Q 2691 959 2691 1453 
Q 2691 1928 2437 2201 
Q 2184 2475 1800 2475 
Q 1419 2475 1153 2201 
Q 888 1928 888 1484 
z
" transform="scale(0.015625)"/>
       </defs>
       <use xlink:href="#ArialMT-36"/>
       <use xlink:href="#ArialMT-2e" x="55.615234"/>
       <use xlink:href="#ArialMT-30" x="83.398438"/>
      </g>
     </g>
    </g>
    <g id="xtick_14">
     <g id="line2d_14">
      <path d="M 730.580239 249.286875 
L 730.580239 21.789375 
" clip-path="url(#pf222b77edf)" style="fill: none; stroke: #cccccc; stroke-linecap: round"/>
     </g>
     <g id="text_14">
      <!-- 6.5 -->
      <g style="fill: #262626" transform="translate(722.935239 266.660469) scale(0.11 -0.11)">
       <use xlink:href="#ArialMT-36"/>
       <use xlink:href="#ArialMT-2e" x="55.615234"/>
       <use xlink:href="#ArialMT-35" x="83.398438"/>
      </g>
     </g>
    </g>
    <g id="xtick_15">
     <g id="line2d_15">
      <path d="M 776.145255 249.286875 
L 776.145255 21.789375 
" clip-path="url(#pf222b77edf)" style="fill: none; stroke: #cccccc; stroke-linecap: round"/>
     </g>
     <g id="text_15">
      <!-- 7.0 -->
      <g style="fill: #262626" transform="translate(768.500255 266.660469) scale(0.11 -0.11)">
       <defs>
        <path id="ArialMT-37" d="M 303 3981 
L 303 4522 
L 3269 4522 
L 3269 4084 
Q 2831 3619 2401 2847 
Q 1972 2075 1738 1259 
Q 1569 684 1522 0 
L 944 0 
Q 953 541 1156 1306 
Q 1359 2072 1739 2783 
Q 2119 3494 2547 3981 
L 303 3981 
z
" transform="scale(0.015625)"/>
       </defs>
       <use xlink:href="#ArialMT-37"/>
       <use xlink:href="#ArialMT-2e" x="55.615234"/>
       <use xlink:href="#ArialMT-30" x="83.398438"/>
      </g>
     </g>
    </g>
    <g id="xtick_16">
     <g id="line2d_16">
      <path d="M 821.71027 249.286875 
L 821.71027 21.789375 
" clip-path="url(#pf222b77edf)" style="fill: none; stroke: #cccccc; stroke-linecap: round"/>
     </g>
     <g id="text_16">
      <!-- 7.5 -->
      <g style="fill: #262626" transform="translate(814.06527 266.660469) scale(0.11 -0.11)">
       <use xlink:href="#ArialMT-37"/>
       <use xlink:href="#ArialMT-2e" x="55.615234"/>
       <use xlink:href="#ArialMT-35" x="83.398438"/>
      </g>
     </g>
    </g>
    <g id="xtick_17">
     <g id="line2d_17">
      <path d="M 867.275286 249.286875 
L 867.275286 21.789375 
" clip-path="url(#pf222b77edf)" style="fill: none; stroke: #cccccc; stroke-linecap: round"/>
     </g>
     <g id="text_17">
      <!-- 8.0 -->
      <g style="fill: #262626" transform="translate(859.630286 266.660469) scale(0.11 -0.11)">
       <defs>
        <path id="ArialMT-38" d="M 1131 2484 
Q 781 2613 612 2850 
Q 444 3088 444 3419 
Q 444 3919 803 4259 
Q 1163 4600 1759 4600 
Q 2359 4600 2725 4251 
Q 3091 3903 3091 3403 
Q 3091 3084 2923 2848 
Q 2756 2613 2416 2484 
Q 2838 2347 3058 2040 
Q 3278 1734 3278 1309 
Q 3278 722 2862 322 
Q 2447 -78 1769 -78 
Q 1091 -78 675 323 
Q 259 725 259 1325 
Q 259 1772 486 2073 
Q 713 2375 1131 2484 
z
M 1019 3438 
Q 1019 3113 1228 2906 
Q 1438 2700 1772 2700 
Q 2097 2700 2305 2904 
Q 2513 3109 2513 3406 
Q 2513 3716 2298 3927 
Q 2084 4138 1766 4138 
Q 1444 4138 1231 3931 
Q 1019 3725 1019 3438 
z
M 838 1322 
Q 838 1081 952 856 
Q 1066 631 1291 507 
Q 1516 384 1775 384 
Q 2178 384 2440 643 
Q 2703 903 2703 1303 
Q 2703 1709 2433 1975 
Q 2163 2241 1756 2241 
Q 1359 2241 1098 1978 
Q 838 1716 838 1322 
z
" transform="scale(0.015625)"/>
       </defs>
       <use xlink:href="#ArialMT-38"/>
       <use xlink:href="#ArialMT-2e" x="55.615234"/>
       <use xlink:href="#ArialMT-30" x="83.398438"/>
      </g>
     </g>
    </g>
    <g id="xtick_18">
     <g id="line2d_18">
      <path d="M 912.840302 249.286875 
L 912.840302 21.789375 
" clip-path="url(#pf222b77edf)" style="fill: none; stroke: #cccccc; stroke-linecap: round"/>
     </g>
     <g id="text_18">
      <!-- 8.5 -->
      <g style="fill: #262626" transform="translate(905.195302 266.660469) scale(0.11 -0.11)">
       <use xlink:href="#ArialMT-38"/>
       <use xlink:href="#ArialMT-2e" x="55.615234"/>
       <use xlink:href="#ArialMT-35" x="83.398438"/>
      </g>
     </g>
    </g>
    <g id="xtick_19">
     <g id="line2d_19">
      <path d="M 958.405318 249.286875 
L 958.405318 21.789375 
" clip-path="url(#pf222b77edf)" style="fill: none; stroke: #cccccc; stroke-linecap: round"/>
     </g>
     <g id="text_19">
      <!-- 9.0 -->
      <g style="fill: #262626" transform="translate(950.760318 266.660469) scale(0.11 -0.11)">
       <defs>
        <path id="ArialMT-39" d="M 350 1059 
L 891 1109 
Q 959 728 1153 556 
Q 1347 384 1650 384 
Q 1909 384 2104 503 
Q 2300 622 2425 820 
Q 2550 1019 2634 1356 
Q 2719 1694 2719 2044 
Q 2719 2081 2716 2156 
Q 2547 1888 2255 1720 
Q 1963 1553 1622 1553 
Q 1053 1553 659 1965 
Q 266 2378 266 3053 
Q 266 3750 677 4175 
Q 1088 4600 1706 4600 
Q 2153 4600 2523 4359 
Q 2894 4119 3086 3673 
Q 3278 3228 3278 2384 
Q 3278 1506 3087 986 
Q 2897 466 2520 194 
Q 2144 -78 1638 -78 
Q 1100 -78 759 220 
Q 419 519 350 1059 
z
M 2653 3081 
Q 2653 3566 2395 3850 
Q 2138 4134 1775 4134 
Q 1400 4134 1122 3828 
Q 844 3522 844 3034 
Q 844 2597 1108 2323 
Q 1372 2050 1759 2050 
Q 2150 2050 2401 2323 
Q 2653 2597 2653 3081 
z
" transform="scale(0.015625)"/>
       </defs>
       <use xlink:href="#ArialMT-39"/>
       <use xlink:href="#ArialMT-2e" x="55.615234"/>
       <use xlink:href="#ArialMT-30" x="83.398438"/>
      </g>
     </g>
    </g>
    <g id="xtick_20">
     <g id="line2d_20">
      <path d="M 1003.970334 249.286875 
L 1003.970334 21.789375 
" clip-path="url(#pf222b77edf)" style="fill: none; stroke: #cccccc; stroke-linecap: round"/>
     </g>
     <g id="text_20">
      <!-- 9.5 -->
      <g style="fill: #262626" transform="translate(996.325334 266.660469) scale(0.11 -0.11)">
       <use xlink:href="#ArialMT-39"/>
       <use xlink:href="#ArialMT-2e" x="55.615234"/>
       <use xlink:href="#ArialMT-35" x="83.398438"/>
      </g>
     </g>
    </g>
    <g id="xtick_21">
     <g id="line2d_21">
      <path d="M 1049.53535 249.286875 
L 1049.53535 21.789375 
" clip-path="url(#pf222b77edf)" style="fill: none; stroke: #cccccc; stroke-linecap: round"/>
     </g>
     <g id="text_21">
      <!-- 10.0 -->
      <g style="fill: #262626" transform="translate(1038.831834 266.660469) scale(0.11 -0.11)">
       <use xlink:href="#ArialMT-31"/>
       <use xlink:href="#ArialMT-30" x="55.615234"/>
       <use xlink:href="#ArialMT-2e" x="111.230469"/>
       <use xlink:href="#ArialMT-30" x="139.013672"/>
      </g>
     </g>
    </g>
    <g id="text_22">
     <!-- Execution Time -->
     <g style="fill: #262626" transform="translate(507.302675 281.436094) scale(0.12 -0.12)">
      <defs>
       <path id="ArialMT-45" d="M 506 0 
L 506 4581 
L 3819 4581 
L 3819 4041 
L 1113 4041 
L 1113 2638 
L 3647 2638 
L 3647 2100 
L 1113 2100 
L 1113 541 
L 3925 541 
L 3925 0 
L 506 0 
z
" transform="scale(0.015625)"/>
       <path id="ArialMT-78" d="M 47 0 
L 1259 1725 
L 138 3319 
L 841 3319 
L 1350 2541 
Q 1494 2319 1581 2169 
Q 1719 2375 1834 2534 
L 2394 3319 
L 3066 3319 
L 1919 1756 
L 3153 0 
L 2463 0 
L 1781 1031 
L 1600 1309 
L 728 0 
L 47 0 
z
" transform="scale(0.015625)"/>
       <path id="ArialMT-65" d="M 2694 1069 
L 3275 997 
Q 3138 488 2766 206 
Q 2394 -75 1816 -75 
Q 1088 -75 661 373 
Q 234 822 234 1631 
Q 234 2469 665 2931 
Q 1097 3394 1784 3394 
Q 2450 3394 2872 2941 
Q 3294 2488 3294 1666 
Q 3294 1616 3291 1516 
L 816 1516 
Q 847 969 1125 678 
Q 1403 388 1819 388 
Q 2128 388 2347 550 
Q 2566 713 2694 1069 
z
M 847 1978 
L 2700 1978 
Q 2663 2397 2488 2606 
Q 2219 2931 1791 2931 
Q 1403 2931 1139 2672 
Q 875 2413 847 1978 
z
" transform="scale(0.015625)"/>
       <path id="ArialMT-63" d="M 2588 1216 
L 3141 1144 
Q 3050 572 2676 248 
Q 2303 -75 1759 -75 
Q 1078 -75 664 370 
Q 250 816 250 1647 
Q 250 2184 428 2587 
Q 606 2991 970 3192 
Q 1334 3394 1763 3394 
Q 2303 3394 2647 3120 
Q 2991 2847 3088 2344 
L 2541 2259 
Q 2463 2594 2264 2762 
Q 2066 2931 1784 2931 
Q 1359 2931 1093 2626 
Q 828 2322 828 1663 
Q 828 994 1084 691 
Q 1341 388 1753 388 
Q 2084 388 2306 591 
Q 2528 794 2588 1216 
z
" transform="scale(0.015625)"/>
       <path id="ArialMT-75" d="M 2597 0 
L 2597 488 
Q 2209 -75 1544 -75 
Q 1250 -75 995 37 
Q 741 150 617 320 
Q 494 491 444 738 
Q 409 903 409 1263 
L 409 3319 
L 972 3319 
L 972 1478 
Q 972 1038 1006 884 
Q 1059 663 1231 536 
Q 1403 409 1656 409 
Q 1909 409 2131 539 
Q 2353 669 2445 892 
Q 2538 1116 2538 1541 
L 2538 3319 
L 3100 3319 
L 3100 0 
L 2597 0 
z
" transform="scale(0.015625)"/>
       <path id="ArialMT-74" d="M 1650 503 
L 1731 6 
Q 1494 -44 1306 -44 
Q 1000 -44 831 53 
Q 663 150 594 308 
Q 525 466 525 972 
L 525 2881 
L 113 2881 
L 113 3319 
L 525 3319 
L 525 4141 
L 1084 4478 
L 1084 3319 
L 1650 3319 
L 1650 2881 
L 1084 2881 
L 1084 941 
Q 1084 700 1114 631 
Q 1144 563 1211 522 
Q 1278 481 1403 481 
Q 1497 481 1650 503 
z
" transform="scale(0.015625)"/>
       <path id="ArialMT-69" d="M 425 3934 
L 425 4581 
L 988 4581 
L 988 3934 
L 425 3934 
z
M 425 0 
L 425 3319 
L 988 3319 
L 988 0 
L 425 0 
z
" transform="scale(0.015625)"/>
       <path id="ArialMT-6f" d="M 213 1659 
Q 213 2581 725 3025 
Q 1153 3394 1769 3394 
Q 2453 3394 2887 2945 
Q 3322 2497 3322 1706 
Q 3322 1066 3130 698 
Q 2938 331 2570 128 
Q 2203 -75 1769 -75 
Q 1072 -75 642 372 
Q 213 819 213 1659 
z
M 791 1659 
Q 791 1022 1069 705 
Q 1347 388 1769 388 
Q 2188 388 2466 706 
Q 2744 1025 2744 1678 
Q 2744 2294 2464 2611 
Q 2184 2928 1769 2928 
Q 1347 2928 1069 2612 
Q 791 2297 791 1659 
z
" transform="scale(0.015625)"/>
       <path id="ArialMT-6e" d="M 422 0 
L 422 3319 
L 928 3319 
L 928 2847 
Q 1294 3394 1984 3394 
Q 2284 3394 2536 3286 
Q 2788 3178 2913 3003 
Q 3038 2828 3088 2588 
Q 3119 2431 3119 2041 
L 3119 0 
L 2556 0 
L 2556 2019 
Q 2556 2363 2490 2533 
Q 2425 2703 2258 2804 
Q 2091 2906 1866 2906 
Q 1506 2906 1245 2678 
Q 984 2450 984 1813 
L 984 0 
L 422 0 
z
" transform="scale(0.015625)"/>
       <path id="ArialMT-20" transform="scale(0.015625)"/>
       <path id="ArialMT-54" d="M 1659 0 
L 1659 4041 
L 150 4041 
L 150 4581 
L 3781 4581 
L 3781 4041 
L 2266 4041 
L 2266 0 
L 1659 0 
z
" transform="scale(0.015625)"/>
       <path id="ArialMT-6d" d="M 422 0 
L 422 3319 
L 925 3319 
L 925 2853 
Q 1081 3097 1340 3245 
Q 1600 3394 1931 3394 
Q 2300 3394 2536 3241 
Q 2772 3088 2869 2813 
Q 3263 3394 3894 3394 
Q 4388 3394 4653 3120 
Q 4919 2847 4919 2278 
L 4919 0 
L 4359 0 
L 4359 2091 
Q 4359 2428 4304 2576 
Q 4250 2725 4106 2815 
Q 3963 2906 3769 2906 
Q 3419 2906 3187 2673 
Q 2956 2441 2956 1928 
L 2956 0 
L 2394 0 
L 2394 2156 
Q 2394 2531 2256 2718 
Q 2119 2906 1806 2906 
Q 1569 2906 1367 2781 
Q 1166 2656 1075 2415 
Q 984 2175 984 1722 
L 984 0 
L 422 0 
z
" transform="scale(0.015625)"/>
      </defs>
      <use xlink:href="#ArialMT-45"/>
      <use xlink:href="#ArialMT-78" x="66.699219"/>
      <use xlink:href="#ArialMT-65" x="116.699219"/>
      <use xlink:href="#ArialMT-63" x="172.314453"/>
      <use xlink:href="#ArialMT-75" x="222.314453"/>
      <use xlink:href="#ArialMT-74" x="277.929688"/>
      <use xlink:href="#ArialMT-69" x="305.712891"/>
      <use xlink:href="#ArialMT-6f" x="327.929688"/>
      <use xlink:href="#ArialMT-6e" x="383.544922"/>
      <use xlink:href="#ArialMT-20" x="439.160156"/>
      <use xlink:href="#ArialMT-54" x="465.193359"/>
      <use xlink:href="#ArialMT-69" x="522.527344"/>
      <use xlink:href="#ArialMT-6d" x="544.744141"/>
      <use xlink:href="#ArialMT-65" x="628.044922"/>
     </g>
    </g>
   </g>
   <g id="matplotlib.axis_2">
    <g id="ytick_1">
     <g id="line2d_22">
      <path d="M 47.105 249.286875 
L 1049.53535 249.286875 
" clip-path="url(#pf222b77edf)" style="fill: none; stroke: #cccccc; stroke-linecap: round"/>
     </g>
     <g id="text_23">
      <!-- 0.0 -->
      <g style="fill: #262626" transform="translate(22.315 253.223672) scale(0.11 -0.11)">
       <use xlink:href="#ArialMT-30"/>
       <use xlink:href="#ArialMT-2e" x="55.615234"/>
       <use xlink:href="#ArialMT-30" x="83.398438"/>
      </g>
     </g>
    </g>
    <g id="ytick_2">
     <g id="line2d_23">
      <path d="M 47.105 199.870459 
L 1049.53535 199.870459 
" clip-path="url(#pf222b77edf)" style="fill: none; stroke: #cccccc; stroke-linecap: round"/>
     </g>
     <g id="text_24">
      <!-- 0.2 -->
      <g style="fill: #262626" transform="translate(22.315 203.807256) scale(0.11 -0.11)">
       <use xlink:href="#ArialMT-30"/>
       <use xlink:href="#ArialMT-2e" x="55.615234"/>
       <use xlink:href="#ArialMT-32" x="83.398438"/>
      </g>
     </g>
    </g>
    <g id="ytick_3">
     <g id="line2d_24">
      <path d="M 47.105 150.454044 
L 1049.53535 150.454044 
" clip-path="url(#pf222b77edf)" style="fill: none; stroke: #cccccc; stroke-linecap: round"/>
     </g>
     <g id="text_25">
      <!-- 0.4 -->
      <g style="fill: #262626" transform="translate(22.315 154.390841) scale(0.11 -0.11)">
       <use xlink:href="#ArialMT-30"/>
       <use xlink:href="#ArialMT-2e" x="55.615234"/>
       <use xlink:href="#ArialMT-34" x="83.398438"/>
      </g>
     </g>
    </g>
    <g id="ytick_4">
     <g id="line2d_25">
      <path d="M 47.105 101.037628 
L 1049.53535 101.037628 
" clip-path="url(#pf222b77edf)" style="fill: none; stroke: #cccccc; stroke-linecap: round"/>
     </g>
     <g id="text_26">
      <!-- 0.6 -->
      <g style="fill: #262626" transform="translate(22.315 104.974425) scale(0.11 -0.11)">
       <use xlink:href="#ArialMT-30"/>
       <use xlink:href="#ArialMT-2e" x="55.615234"/>
       <use xlink:href="#ArialMT-36" x="83.398438"/>
      </g>
     </g>
    </g>
    <g id="ytick_5">
     <g id="line2d_26">
      <path d="M 47.105 51.621213 
L 1049.53535 51.621213 
" clip-path="url(#pf222b77edf)" style="fill: none; stroke: #cccccc; stroke-linecap: round"/>
     </g>
     <g id="text_27">
      <!-- 0.8 -->
      <g style="fill: #262626" transform="translate(22.315 55.55801) scale(0.11 -0.11)">
       <use xlink:href="#ArialMT-30"/>
       <use xlink:href="#ArialMT-2e" x="55.615234"/>
       <use xlink:href="#ArialMT-38" x="83.398438"/>
      </g>
     </g>
    </g>
    <g id="text_28">
     <!-- Density -->
     <g style="fill: #262626" transform="translate(15.789375 155.544375) rotate(-90) scale(0.12 -0.12)">
      <defs>
       <path id="ArialMT-44" d="M 494 0 
L 494 4581 
L 2072 4581 
Q 2606 4581 2888 4516 
Q 3281 4425 3559 4188 
Q 3922 3881 4101 3404 
Q 4281 2928 4281 2316 
Q 4281 1794 4159 1391 
Q 4038 988 3847 723 
Q 3656 459 3429 307 
Q 3203 156 2883 78 
Q 2563 0 2147 0 
L 494 0 
z
M 1100 541 
L 2078 541 
Q 2531 541 2789 625 
Q 3047 709 3200 863 
Q 3416 1078 3536 1442 
Q 3656 1806 3656 2325 
Q 3656 3044 3420 3430 
Q 3184 3816 2847 3947 
Q 2603 4041 2063 4041 
L 1100 4041 
L 1100 541 
z
" transform="scale(0.015625)"/>
       <path id="ArialMT-73" d="M 197 991 
L 753 1078 
Q 800 744 1014 566 
Q 1228 388 1613 388 
Q 2000 388 2187 545 
Q 2375 703 2375 916 
Q 2375 1106 2209 1216 
Q 2094 1291 1634 1406 
Q 1016 1563 777 1677 
Q 538 1791 414 1992 
Q 291 2194 291 2438 
Q 291 2659 392 2848 
Q 494 3038 669 3163 
Q 800 3259 1026 3326 
Q 1253 3394 1513 3394 
Q 1903 3394 2198 3281 
Q 2494 3169 2634 2976 
Q 2775 2784 2828 2463 
L 2278 2388 
Q 2241 2644 2061 2787 
Q 1881 2931 1553 2931 
Q 1166 2931 1000 2803 
Q 834 2675 834 2503 
Q 834 2394 903 2306 
Q 972 2216 1119 2156 
Q 1203 2125 1616 2013 
Q 2213 1853 2448 1751 
Q 2684 1650 2818 1456 
Q 2953 1263 2953 975 
Q 2953 694 2789 445 
Q 2625 197 2315 61 
Q 2006 -75 1616 -75 
Q 969 -75 630 194 
Q 291 463 197 991 
z
" transform="scale(0.015625)"/>
       <path id="ArialMT-79" d="M 397 -1278 
L 334 -750 
Q 519 -800 656 -800 
Q 844 -800 956 -737 
Q 1069 -675 1141 -563 
Q 1194 -478 1313 -144 
Q 1328 -97 1363 -6 
L 103 3319 
L 709 3319 
L 1400 1397 
Q 1534 1031 1641 628 
Q 1738 1016 1872 1384 
L 2581 3319 
L 3144 3319 
L 1881 -56 
Q 1678 -603 1566 -809 
Q 1416 -1088 1222 -1217 
Q 1028 -1347 759 -1347 
Q 597 -1347 397 -1278 
z
" transform="scale(0.015625)"/>
      </defs>
      <use xlink:href="#ArialMT-44"/>
      <use xlink:href="#ArialMT-65" x="72.216797"/>
      <use xlink:href="#ArialMT-6e" x="127.832031"/>
      <use xlink:href="#ArialMT-73" x="183.447266"/>
      <use xlink:href="#ArialMT-69" x="233.447266"/>
      <use xlink:href="#ArialMT-74" x="255.664062"/>
      <use xlink:href="#ArialMT-79" x="283.447266"/>
     </g>
    </g>
   </g>
   <g id="PolyCollection_1">
    <defs>
     <path id="m7902cc10a6" d="M 158.641685 -41.858642 
L 158.641685 -41.734219 
L 160.411114 -41.734219 
L 162.180543 -41.734219 
L 163.949972 -41.734219 
L 165.719402 -41.734219 
L 167.488831 -41.734219 
L 169.25826 -41.734219 
L 171.027689 -41.734219 
L 172.797119 -41.734219 
L 174.566548 -41.734219 
L 176.335977 -41.734219 
L 178.105407 -41.734219 
L 179.874836 -41.734219 
L 181.644265 -41.734219 
L 183.413694 -41.734219 
L 185.183124 -41.734219 
L 186.952553 -41.734219 
L 188.721982 -41.734219 
L 190.491412 -41.734219 
L 192.260841 -41.734219 
L 194.03027 -41.734219 
L 195.799699 -41.734219 
L 197.569129 -41.734219 
L 199.338558 -41.734219 
L 201.107987 -41.734219 
L 202.877417 -41.734219 
L 204.646846 -41.734219 
L 206.416275 -41.734219 
L 208.185704 -41.734219 
L 209.955134 -41.734219 
L 211.724563 -41.734219 
L 213.493992 -41.734219 
L 215.263422 -41.734219 
L 217.032851 -41.734219 
L 218.80228 -41.734219 
L 220.571709 -41.734219 
L 222.341139 -41.734219 
L 224.110568 -41.734219 
L 225.879997 -41.734219 
L 227.649427 -41.734219 
L 229.418856 -41.734219 
L 231.188285 -41.734219 
L 232.957714 -41.734219 
L 234.727144 -41.734219 
L 236.496573 -41.734219 
L 238.266002 -41.734219 
L 240.035431 -41.734219 
L 241.804861 -41.734219 
L 243.57429 -41.734219 
L 245.343719 -41.734219 
L 247.113149 -41.734219 
L 248.882578 -41.734219 
L 250.652007 -41.734219 
L 252.421436 -41.734219 
L 254.190866 -41.734219 
L 255.960295 -41.734219 
L 257.729724 -41.734219 
L 259.499154 -41.734219 
L 261.268583 -41.734219 
L 263.038012 -41.734219 
L 264.807441 -41.734219 
L 266.576871 -41.734219 
L 268.3463 -41.734219 
L 270.115729 -41.734219 
L 271.885159 -41.734219 
L 273.654588 -41.734219 
L 275.424017 -41.734219 
L 277.193446 -41.734219 
L 278.962876 -41.734219 
L 280.732305 -41.734219 
L 282.501734 -41.734219 
L 284.271164 -41.734219 
L 286.040593 -41.734219 
L 287.810022 -41.734219 
L 289.579451 -41.734219 
L 291.348881 -41.734219 
L 293.11831 -41.734219 
L 294.887739 -41.734219 
L 296.657168 -41.734219 
L 298.426598 -41.734219 
L 300.196027 -41.734219 
L 301.965456 -41.734219 
L 303.734886 -41.734219 
L 305.504315 -41.734219 
L 307.273744 -41.734219 
L 309.043173 -41.734219 
L 310.812603 -41.734219 
L 312.582032 -41.734219 
L 314.351461 -41.734219 
L 316.120891 -41.734219 
L 317.89032 -41.734219 
L 319.659749 -41.734219 
L 321.429178 -41.734219 
L 323.198608 -41.734219 
L 324.968037 -41.734219 
L 326.737466 -41.734219 
L 328.506896 -41.734219 
L 330.276325 -41.734219 
L 332.045754 -41.734219 
L 333.815183 -41.734219 
L 335.584613 -41.734219 
L 337.354042 -41.734219 
L 339.123471 -41.734219 
L 340.892901 -41.734219 
L 342.66233 -41.734219 
L 344.431759 -41.734219 
L 346.201188 -41.734219 
L 347.970618 -41.734219 
L 349.740047 -41.734219 
L 351.509476 -41.734219 
L 353.278905 -41.734219 
L 355.048335 -41.734219 
L 356.817764 -41.734219 
L 358.587193 -41.734219 
L 360.356623 -41.734219 
L 362.126052 -41.734219 
L 363.895481 -41.734219 
L 365.66491 -41.734219 
L 367.43434 -41.734219 
L 369.203769 -41.734219 
L 370.973198 -41.734219 
L 372.742628 -41.734219 
L 374.512057 -41.734219 
L 376.281486 -41.734219 
L 378.050915 -41.734219 
L 379.820345 -41.734219 
L 381.589774 -41.734219 
L 383.359203 -41.734219 
L 385.128633 -41.734219 
L 386.898062 -41.734219 
L 388.667491 -41.734219 
L 390.43692 -41.734219 
L 392.20635 -41.734219 
L 393.975779 -41.734219 
L 395.745208 -41.734219 
L 397.514638 -41.734219 
L 399.284067 -41.734219 
L 401.053496 -41.734219 
L 402.822925 -41.734219 
L 404.592355 -41.734219 
L 406.361784 -41.734219 
L 408.131213 -41.734219 
L 409.900642 -41.734219 
L 411.670072 -41.734219 
L 413.439501 -41.734219 
L 415.20893 -41.734219 
L 416.97836 -41.734219 
L 418.747789 -41.734219 
L 420.517218 -41.734219 
L 422.286647 -41.734219 
L 424.056077 -41.734219 
L 425.825506 -41.734219 
L 427.594935 -41.734219 
L 429.364365 -41.734219 
L 431.133794 -41.734219 
L 432.903223 -41.734219 
L 434.672652 -41.734219 
L 436.442082 -41.734219 
L 438.211511 -41.734219 
L 439.98094 -41.734219 
L 441.75037 -41.734219 
L 443.519799 -41.734219 
L 445.289228 -41.734219 
L 447.058657 -41.734219 
L 448.828087 -41.734219 
L 450.597516 -41.734219 
L 452.366945 -41.734219 
L 454.136375 -41.734219 
L 455.905804 -41.734219 
L 457.675233 -41.734219 
L 459.444662 -41.734219 
L 461.214092 -41.734219 
L 462.983521 -41.734219 
L 464.75295 -41.734219 
L 466.52238 -41.734219 
L 468.291809 -41.734219 
L 470.061238 -41.734219 
L 471.830667 -41.734219 
L 473.600097 -41.734219 
L 475.369526 -41.734219 
L 477.138955 -41.734219 
L 478.908384 -41.734219 
L 480.677814 -41.734219 
L 482.447243 -41.734219 
L 484.216672 -41.734219 
L 485.986102 -41.734219 
L 487.755531 -41.734219 
L 489.52496 -41.734219 
L 491.294389 -41.734219 
L 493.063819 -41.734219 
L 494.833248 -41.734219 
L 496.602677 -41.734219 
L 498.372107 -41.734219 
L 500.141536 -41.734219 
L 501.910965 -41.734219 
L 503.680394 -41.734219 
L 505.449824 -41.734219 
L 507.219253 -41.734219 
L 508.988682 -41.734219 
L 510.758112 -41.734219 
L 510.758112 -41.747212 
L 510.758112 -41.747212 
L 508.988682 -41.75631 
L 507.219253 -41.770548 
L 505.449824 -41.792008 
L 503.680394 -41.823133 
L 501.910965 -41.866542 
L 500.141536 -41.924695 
L 498.372107 -41.999428 
L 496.602677 -42.091389 
L 494.833248 -42.199486 
L 493.063819 -42.320452 
L 491.294389 -42.448681 
L 489.52496 -42.576444 
L 487.755531 -42.694543 
L 485.986102 -42.793346 
L 484.216672 -42.864064 
L 482.447243 -42.900036 
L 480.677814 -42.897761 
L 478.908384 -42.857464 
L 477.138955 -42.783054 
L 475.369526 -42.681504 
L 473.600097 -42.561769 
L 471.830667 -42.433495 
L 470.061238 -42.305755 
L 468.291809 -42.186053 
L 466.52238 -42.079725 
L 464.75295 -41.989766 
L 462.983521 -41.917041 
L 461.214092 -41.860729 
L 459.444662 -41.818896 
L 457.675233 -41.789039 
L 455.905804 -41.768548 
L 454.136375 -41.755012 
L 452.366945 -41.746401 
L 450.597516 -41.741122 
L 448.828087 -41.738003 
L 447.058657 -41.736225 
L 445.289228 -41.735248 
L 443.519799 -41.734729 
L 441.75037 -41.734464 
L 439.98094 -41.734332 
L 438.211511 -41.73427 
L 436.442082 -41.734241 
L 434.672652 -41.734228 
L 432.903223 -41.734223 
L 431.133794 -41.73422 
L 429.364365 -41.734219 
L 427.594935 -41.734219 
L 425.825506 -41.734219 
L 424.056077 -41.734219 
L 422.286647 -41.734219 
L 420.517218 -41.734219 
L 418.747789 -41.73422 
L 416.97836 -41.734221 
L 415.20893 -41.734225 
L 413.439501 -41.734234 
L 411.670072 -41.734255 
L 409.900642 -41.734301 
L 408.131213 -41.734398 
L 406.361784 -41.734598 
L 404.592355 -41.734994 
L 402.822925 -41.735754 
L 401.053496 -41.737158 
L 399.284067 -41.739666 
L 397.514638 -41.743987 
L 395.745208 -41.751171 
L 393.975779 -41.762695 
L 392.20635 -41.780523 
L 390.43692 -41.807123 
L 388.667491 -41.845385 
L 386.898062 -41.898434 
L 385.128633 -41.969305 
L 383.359203 -42.060504 
L 381.589774 -42.173504 
L 379.820345 -42.308245 
L 378.050915 -42.462762 
L 376.281486 -42.633015 
L 374.512057 -42.813001 
L 372.742628 -42.995156 
L 370.973198 -43.170981 
L 369.203769 -43.331795 
L 367.43434 -43.469488 
L 365.66491 -43.577151 
L 363.895481 -43.649554 
L 362.126052 -43.683443 
L 360.356623 -43.677722 
L 358.587193 -43.633572 
L 356.817764 -43.554515 
L 355.048335 -43.44642 
L 353.278905 -43.317364 
L 351.509476 -43.177259 
L 349.740047 -43.037193 
L 347.970618 -42.908467 
L 346.201188 -42.801425 
L 344.431759 -42.724224 
L 342.66233 -42.681753 
L 340.892901 -42.67491 
L 339.123471 -42.70042 
L 337.354042 -42.75127 
L 335.584613 -42.817766 
L 333.815183 -42.889083 
L 332.045754 -42.955066 
L 330.276325 -43.007984 
L 328.506896 -43.043923 
L 326.737466 -43.063531 
L 324.968037 -43.071985 
L 323.198608 -43.07817 
L 321.429178 -43.093243 
L 319.659749 -43.12889 
L 317.89032 -43.195606 
L 316.120891 -43.301324 
L 314.351461 -43.450591 
L 312.582032 -43.644331 
L 310.812603 -43.880094 
L 309.043173 -44.152587 
L 307.273744 -44.454264 
L 305.504315 -44.775813 
L 303.734886 -45.106485 
L 301.965456 -45.434351 
L 300.196027 -45.746636 
L 298.426598 -46.030308 
L 296.657168 -46.273032 
L 294.887739 -46.464457 
L 293.11831 -46.597681 
L 291.348881 -46.670605 
L 289.579451 -46.686867 
L 287.810022 -46.656055 
L 286.040593 -46.593071 
L 284.271164 -46.516636 
L 282.501734 -46.447138 
L 280.732305 -46.404158 
L 278.962876 -46.404073 
L 277.193446 -46.458164 
L 275.424017 -46.571553 
L 273.654588 -46.743192 
L 271.885159 -46.966928 
L 270.115729 -47.233508 
L 268.3463 -47.533234 
L 266.576871 -47.858855 
L 264.807441 -48.208244 
L 263.038012 -48.586432 
L 261.268583 -49.006644 
L 259.499154 -49.490119 
L 257.729724 -50.06462 
L 255.960295 -50.761732 
L 254.190866 -51.613163 
L 252.421436 -52.646452 
L 250.652007 -53.880624 
L 248.882578 -55.32249 
L 247.113149 -56.964349 
L 245.343719 -58.783854 
L 243.57429 -60.746616 
L 241.804861 -62.811833 
L 240.035431 -64.94077 
L 238.266002 -67.107396 
L 236.496573 -69.310045 
L 234.727144 -71.582583 
L 232.957714 -74.003428 
L 231.188285 -76.700879 
L 229.418856 -79.853419 
L 227.649427 -83.684121 
L 225.879997 -88.448678 
L 224.110568 -94.416997 
L 222.341139 -101.848685 
L 220.571709 -110.963127 
L 218.80228 -121.905391 
L 217.032851 -134.709974 
L 215.263422 -149.265507 
L 213.493992 -165.28487 
L 211.724563 -182.286469 
L 209.955134 -199.593093 
L 208.185704 -216.354352 
L 206.416275 -231.596474 
L 204.646846 -244.299278 
L 202.877417 -253.494701 
L 201.107987 -258.375539 
L 199.338558 -258.398504 
L 197.569129 -253.3639 
L 195.799699 -243.456252 
L 194.03027 -229.236113 
L 192.260841 -211.581989 
L 190.491412 -191.590845 
L 188.721982 -170.453597 
L 186.952553 -149.32632 
L 185.183124 -129.217612 
L 183.413694 -110.907922 
L 181.644265 -94.909134 
L 179.874836 -81.464335 
L 178.105407 -70.580634 
L 176.335977 -62.083436 
L 174.566548 -55.679391 
L 172.797119 -51.016765 
L 171.027689 -47.735351 
L 169.25826 -45.502 
L 167.488831 -44.031397 
L 165.719402 -43.094211 
L 163.949972 -42.516012 
L 162.180543 -42.17058 
L 160.411114 -41.970694 
L 158.641685 -41.858642 
z
" style="stroke: #55a868"/>
    </defs>
    <g clip-path="url(#pf222b77edf)">
     <use xlink:href="#m7902cc10a6" x="0" y="291.021094" style="fill: #55a868; fill-opacity: 0.25; stroke: #55a868"/>
    </g>
   </g>
   <g id="PolyCollection_2">
    <defs>
     <path id="mf4fd6dada1" d="M 126.879294 -41.809769 
L 126.879294 -41.734219 
L 129.746191 -41.734219 
L 132.613089 -41.734219 
L 135.479986 -41.734219 
L 138.346884 -41.734219 
L 141.213781 -41.734219 
L 144.080679 -41.734219 
L 146.947576 -41.734219 
L 149.814474 -41.734219 
L 152.681371 -41.734219 
L 155.548269 -41.734219 
L 158.415166 -41.734219 
L 161.282064 -41.734219 
L 164.148961 -41.734219 
L 167.015858 -41.734219 
L 169.882756 -41.734219 
L 172.749653 -41.734219 
L 175.616551 -41.734219 
L 178.483448 -41.734219 
L 181.350346 -41.734219 
L 184.217243 -41.734219 
L 187.084141 -41.734219 
L 189.951038 -41.734219 
L 192.817936 -41.734219 
L 195.684833 -41.734219 
L 198.551731 -41.734219 
L 201.418628 -41.734219 
L 204.285526 -41.734219 
L 207.152423 -41.734219 
L 210.019321 -41.734219 
L 212.886218 -41.734219 
L 215.753115 -41.734219 
L 218.620013 -41.734219 
L 221.48691 -41.734219 
L 224.353808 -41.734219 
L 227.220705 -41.734219 
L 230.087603 -41.734219 
L 232.9545 -41.734219 
L 235.821398 -41.734219 
L 238.688295 -41.734219 
L 241.555193 -41.734219 
L 244.42209 -41.734219 
L 247.288988 -41.734219 
L 250.155885 -41.734219 
L 253.022783 -41.734219 
L 255.88968 -41.734219 
L 258.756577 -41.734219 
L 261.623475 -41.734219 
L 264.490372 -41.734219 
L 267.35727 -41.734219 
L 270.224167 -41.734219 
L 273.091065 -41.734219 
L 275.957962 -41.734219 
L 278.82486 -41.734219 
L 281.691757 -41.734219 
L 284.558655 -41.734219 
L 287.425552 -41.734219 
L 290.29245 -41.734219 
L 293.159347 -41.734219 
L 296.026245 -41.734219 
L 298.893142 -41.734219 
L 301.76004 -41.734219 
L 304.626937 -41.734219 
L 307.493834 -41.734219 
L 310.360732 -41.734219 
L 313.227629 -41.734219 
L 316.094527 -41.734219 
L 318.961424 -41.734219 
L 321.828322 -41.734219 
L 324.695219 -41.734219 
L 327.562117 -41.734219 
L 330.429014 -41.734219 
L 333.295912 -41.734219 
L 336.162809 -41.734219 
L 339.029707 -41.734219 
L 341.896604 -41.734219 
L 344.763502 -41.734219 
L 347.630399 -41.734219 
L 350.497297 -41.734219 
L 353.364194 -41.734219 
L 356.231091 -41.734219 
L 359.097989 -41.734219 
L 361.964886 -41.734219 
L 364.831784 -41.734219 
L 367.698681 -41.734219 
L 370.565579 -41.734219 
L 373.432476 -41.734219 
L 376.299374 -41.734219 
L 379.166271 -41.734219 
L 382.033169 -41.734219 
L 384.900066 -41.734219 
L 387.766964 -41.734219 
L 390.633861 -41.734219 
L 393.500759 -41.734219 
L 396.367656 -41.734219 
L 399.234554 -41.734219 
L 402.101451 -41.734219 
L 404.968348 -41.734219 
L 407.835246 -41.734219 
L 410.702143 -41.734219 
L 413.569041 -41.734219 
L 416.435938 -41.734219 
L 419.302836 -41.734219 
L 422.169733 -41.734219 
L 425.036631 -41.734219 
L 427.903528 -41.734219 
L 430.770426 -41.734219 
L 433.637323 -41.734219 
L 436.504221 -41.734219 
L 439.371118 -41.734219 
L 442.238016 -41.734219 
L 445.104913 -41.734219 
L 447.971811 -41.734219 
L 450.838708 -41.734219 
L 453.705605 -41.734219 
L 456.572503 -41.734219 
L 459.4394 -41.734219 
L 462.306298 -41.734219 
L 465.173195 -41.734219 
L 468.040093 -41.734219 
L 470.90699 -41.734219 
L 473.773888 -41.734219 
L 476.640785 -41.734219 
L 479.507683 -41.734219 
L 482.37458 -41.734219 
L 485.241478 -41.734219 
L 488.108375 -41.734219 
L 490.975273 -41.734219 
L 493.84217 -41.734219 
L 496.709068 -41.734219 
L 499.575965 -41.734219 
L 502.442862 -41.734219 
L 505.30976 -41.734219 
L 508.176657 -41.734219 
L 511.043555 -41.734219 
L 513.910452 -41.734219 
L 516.77735 -41.734219 
L 519.644247 -41.734219 
L 522.511145 -41.734219 
L 525.378042 -41.734219 
L 528.24494 -41.734219 
L 531.111837 -41.734219 
L 533.978735 -41.734219 
L 536.845632 -41.734219 
L 539.71253 -41.734219 
L 542.579427 -41.734219 
L 545.446325 -41.734219 
L 548.313222 -41.734219 
L 551.180119 -41.734219 
L 554.047017 -41.734219 
L 556.913914 -41.734219 
L 559.780812 -41.734219 
L 562.647709 -41.734219 
L 565.514607 -41.734219 
L 568.381504 -41.734219 
L 571.248402 -41.734219 
L 574.115299 -41.734219 
L 576.982197 -41.734219 
L 579.849094 -41.734219 
L 582.715992 -41.734219 
L 585.582889 -41.734219 
L 588.449787 -41.734219 
L 591.316684 -41.734219 
L 594.183581 -41.734219 
L 597.050479 -41.734219 
L 599.917376 -41.734219 
L 602.784274 -41.734219 
L 605.651171 -41.734219 
L 608.518069 -41.734219 
L 611.384966 -41.734219 
L 614.251864 -41.734219 
L 617.118761 -41.734219 
L 619.985659 -41.734219 
L 622.852556 -41.734219 
L 625.719454 -41.734219 
L 628.586351 -41.734219 
L 631.453249 -41.734219 
L 634.320146 -41.734219 
L 637.187044 -41.734219 
L 640.053941 -41.734219 
L 642.920838 -41.734219 
L 645.787736 -41.734219 
L 648.654633 -41.734219 
L 651.521531 -41.734219 
L 654.388428 -41.734219 
L 657.255326 -41.734219 
L 660.122223 -41.734219 
L 662.989121 -41.734219 
L 665.856018 -41.734219 
L 668.722916 -41.734219 
L 671.589813 -41.734219 
L 674.456711 -41.734219 
L 677.323608 -41.734219 
L 680.190506 -41.734219 
L 683.057403 -41.734219 
L 685.924301 -41.734219 
L 688.791198 -41.734219 
L 691.658095 -41.734219 
L 694.524993 -41.734219 
L 697.39189 -41.734219 
L 697.39189 -41.741255 
L 697.39189 -41.741255 
L 694.524993 -41.744556 
L 691.658095 -41.749169 
L 688.791198 -41.755503 
L 685.924301 -41.764051 
L 683.057403 -41.775382 
L 680.190506 -41.790137 
L 677.323608 -41.809003 
L 674.456711 -41.832688 
L 671.589813 -41.861868 
L 668.722916 -41.897138 
L 665.856018 -41.938944 
L 662.989121 -41.987508 
L 660.122223 -42.042763 
L 657.255326 -42.104283 
L 654.388428 -42.17124 
L 651.521531 -42.242377 
L 648.654633 -42.316017 
L 645.787736 -42.390106 
L 642.920838 -42.462297 
L 640.053941 -42.530065 
L 637.187044 -42.590853 
L 634.320146 -42.642237 
L 631.453249 -42.682098 
L 628.586351 -42.708774 
L 625.719454 -42.721199 
L 622.852556 -42.718995 
L 619.985659 -42.702514 
L 617.118761 -42.672838 
L 614.251864 -42.631709 
L 611.384966 -42.58143 
L 608.518069 -42.524715 
L 605.651171 -42.464522 
L 602.784274 -42.403876 
L 599.917376 -42.345692 
L 597.050479 -42.292626 
L 594.183581 -42.246936 
L 591.316684 -42.210392 
L 588.449787 -42.184215 
L 585.582889 -42.169049 
L 582.715992 -42.164977 
L 579.849094 -42.17156 
L 576.982197 -42.1879 
L 574.115299 -42.212726 
L 571.248402 -42.244492 
L 568.381504 -42.281478 
L 565.514607 -42.321899 
L 562.647709 -42.364 
L 559.780812 -42.406148 
L 556.913914 -42.446905 
L 554.047017 -42.485095 
L 551.180119 -42.51984 
L 548.313222 -42.550594 
L 545.446325 -42.57715 
L 542.579427 -42.599644 
L 539.71253 -42.618539 
L 536.845632 -42.634608 
L 533.978735 -42.648903 
L 531.111837 -42.662712 
L 528.24494 -42.677509 
L 525.378042 -42.694889 
L 522.511145 -42.716484 
L 519.644247 -42.743873 
L 516.77735 -42.778479 
L 513.910452 -42.821461 
L 511.043555 -42.873613 
L 508.176657 -42.935283 
L 505.30976 -43.006309 
L 502.442862 -43.085996 
L 499.575965 -43.173135 
L 496.709068 -43.266059 
L 493.84217 -43.362744 
L 490.975273 -43.460936 
L 488.108375 -43.558305 
L 485.241478 -43.652601 
L 482.37458 -43.741806 
L 479.507683 -43.824259 
L 476.640785 -43.898757 
L 473.773888 -43.964615 
L 470.90699 -44.021679 
L 468.040093 -44.070308 
L 465.173195 -44.111312 
L 462.306298 -44.145868 
L 459.4394 -44.175417 
L 456.572503 -44.201547 
L 453.705605 -44.225889 
L 450.838708 -44.25002 
L 447.971811 -44.275385 
L 445.104913 -44.303248 
L 442.238016 -44.334674 
L 439.371118 -44.370531 
L 436.504221 -44.411535 
L 433.637323 -44.458297 
L 430.770426 -44.511403 
L 427.903528 -44.571483 
L 425.036631 -44.63928 
L 422.169733 -44.715701 
L 419.302836 -44.801839 
L 416.435938 -44.898954 
L 413.569041 -45.008426 
L 410.702143 -45.13165 
L 407.835246 -45.269904 
L 404.968348 -45.424185 
L 402.101451 -45.595026 
L 399.234554 -45.782317 
L 396.367656 -45.985146 
L 393.500759 -46.201679 
L 390.633861 -46.429106 
L 387.766964 -46.663662 
L 384.900066 -46.900738 
L 382.033169 -47.135087 
L 379.166271 -47.361109 
L 376.299374 -47.573217 
L 373.432476 -47.766246 
L 370.565579 -47.935866 
L 367.698681 -48.078981 
L 364.831784 -48.194056 
L 361.964886 -48.281337 
L 359.097989 -48.342949 
L 356.231091 -48.382845 
L 353.364194 -48.406602 
L 350.497297 -48.421101 
L 347.630399 -48.434101 
L 344.763502 -48.453768 
L 341.896604 -48.488214 
L 339.029707 -48.545087 
L 336.162809 -48.631284 
L 333.295912 -48.752802 
L 330.429014 -48.914763 
L 327.562117 -49.121602 
L 324.695219 -49.377397 
L 321.828322 -49.686296 
L 318.961424 -50.052983 
L 316.094527 -50.483119 
L 313.227629 -50.983697 
L 310.360732 -51.563253 
L 307.493834 -52.231904 
L 304.626937 -53.001202 
L 301.76004 -53.883806 
L 298.893142 -54.893034 
L 296.026245 -56.042322 
L 293.159347 -57.344666 
L 290.29245 -58.812117 
L 287.425552 -60.455362 
L 284.558655 -62.28343 
L 281.691757 -64.303531 
L 278.82486 -66.520987 
L 275.957962 -68.939212 
L 273.091065 -71.559669 
L 270.224167 -74.381706 
L 267.35727 -77.402197 
L 264.490372 -80.614932 
L 261.623475 -84.009688 
L 258.756577 -87.571025 
L 255.88968 -91.276826 
L 253.022783 -95.096715 
L 250.155885 -98.99051 
L 247.288988 -102.906918 
L 244.42209 -106.782723 
L 241.555193 -110.542707 
L 238.688295 -114.100532 
L 235.821398 -117.360748 
L 232.9545 -120.222 
L 230.087603 -122.581389 
L 227.220705 -124.339786 
L 224.353808 -125.407786 
L 221.48691 -125.711828 
L 218.620013 -125.199963 
L 215.753115 -123.846685 
L 212.886218 -121.656316 
L 210.019321 -118.664516 
L 207.152423 -114.937668 
L 204.285526 -110.5701 
L 201.418628 -105.679311 
L 198.551731 -100.3996 
L 195.684833 -94.874622 
L 192.817936 -89.249547 
L 189.951038 -83.663456 
L 187.084141 -78.242613 
L 184.217243 -73.095093 
L 181.350346 -68.30708 
L 178.483448 -63.940994 
L 175.616551 -60.035369 
L 172.749653 -56.606288 
L 169.882756 -53.650041 
L 167.015858 -51.146617 
L 164.148961 -49.063615 
L 161.282064 -47.360212 
L 158.415166 -45.99087 
L 155.548269 -44.908548 
L 152.681371 -44.067305 
L 149.814474 -43.424217 
L 146.947576 -42.94065 
L 144.080679 -42.582939 
L 141.213781 -42.3226 
L 138.346884 -42.13617 
L 135.479986 -42.004801 
L 132.613089 -41.913702 
L 129.746191 -41.851529 
L 126.879294 -41.809769 
z
" style="stroke: #dd8452"/>
    </defs>
    <g clip-path="url(#pf222b77edf)">
     <use xlink:href="#mf4fd6dada1" x="0" y="291.021094" style="fill: #dd8452; fill-opacity: 0.25; stroke: #dd8452"/>
    </g>
   </g>
   <g id="PolyCollection_3">
    <defs>
     <path id="mce6b50f428" d="M 37.694495 -41.877988 
L 37.694495 -41.734219 
L 43.599231 -41.734219 
L 49.503967 -41.734219 
L 55.408704 -41.734219 
L 61.31344 -41.734219 
L 67.218176 -41.734219 
L 73.122912 -41.734219 
L 79.027649 -41.734219 
L 84.932385 -41.734219 
L 90.837121 -41.734219 
L 96.741857 -41.734219 
L 102.646594 -41.734219 
L 108.55133 -41.734219 
L 114.456066 -41.734219 
L 120.360802 -41.734219 
L 126.265539 -41.734219 
L 132.170275 -41.734219 
L 138.075011 -41.734219 
L 143.979747 -41.734219 
L 149.884484 -41.734219 
L 155.78922 -41.734219 
L 161.693956 -41.734219 
L 167.598692 -41.734219 
L 173.503429 -41.734219 
L 179.408165 -41.734219 
L 185.312901 -41.734219 
L 191.217637 -41.734219 
L 197.122373 -41.734219 
L 203.02711 -41.734219 
L 208.931846 -41.734219 
L 214.836582 -41.734219 
L 220.741318 -41.734219 
L 226.646055 -41.734219 
L 232.550791 -41.734219 
L 238.455527 -41.734219 
L 244.360263 -41.734219 
L 250.265 -41.734219 
L 256.169736 -41.734219 
L 262.074472 -41.734219 
L 267.979208 -41.734219 
L 273.883945 -41.734219 
L 279.788681 -41.734219 
L 285.693417 -41.734219 
L 291.598153 -41.734219 
L 297.50289 -41.734219 
L 303.407626 -41.734219 
L 309.312362 -41.734219 
L 315.217098 -41.734219 
L 321.121835 -41.734219 
L 327.026571 -41.734219 
L 332.931307 -41.734219 
L 338.836043 -41.734219 
L 344.740779 -41.734219 
L 350.645516 -41.734219 
L 356.550252 -41.734219 
L 362.454988 -41.734219 
L 368.359724 -41.734219 
L 374.264461 -41.734219 
L 380.169197 -41.734219 
L 386.073933 -41.734219 
L 391.978669 -41.734219 
L 397.883406 -41.734219 
L 403.788142 -41.734219 
L 409.692878 -41.734219 
L 415.597614 -41.734219 
L 421.502351 -41.734219 
L 427.407087 -41.734219 
L 433.311823 -41.734219 
L 439.216559 -41.734219 
L 445.121296 -41.734219 
L 451.026032 -41.734219 
L 456.930768 -41.734219 
L 462.835504 -41.734219 
L 468.740241 -41.734219 
L 474.644977 -41.734219 
L 480.549713 -41.734219 
L 486.454449 -41.734219 
L 492.359185 -41.734219 
L 498.263922 -41.734219 
L 504.168658 -41.734219 
L 510.073394 -41.734219 
L 515.97813 -41.734219 
L 521.882867 -41.734219 
L 527.787603 -41.734219 
L 533.692339 -41.734219 
L 539.597075 -41.734219 
L 545.501812 -41.734219 
L 551.406548 -41.734219 
L 557.311284 -41.734219 
L 563.21602 -41.734219 
L 569.120757 -41.734219 
L 575.025493 -41.734219 
L 580.930229 -41.734219 
L 586.834965 -41.734219 
L 592.739702 -41.734219 
L 598.644438 -41.734219 
L 604.549174 -41.734219 
L 610.45391 -41.734219 
L 616.358647 -41.734219 
L 622.263383 -41.734219 
L 628.168119 -41.734219 
L 634.072855 -41.734219 
L 639.977591 -41.734219 
L 645.882328 -41.734219 
L 651.787064 -41.734219 
L 657.6918 -41.734219 
L 663.596536 -41.734219 
L 669.501273 -41.734219 
L 675.406009 -41.734219 
L 681.310745 -41.734219 
L 687.215481 -41.734219 
L 693.120218 -41.734219 
L 699.024954 -41.734219 
L 704.92969 -41.734219 
L 710.834426 -41.734219 
L 716.739163 -41.734219 
L 722.643899 -41.734219 
L 728.548635 -41.734219 
L 734.453371 -41.734219 
L 740.358108 -41.734219 
L 746.262844 -41.734219 
L 752.16758 -41.734219 
L 758.072316 -41.734219 
L 763.977053 -41.734219 
L 769.881789 -41.734219 
L 775.786525 -41.734219 
L 781.691261 -41.734219 
L 787.595997 -41.734219 
L 793.500734 -41.734219 
L 799.40547 -41.734219 
L 805.310206 -41.734219 
L 811.214942 -41.734219 
L 817.119679 -41.734219 
L 823.024415 -41.734219 
L 828.929151 -41.734219 
L 834.833887 -41.734219 
L 840.738624 -41.734219 
L 846.64336 -41.734219 
L 852.548096 -41.734219 
L 858.452832 -41.734219 
L 864.357569 -41.734219 
L 870.262305 -41.734219 
L 876.167041 -41.734219 
L 882.071777 -41.734219 
L 887.976514 -41.734219 
L 893.88125 -41.734219 
L 899.785986 -41.734219 
L 905.690722 -41.734219 
L 911.595459 -41.734219 
L 917.500195 -41.734219 
L 923.404931 -41.734219 
L 929.309667 -41.734219 
L 935.214404 -41.734219 
L 941.11914 -41.734219 
L 947.023876 -41.734219 
L 952.928612 -41.734219 
L 958.833348 -41.734219 
L 964.738085 -41.734219 
L 970.642821 -41.734219 
L 976.547557 -41.734219 
L 982.452293 -41.734219 
L 988.35703 -41.734219 
L 994.261766 -41.734219 
L 1000.166502 -41.734219 
L 1006.071238 -41.734219 
L 1011.975975 -41.734219 
L 1017.880711 -41.734219 
L 1023.785447 -41.734219 
L 1029.690183 -41.734219 
L 1035.59492 -41.734219 
L 1041.499656 -41.734219 
L 1047.404392 -41.734219 
L 1053.309128 -41.734219 
L 1059.213865 -41.734219 
L 1065.118601 -41.734219 
L 1071.023337 -41.734219 
L 1076.928073 -41.734219 
L 1082.83281 -41.734219 
L 1088.737546 -41.734219 
L 1094.642282 -41.734219 
L 1100.547018 -41.734219 
L 1106.451754 -41.734219 
L 1112.356491 -41.734219 
L 1118.261227 -41.734219 
L 1124.165963 -41.734219 
L 1130.070699 -41.734219 
L 1135.975436 -41.734219 
L 1141.880172 -41.734219 
L 1147.784908 -41.734219 
L 1153.689644 -41.734219 
L 1159.594381 -41.734219 
L 1165.499117 -41.734219 
L 1171.403853 -41.734219 
L 1177.308589 -41.734219 
L 1183.213326 -41.734219 
L 1189.118062 -41.734219 
L 1195.022798 -41.734219 
L 1200.927534 -41.734219 
L 1206.832271 -41.734219 
L 1212.737007 -41.734219 
L 1212.737007 -41.736829 
L 1212.737007 -41.736829 
L 1206.832271 -41.7379 
L 1200.927534 -41.739346 
L 1195.022798 -41.74127 
L 1189.118062 -41.743796 
L 1183.213326 -41.747066 
L 1177.308589 -41.751239 
L 1171.403853 -41.756493 
L 1165.499117 -41.763014 
L 1159.594381 -41.770995 
L 1153.689644 -41.780626 
L 1147.784908 -41.792085 
L 1141.880172 -41.805527 
L 1135.975436 -41.821074 
L 1130.070699 -41.838803 
L 1124.165963 -41.858736 
L 1118.261227 -41.880831 
L 1112.356491 -41.904984 
L 1106.451754 -41.931021 
L 1100.547018 -41.958709 
L 1094.642282 -41.987761 
L 1088.737546 -42.017854 
L 1082.83281 -42.048647 
L 1076.928073 -42.079798 
L 1071.023337 -42.110988 
L 1065.118601 -42.141941 
L 1059.213865 -42.172436 
L 1053.309128 -42.202323 
L 1047.404392 -42.231517 
L 1041.499656 -42.26 
L 1035.59492 -42.287797 
L 1029.690183 -42.314959 
L 1023.785447 -42.341529 
L 1017.880711 -42.367511 
L 1011.975975 -42.392837 
L 1006.071238 -42.417336 
L 1000.166502 -42.440716 
L 994.261766 -42.462556 
L 988.35703 -42.482309 
L 982.452293 -42.499326 
L 976.547557 -42.512889 
L 970.642821 -42.522263 
L 964.738085 -42.526754 
L 958.833348 -42.525771 
L 952.928612 -42.518888 
L 947.023876 -42.505903 
L 941.11914 -42.48688 
L 935.214404 -42.46218 
L 929.309667 -42.432471 
L 923.404931 -42.398721 
L 917.500195 -42.362176 
L 911.595459 -42.324317 
L 905.690722 -42.286808 
L 899.785986 -42.251441 
L 893.88125 -42.220068 
L 887.976514 -42.194539 
L 882.071777 -42.176642 
L 876.167041 -42.168045 
L 870.262305 -42.170241 
L 864.357569 -42.184502 
L 858.452832 -42.211833 
L 852.548096 -42.252928 
L 846.64336 -42.308126 
L 840.738624 -42.377378 
L 834.833887 -42.460204 
L 828.929151 -42.555672 
L 823.024415 -42.662372 
L 817.119679 -42.778417 
L 811.214942 -42.901457 
L 805.310206 -43.028715 
L 799.40547 -43.157057 
L 793.500734 -43.283082 
L 787.595997 -43.40324 
L 781.691261 -43.513974 
L 775.786525 -43.611879 
L 769.881789 -43.693862 
L 763.977053 -43.757302 
L 758.072316 -43.800196 
L 752.16758 -43.821272 
L 746.262844 -43.820073 
L 740.358108 -43.796987 
L 734.453371 -43.753241 
L 728.548635 -43.690833 
L 722.643899 -43.612434 
L 716.739163 -43.52124 
L 710.834426 -43.420806 
L 704.92969 -43.314861 
L 699.024954 -43.207132 
L 693.120218 -43.101165 
L 687.215481 -43.000185 
L 681.310745 -42.90698 
L 675.406009 -42.823822 
L 669.501273 -42.752432 
L 663.596536 -42.693979 
L 657.6918 -42.649107 
L 651.787064 -42.617994 
L 645.882328 -42.600422 
L 639.977591 -42.595856 
L 634.072855 -42.603521 
L 628.168119 -42.622476 
L 622.263383 -42.651665 
L 616.358647 -42.689971 
L 610.45391 -42.736236 
L 604.549174 -42.789286 
L 598.644438 -42.847942 
L 592.739702 -42.91102 
L 586.834965 -42.977347 
L 580.930229 -43.045771 
L 575.025493 -43.115187 
L 569.120757 -43.184565 
L 563.21602 -43.252999 
L 557.311284 -43.319752 
L 551.406548 -43.384312 
L 545.501812 -43.446441 
L 539.597075 -43.50622 
L 533.692339 -43.564085 
L 527.787603 -43.620841 
L 521.882867 -43.67766 
L 515.97813 -43.73606 
L 510.073394 -43.797867 
L 504.168658 -43.865153 
L 498.263922 -43.94017 
L 492.359185 -44.025272 
L 486.454449 -44.122836 
L 480.549713 -44.235187 
L 474.644977 -44.364524 
L 468.740241 -44.512866 
L 462.835504 -44.681997 
L 456.930768 -44.873434 
L 451.026032 -45.088395 
L 445.121296 -45.327786 
L 439.216559 -45.592194 
L 433.311823 -45.881887 
L 427.407087 -46.19683 
L 421.502351 -46.536719 
L 415.597614 -46.901036 
L 409.692878 -47.289132 
L 403.788142 -47.700351 
L 397.883406 -48.134193 
L 391.978669 -48.590526 
L 386.073933 -49.06983 
L 380.169197 -49.573476 
L 374.264461 -50.104013 
L 368.359724 -50.665437 
L 362.454988 -51.263413 
L 356.550252 -51.9054 
L 350.645516 -52.600657 
L 344.740779 -53.360073 
L 338.836043 -54.195808 
L 332.931307 -55.120715 
L 327.026571 -56.147551 
L 321.121835 -57.287986 
L 315.217098 -58.551455 
L 309.312362 -59.943915 
L 303.407626 -61.466579 
L 297.50289 -63.114729 
L 291.598153 -64.876713 
L 285.693417 -66.733216 
L 279.788681 -68.656935 
L 273.883945 -70.612697 
L 267.979208 -72.558117 
L 262.074472 -74.444783 
L 256.169736 -76.219965 
L 250.265 -77.82878 
L 244.360263 -79.216707 
L 238.455527 -80.332308 
L 232.550791 -81.129969 
L 226.646055 -81.572497 
L 220.741318 -81.633354 
L 214.836582 -81.298368 
L 208.931846 -80.56679 
L 203.02711 -79.451576 
L 197.122373 -77.978895 
L 191.217637 -76.186856 
L 185.312901 -74.123571 
L 179.408165 -71.844682 
L 173.503429 -69.410539 
L 167.598692 -66.88323 
L 161.693956 -64.323685 
L 155.78922 -61.789032 
L 149.884484 -59.330372 
L 143.979747 -56.991091 
L 138.075011 -54.805769 
L 132.170275 -52.799701 
L 126.265539 -50.988986 
L 120.360802 -49.381113 
L 114.456066 -47.975927 
L 108.55133 -46.76687 
L 102.646594 -45.742363 
L 96.741857 -44.887206 
L 90.837121 -44.183928 
L 84.932385 -43.613979 
L 79.027649 -43.158741 
L 73.122912 -42.800322 
L 67.218176 -42.522132 
L 61.31344 -42.309252 
L 55.408704 -42.148629 
L 49.503967 -42.029122 
L 43.599231 -41.941437 
L 37.694495 -41.877988 
z
" style="stroke: #4c72b0"/>
    </defs>
    <g clip-path="url(#pf222b77edf)">
     <use xlink:href="#mce6b50f428" x="0" y="291.021094" style="fill: #4c72b0; fill-opacity: 0.25; stroke: #4c72b0"/>
    </g>
   </g>
   <g id="patch_3">
    <path d="M 47.105 249.286875 
L 47.105 21.789375 
" style="fill: none; stroke: #cccccc; stroke-width: 1.25; stroke-linejoin: miter; stroke-linecap: square"/>
   </g>
   <g id="patch_4">
    <path d="M 47.105 249.286875 
L 1049.53535 249.286875 
" style="fill: none; stroke: #cccccc; stroke-width: 1.25; stroke-linejoin: miter; stroke-linecap: square"/>
   </g>
   <g id="text_29">
    <!-- KDE Plot of Execution Times -->
    <g style="fill: #262626" transform="translate(471.622362 15.789375) scale(0.12 -0.12)">
     <defs>
      <path id="ArialMT-4b" d="M 469 0 
L 469 4581 
L 1075 4581 
L 1075 2309 
L 3350 4581 
L 4172 4581 
L 2250 2725 
L 4256 0 
L 3456 0 
L 1825 2319 
L 1075 1588 
L 1075 0 
L 469 0 
z
" transform="scale(0.015625)"/>
      <path id="ArialMT-50" d="M 494 0 
L 494 4581 
L 2222 4581 
Q 2678 4581 2919 4538 
Q 3256 4481 3484 4323 
Q 3713 4166 3852 3881 
Q 3991 3597 3991 3256 
Q 3991 2672 3619 2267 
Q 3247 1863 2275 1863 
L 1100 1863 
L 1100 0 
L 494 0 
z
M 1100 2403 
L 2284 2403 
Q 2872 2403 3119 2622 
Q 3366 2841 3366 3238 
Q 3366 3525 3220 3729 
Q 3075 3934 2838 4000 
Q 2684 4041 2272 4041 
L 1100 4041 
L 1100 2403 
z
" transform="scale(0.015625)"/>
      <path id="ArialMT-6c" d="M 409 0 
L 409 4581 
L 972 4581 
L 972 0 
L 409 0 
z
" transform="scale(0.015625)"/>
      <path id="ArialMT-66" d="M 556 0 
L 556 2881 
L 59 2881 
L 59 3319 
L 556 3319 
L 556 3672 
Q 556 4006 616 4169 
Q 697 4388 901 4523 
Q 1106 4659 1475 4659 
Q 1713 4659 2000 4603 
L 1916 4113 
Q 1741 4144 1584 4144 
Q 1328 4144 1222 4034 
Q 1116 3925 1116 3625 
L 1116 3319 
L 1763 3319 
L 1763 2881 
L 1116 2881 
L 1116 0 
L 556 0 
z
" transform="scale(0.015625)"/>
     </defs>
     <use xlink:href="#ArialMT-4b"/>
     <use xlink:href="#ArialMT-44" x="66.699219"/>
     <use xlink:href="#ArialMT-45" x="138.916016"/>
     <use xlink:href="#ArialMT-20" x="205.615234"/>
     <use xlink:href="#ArialMT-50" x="233.398438"/>
     <use xlink:href="#ArialMT-6c" x="300.097656"/>
     <use xlink:href="#ArialMT-6f" x="322.314453"/>
     <use xlink:href="#ArialMT-74" x="377.929688"/>
     <use xlink:href="#ArialMT-20" x="405.712891"/>
     <use xlink:href="#ArialMT-6f" x="433.496094"/>
     <use xlink:href="#ArialMT-66" x="489.111328"/>
     <use xlink:href="#ArialMT-20" x="516.894531"/>
     <use xlink:href="#ArialMT-45" x="544.677734"/>
     <use xlink:href="#ArialMT-78" x="611.376953"/>
     <use xlink:href="#ArialMT-65" x="661.376953"/>
     <use xlink:href="#ArialMT-63" x="716.992188"/>
     <use xlink:href="#ArialMT-75" x="766.992188"/>
     <use xlink:href="#ArialMT-74" x="822.607422"/>
     <use xlink:href="#ArialMT-69" x="850.390625"/>
     <use xlink:href="#ArialMT-6f" x="872.607422"/>
     <use xlink:href="#ArialMT-6e" x="928.222656"/>
     <use xlink:href="#ArialMT-20" x="983.837891"/>
     <use xlink:href="#ArialMT-54" x="1009.871094"/>
     <use xlink:href="#ArialMT-69" x="1067.205078"/>
     <use xlink:href="#ArialMT-6d" x="1089.421875"/>
     <use xlink:href="#ArialMT-65" x="1172.722656"/>
     <use xlink:href="#ArialMT-73" x="1228.337891"/>
    </g>
   </g>
  </g>
  <g id="legend_1">
   <g id="text_30">
    <!-- model -->
    <g style="fill: #262626" transform="translate(1109.342031 125.138047) scale(0.12 -0.12)">
     <defs>
      <path id="ArialMT-64" d="M 2575 0 
L 2575 419 
Q 2259 -75 1647 -75 
Q 1250 -75 917 144 
Q 584 363 401 755 
Q 219 1147 219 1656 
Q 219 2153 384 2558 
Q 550 2963 881 3178 
Q 1213 3394 1622 3394 
Q 1922 3394 2156 3267 
Q 2391 3141 2538 2938 
L 2538 4581 
L 3097 4581 
L 3097 0 
L 2575 0 
z
M 797 1656 
Q 797 1019 1065 703 
Q 1334 388 1700 388 
Q 2069 388 2326 689 
Q 2584 991 2584 1609 
Q 2584 2291 2321 2609 
Q 2059 2928 1675 2928 
Q 1300 2928 1048 2622 
Q 797 2316 797 1656 
z
" transform="scale(0.015625)"/>
     </defs>
     <use xlink:href="#ArialMT-6d"/>
     <use xlink:href="#ArialMT-6f" x="83.300781"/>
     <use xlink:href="#ArialMT-64" x="138.916016"/>
     <use xlink:href="#ArialMT-65" x="194.53125"/>
     <use xlink:href="#ArialMT-6c" x="250.146484"/>
    </g>
   </g>
   <g id="patch_5">
    <path d="M 1074.826563 140.896641 
L 1096.826563 140.896641 
L 1096.826563 133.196641 
L 1074.826563 133.196641 
z
" style="fill: #4c72b0; fill-opacity: 0.25; stroke: #4c72b0; stroke-linejoin: miter"/>
   </g>
   <g id="text_31">
    <!-- GPT-4 -->
    <g style="fill: #262626" transform="translate(1105.626563 140.896641) scale(0.11 -0.11)">
     <defs>
      <path id="ArialMT-47" d="M 2638 1797 
L 2638 2334 
L 4578 2338 
L 4578 638 
Q 4131 281 3656 101 
Q 3181 -78 2681 -78 
Q 2006 -78 1454 211 
Q 903 500 622 1047 
Q 341 1594 341 2269 
Q 341 2938 620 3517 
Q 900 4097 1425 4378 
Q 1950 4659 2634 4659 
Q 3131 4659 3532 4498 
Q 3934 4338 4162 4050 
Q 4391 3763 4509 3300 
L 3963 3150 
Q 3859 3500 3706 3700 
Q 3553 3900 3268 4020 
Q 2984 4141 2638 4141 
Q 2222 4141 1919 4014 
Q 1616 3888 1430 3681 
Q 1244 3475 1141 3228 
Q 966 2803 966 2306 
Q 966 1694 1177 1281 
Q 1388 869 1791 669 
Q 2194 469 2647 469 
Q 3041 469 3416 620 
Q 3791 772 3984 944 
L 3984 1797 
L 2638 1797 
z
" transform="scale(0.015625)"/>
      <path id="ArialMT-2d" d="M 203 1375 
L 203 1941 
L 1931 1941 
L 1931 1375 
L 203 1375 
z
" transform="scale(0.015625)"/>
     </defs>
     <use xlink:href="#ArialMT-47"/>
     <use xlink:href="#ArialMT-50" x="77.783203"/>
     <use xlink:href="#ArialMT-54" x="144.482422"/>
     <use xlink:href="#ArialMT-2d" x="200.066406"/>
     <use xlink:href="#ArialMT-34" x="233.367188"/>
    </g>
   </g>
   <g id="patch_6">
    <path d="M 1074.826563 156.456484 
L 1096.826563 156.456484 
L 1096.826563 148.756484 
L 1074.826563 148.756484 
z
" style="fill: #dd8452; fill-opacity: 0.25; stroke: #dd8452; stroke-linejoin: miter"/>
   </g>
   <g id="text_32">
    <!-- GPT-4 Turbo -->
    <g style="fill: #262626" transform="translate(1105.626563 156.456484) scale(0.11 -0.11)">
     <defs>
      <path id="ArialMT-72" d="M 416 0 
L 416 3319 
L 922 3319 
L 922 2816 
Q 1116 3169 1280 3281 
Q 1444 3394 1641 3394 
Q 1925 3394 2219 3213 
L 2025 2691 
Q 1819 2813 1613 2813 
Q 1428 2813 1281 2702 
Q 1134 2591 1072 2394 
Q 978 2094 978 1738 
L 978 0 
L 416 0 
z
" transform="scale(0.015625)"/>
      <path id="ArialMT-62" d="M 941 0 
L 419 0 
L 419 4581 
L 981 4581 
L 981 2947 
Q 1338 3394 1891 3394 
Q 2197 3394 2470 3270 
Q 2744 3147 2920 2923 
Q 3097 2700 3197 2384 
Q 3297 2069 3297 1709 
Q 3297 856 2875 390 
Q 2453 -75 1863 -75 
Q 1275 -75 941 416 
L 941 0 
z
M 934 1684 
Q 934 1088 1097 822 
Q 1363 388 1816 388 
Q 2184 388 2453 708 
Q 2722 1028 2722 1663 
Q 2722 2313 2464 2622 
Q 2206 2931 1841 2931 
Q 1472 2931 1203 2611 
Q 934 2291 934 1684 
z
" transform="scale(0.015625)"/>
     </defs>
     <use xlink:href="#ArialMT-47"/>
     <use xlink:href="#ArialMT-50" x="77.783203"/>
     <use xlink:href="#ArialMT-54" x="144.482422"/>
     <use xlink:href="#ArialMT-2d" x="200.066406"/>
     <use xlink:href="#ArialMT-34" x="233.367188"/>
     <use xlink:href="#ArialMT-20" x="288.982422"/>
     <use xlink:href="#ArialMT-54" x="315.015625"/>
     <use xlink:href="#ArialMT-75" x="372.349609"/>
     <use xlink:href="#ArialMT-72" x="427.964844"/>
     <use xlink:href="#ArialMT-62" x="461.265625"/>
     <use xlink:href="#ArialMT-6f" x="516.880859"/>
    </g>
   </g>
   <g id="patch_7">
    <path d="M 1074.826563 172.157266 
L 1096.826563 172.157266 
L 1096.826563 164.457266 
L 1074.826563 164.457266 
z
" style="fill: #55a868; fill-opacity: 0.25; stroke: #55a868; stroke-linejoin: miter"/>
   </g>
   <g id="text_33">
    <!-- GPT-4 Omega -->
    <g style="fill: #262626" transform="translate(1105.626563 172.157266) scale(0.11 -0.11)">
     <defs>
      <path id="ArialMT-4f" d="M 309 2231 
Q 309 3372 921 4017 
Q 1534 4663 2503 4663 
Q 3138 4663 3647 4359 
Q 4156 4056 4423 3514 
Q 4691 2972 4691 2284 
Q 4691 1588 4409 1038 
Q 4128 488 3612 205 
Q 3097 -78 2500 -78 
Q 1853 -78 1343 234 
Q 834 547 571 1087 
Q 309 1628 309 2231 
z
M 934 2222 
Q 934 1394 1379 917 
Q 1825 441 2497 441 
Q 3181 441 3623 922 
Q 4066 1403 4066 2288 
Q 4066 2847 3877 3264 
Q 3688 3681 3323 3911 
Q 2959 4141 2506 4141 
Q 1863 4141 1398 3698 
Q 934 3256 934 2222 
z
" transform="scale(0.015625)"/>
      <path id="ArialMT-67" d="M 319 -275 
L 866 -356 
Q 900 -609 1056 -725 
Q 1266 -881 1628 -881 
Q 2019 -881 2231 -725 
Q 2444 -569 2519 -288 
Q 2563 -116 2559 434 
Q 2191 0 1641 0 
Q 956 0 581 494 
Q 206 988 206 1678 
Q 206 2153 378 2554 
Q 550 2956 876 3175 
Q 1203 3394 1644 3394 
Q 2231 3394 2613 2919 
L 2613 3319 
L 3131 3319 
L 3131 450 
Q 3131 -325 2973 -648 
Q 2816 -972 2473 -1159 
Q 2131 -1347 1631 -1347 
Q 1038 -1347 672 -1080 
Q 306 -813 319 -275 
z
M 784 1719 
Q 784 1066 1043 766 
Q 1303 466 1694 466 
Q 2081 466 2343 764 
Q 2606 1063 2606 1700 
Q 2606 2309 2336 2618 
Q 2066 2928 1684 2928 
Q 1309 2928 1046 2623 
Q 784 2319 784 1719 
z
" transform="scale(0.015625)"/>
      <path id="ArialMT-61" d="M 2588 409 
Q 2275 144 1986 34 
Q 1697 -75 1366 -75 
Q 819 -75 525 192 
Q 231 459 231 875 
Q 231 1119 342 1320 
Q 453 1522 633 1644 
Q 813 1766 1038 1828 
Q 1203 1872 1538 1913 
Q 2219 1994 2541 2106 
Q 2544 2222 2544 2253 
Q 2544 2597 2384 2738 
Q 2169 2928 1744 2928 
Q 1347 2928 1158 2789 
Q 969 2650 878 2297 
L 328 2372 
Q 403 2725 575 2942 
Q 747 3159 1072 3276 
Q 1397 3394 1825 3394 
Q 2250 3394 2515 3294 
Q 2781 3194 2906 3042 
Q 3031 2891 3081 2659 
Q 3109 2516 3109 2141 
L 3109 1391 
Q 3109 606 3145 398 
Q 3181 191 3288 0 
L 2700 0 
Q 2613 175 2588 409 
z
M 2541 1666 
Q 2234 1541 1622 1453 
Q 1275 1403 1131 1340 
Q 988 1278 909 1158 
Q 831 1038 831 891 
Q 831 666 1001 516 
Q 1172 366 1500 366 
Q 1825 366 2078 508 
Q 2331 650 2450 897 
Q 2541 1088 2541 1459 
L 2541 1666 
z
" transform="scale(0.015625)"/>
     </defs>
     <use xlink:href="#ArialMT-47"/>
     <use xlink:href="#ArialMT-50" x="77.783203"/>
     <use xlink:href="#ArialMT-54" x="144.482422"/>
     <use xlink:href="#ArialMT-2d" x="200.066406"/>
     <use xlink:href="#ArialMT-34" x="233.367188"/>
     <use xlink:href="#ArialMT-20" x="288.982422"/>
     <use xlink:href="#ArialMT-4f" x="316.765625"/>
     <use xlink:href="#ArialMT-6d" x="394.548828"/>
     <use xlink:href="#ArialMT-65" x="477.849609"/>
     <use xlink:href="#ArialMT-67" x="533.464844"/>
     <use xlink:href="#ArialMT-61" x="589.080078"/>
    </g>
   </g>
  </g>
 </g>
 <defs>
  <clipPath id="pf222b77edf">
   <rect x="47.105" y="21.789375" width="1002.43035" height="227.4975"/>
  </clipPath>
 </defs>
</svg>
